<svg width="34" height="34" viewBox="0 0 34 34" fill="none" xmlns="http://www.w3.org/2000/svg">
<path d="M13.2015 11.6133L10.014 21.5583C9.99512 21.6136 9.98959 21.6726 9.99789 21.7304C10.0062 21.7882 10.0281 21.8432 10.0618 21.8909C10.0955 21.9387 10.1401 21.9777 10.1918 22.0048C10.2435 22.032 10.3009 22.0465 10.3593 22.0471H11.2518C11.3315 22.0469 11.409 22.0209 11.4726 21.973C11.5363 21.9251 11.5828 21.8579 11.6051 21.7815L12.1045 20.1877H16.4687L16.4076 20.0894L16.9548 21.7815C16.9772 21.8579 17.0236 21.9251 17.0873 21.973C17.151 22.0209 17.2284 22.0469 17.3081 22.0471H18.2006C18.2591 22.0474 18.3168 22.0339 18.369 22.0076C18.4212 21.9813 18.4664 21.9429 18.5009 21.8957C18.5354 21.8485 18.5582 21.7938 18.5674 21.7361C18.5766 21.6783 18.572 21.6192 18.5539 21.5637L15.3664 11.6187C15.3436 11.5424 15.2971 11.4755 15.2335 11.4277C15.1699 11.3798 15.0926 11.3537 15.0131 11.353H13.5468C13.4692 11.3546 13.3941 11.3806 13.3321 11.4273C13.2701 11.4741 13.2244 11.5392 13.2015 11.6133ZM12.6358 18.594L14.28 13.4754L15.9375 18.594H12.6358Z" fill="#A0A0A0"/>
<path d="M22.2062 11.3555H21.3563C21.1509 11.3555 20.9844 11.522 20.9844 11.7273V21.6723C20.9844 21.8777 21.1509 22.0442 21.3563 22.0442H22.2062C22.4116 22.0442 22.5781 21.8777 22.5781 21.6723V11.7273C22.5781 11.522 22.4116 11.3555 22.2062 11.3555Z" fill="#A0A0A0"/>
<path d="M17.8659 26.0313H10.1363C9.56139 26.0313 9.01008 25.8029 8.6036 25.3964C8.19711 24.9899 7.96875 24.4386 7.96875 23.8638V10.1363C7.96875 9.5614 8.19711 9.01009 8.6036 8.6036C9.01008 8.19712 9.56139 7.96876 10.1363 7.96876H23.8637C24.4386 7.96876 24.9899 8.19712 25.3964 8.6036C25.8029 9.01009 26.0312 9.5614 26.0312 10.1363V17C26.0361 17.1449 26.098 17.282 26.2035 17.3815C26.3089 17.481 26.4494 17.5348 26.5944 17.5313C27.0467 17.5299 27.4932 17.6335 27.8986 17.8341C27.9828 17.8772 28.0767 17.8979 28.1712 17.8939C28.2657 17.89 28.3576 17.8616 28.4378 17.8116C28.5181 17.7615 28.584 17.6916 28.6292 17.6084C28.6743 17.5253 28.6972 17.4319 28.6955 17.3373V10.1363C28.6955 9.50212 28.5704 8.87421 28.3275 8.28844C28.0846 7.70268 27.7286 7.17056 27.2798 6.72253C26.831 6.2745 26.2983 5.91935 25.7122 5.6774C25.126 5.43546 24.4979 5.31146 23.8637 5.31251H10.1363C8.85691 5.31251 7.62997 5.82072 6.72534 6.72535C5.82072 7.62998 5.3125 8.85692 5.3125 10.1363V23.8638C5.3125 25.1431 5.82072 26.37 6.72534 27.2747C7.62997 28.1793 8.85691 28.6875 10.1363 28.6875H18.9816C19.0903 28.6876 19.1965 28.6556 19.287 28.5953C19.3775 28.5351 19.4481 28.4494 19.4898 28.349C19.5316 28.2487 19.5427 28.1382 19.5218 28.0316C19.5008 27.9249 19.4487 27.8269 19.372 27.7498C18.9587 27.3707 18.6239 26.914 18.3866 26.4058C18.3485 26.2976 18.2782 26.2037 18.1851 26.1367C18.092 26.0697 17.9806 26.0329 17.8659 26.0313Z" fill="#A0A0A0"/>
<path d="M29.6782 27.0409L32.0848 26.0926C32.1343 26.073 32.1768 26.039 32.2068 25.9949C32.2367 25.9509 32.2528 25.8988 32.2528 25.8455C32.2528 25.7923 32.2367 25.7402 32.2068 25.6962C32.1768 25.6521 32.1343 25.6181 32.0848 25.5985L29.6782 24.6502C29.2522 24.4818 28.8653 24.2278 28.5413 23.9038C28.2174 23.5799 27.9634 23.193 27.7949 22.767L26.8466 20.3763C26.827 20.3269 26.7929 20.2845 26.7488 20.2547C26.7048 20.2249 26.6528 20.2089 26.5996 20.209C26.5464 20.2089 26.4944 20.2249 26.4504 20.2547C26.4063 20.2845 26.3723 20.3269 26.3526 20.3763L25.4043 22.767C25.2363 23.1932 24.9824 23.5804 24.6584 23.9043C24.3344 24.2283 23.9473 24.4822 23.521 24.6502L21.1304 25.5985C21.0809 25.6181 21.0383 25.6521 21.0084 25.6962C20.9784 25.7402 20.9624 25.7923 20.9624 25.8455C20.9624 25.8988 20.9784 25.9509 21.0084 25.9949C21.0383 26.039 21.0809 26.073 21.1304 26.0926L23.521 27.0409C23.9473 27.2089 24.3344 27.4628 24.6584 27.7868C24.9824 28.1107 25.2363 28.4979 25.4043 28.9241L26.3526 31.3148C26.3718 31.3647 26.4057 31.4076 26.4498 31.438C26.4939 31.4683 26.5461 31.4846 26.5996 31.4848C26.6531 31.4846 26.7053 31.4683 26.7494 31.438C26.7935 31.4076 26.8274 31.3647 26.8466 31.3148L27.7949 28.9241C27.9634 28.4981 28.2174 28.1112 28.5413 27.7873C28.8653 27.4633 29.2522 27.2093 29.6782 27.0409Z" fill="#A0A0A0"/>
</svg>
