<svg width="24" height="25" viewBox="0 0 24 25" fill="none" xmlns="http://www.w3.org/2000/svg">
<path opacity="0.4" d="M2.69795 2.69795H10.7918C11.5337 2.69795 12.1408 2.09091 12.1408 1.34898C12.1408 0.607039 11.5337 0 10.7918 0H2.69795C1.21408 0 0 1.21408 0 2.69795V21.5836C0 23.0675 1.21408 24.2816 2.69795 24.2816H10.7918C11.5337 24.2816 12.1408 23.6745 12.1408 22.9326C12.1408 22.1907 11.5337 21.5836 10.7918 21.5836H2.69795V2.69795Z" fill="#1A1A1A"/>
<path opacity="0.4" d="M23.8093 11.6688L20.0457 7.90511C19.9519 7.80873 19.8314 7.74253 19.6998 7.715C19.5681 7.68746 19.4312 7.69984 19.3066 7.75054C19.1821 7.80124 19.0754 7.88797 19.0004 7.99961C18.9254 8.11126 18.8854 8.24275 18.8856 8.37725V10.7919H9.44273C8.70079 10.7919 8.09375 11.399 8.09375 12.1409C8.09375 12.8828 8.70079 13.4899 9.44273 13.4899H18.8856V15.9045C18.8856 16.5116 19.614 16.8084 20.0322 16.3767L23.7958 12.613C24.0656 12.3567 24.0656 11.9251 23.8093 11.6688Z" fill="#1A1A1A"/>
</svg>
