<svg width="23" height="24" viewBox="0 0 23 24" fill="none" xmlns="http://www.w3.org/2000/svg">
<path opacity="0.4" fill-rule="evenodd" clip-rule="evenodd" d="M13.5352 0.1824C13.0912 -5.96046e-08 12.5272 0 11.4004 0C10.2736 0 9.71078 -5.96046e-08 9.26558 0.1824C8.67452 0.425053 8.20403 0.892518 7.95758 1.482C7.84478 1.7496 7.80158 2.0628 7.78358 2.5176C7.77558 2.84712 7.68366 3.16916 7.51652 3.45326C7.34937 3.73736 7.11253 3.97414 6.82838 4.1412C6.53887 4.30212 6.21343 4.38737 5.88221 4.38905C5.55099 4.39073 5.2247 4.30878 4.93358 4.1508C4.52798 3.9372 4.23398 3.8196 3.94358 3.7812C3.30824 3.69778 2.66567 3.86856 2.15558 4.2564C1.77398 4.5468 1.49198 5.0316 0.929179 6C0.365179 6.9684 0.0843786 7.452 0.0207786 7.926C-0.0632214 8.5572 0.109579 9.1956 0.500779 9.7008C0.678379 9.9312 0.929179 10.1244 1.31678 10.3668C1.88918 10.7232 2.25638 11.3304 2.25638 12C2.25638 12.6696 1.88918 13.2768 1.31798 13.632C0.929179 13.8756 0.678379 14.0688 0.499579 14.2992C0.306478 14.5487 0.164742 14.8341 0.0825598 15.1387C0.000377871 15.4433 -0.0206204 15.7612 0.0207786 16.074C0.0843786 16.5468 0.365179 17.0316 0.929179 18C1.49318 18.9684 1.77398 19.452 2.15558 19.7436C2.66438 20.1312 3.30758 20.3016 3.94358 20.2188C4.23398 20.1804 4.52798 20.0628 4.93358 19.8492C5.22485 19.691 5.55136 19.6089 5.88281 19.6106C6.21427 19.6123 6.53993 19.6977 6.82958 19.8588C7.41278 20.1948 7.75838 20.8128 7.78358 21.4824C7.80158 21.9384 7.84478 22.2504 7.95758 22.518C8.20238 23.106 8.67278 23.574 9.26558 23.8176C9.70958 24 10.2736 24 11.4004 24C12.5272 24 13.0912 24 13.5352 23.8176C14.1262 23.5749 14.5967 23.1075 14.8432 22.518C14.956 22.2504 14.9992 21.9384 15.0172 21.4824C15.0412 20.8128 15.388 20.1936 15.9724 19.8588C16.2619 19.6979 16.5873 19.6126 16.9185 19.6109C17.2498 19.6093 17.5761 19.6912 17.8672 19.8492C18.2728 20.0628 18.5668 20.1804 18.8572 20.2188C19.4932 20.3028 20.1364 20.1312 20.6452 19.7436C21.0268 19.4532 21.3088 18.9684 21.8716 18C22.4356 17.0316 22.7164 16.548 22.78 16.074C22.8212 15.7611 22.8 15.4432 22.7176 15.1386C22.6352 14.8339 22.4933 14.5486 22.3 14.2992C22.1224 14.0688 21.8716 13.8756 21.484 13.6332C20.9116 13.2768 20.5444 12.6696 20.5444 12C20.5444 11.3304 20.9116 10.7232 21.4828 10.368C21.8716 10.1244 22.1224 9.9312 22.3012 9.7008C22.4943 9.45127 22.636 9.16595 22.7182 8.86132C22.8004 8.55669 22.8214 8.23879 22.78 7.926C22.7164 7.4532 22.4356 6.9684 21.8716 6C21.3076 5.0316 21.0268 4.548 20.6452 4.2564C20.1351 3.86856 19.4925 3.69778 18.8572 3.7812C18.5668 3.8196 18.2728 3.9372 17.8672 4.1508C17.5759 4.309 17.2494 4.39106 16.9179 4.38938C16.5865 4.3877 16.2608 4.30234 15.9712 4.1412C15.6873 3.97399 15.4506 3.73715 15.2837 3.45306C15.1168 3.16897 15.0251 2.84701 15.0172 2.5176C14.9992 2.0616 14.956 1.7496 14.8432 1.482C14.7212 1.19008 14.5429 0.925059 14.3185 0.702069C14.094 0.479079 13.8279 0.302493 13.5352 0.1824ZM11.4004 15.6C13.4044 15.6 15.028 13.9884 15.028 12C15.028 10.0116 13.4032 8.4 11.4004 8.4C9.39638 8.4 7.77278 10.0116 7.77278 12C7.77278 13.9884 9.39758 15.6 11.4004 15.6Z" fill="#1A1A1A"/>
</svg>
