<svg width="44" height="44" viewBox="0 0 44 44" fill="none" xmlns="http://www.w3.org/2000/svg">
<path d="M15.125 22C18.1583 22 20.625 19.5333 20.625 16.5C20.625 13.4667 18.1583 11 15.125 11C12.0917 11 9.625 13.4667 9.625 16.5C9.625 19.5333 12.0917 22 15.125 22Z" fill="#FFE082"/>
<path d="M20.4894 23.9824C20.0624 23.6145 19.4528 23.5487 18.9546 23.8079C16.6074 25.0405 13.6426 25.0405 11.2954 23.8079C10.7972 23.5487 10.1863 23.6145 9.76062 23.9824C7.92639 25.5588 6.875 27.8429 6.875 30.2505V31.6255C6.875 32.3855 7.48999 33.0005 8.25 33.0005H22C22.76 33.0005 23.375 32.3855 23.375 31.6255V30.2505C23.375 27.8429 22.3236 25.5588 20.4894 23.9824Z" fill="#42A5F5"/>
<g opacity="0.1">
<path d="M20.625 16.5C20.625 19.5387 18.1637 22 15.125 22V11C18.1637 11 20.625 13.4613 20.625 16.5Z" fill="black"/>
<path d="M23.375 30.2503V31.6253C23.375 32.3813 22.756 33.0003 22 33.0003H15.125V24.7234C16.4584 24.7234 17.7931 24.42 18.9613 23.8009C19.4568 23.5539 20.061 23.6089 20.488 23.9809C22.3303 25.5613 23.375 27.844 23.375 30.2503Z" fill="black"/>
</g>
<path d="M42.2222 21.0281L33.9722 12.7781C33.5787 12.3847 32.9866 12.2665 32.4736 12.48C31.9594 12.6922 31.625 13.1944 31.625 13.7503V17.8753H27.5C26.74 17.8753 26.125 18.4903 26.125 19.2503V24.7503C26.125 25.5103 26.74 26.1253 27.5 26.1253H31.625V30.2503C31.625 30.8062 31.9594 31.3084 32.4736 31.5206C32.6442 31.5917 32.8228 31.6253 33 31.6253C33.3572 31.6253 33.709 31.4857 33.9722 31.2225L42.2222 22.9725C42.7593 22.4354 42.7593 21.5652 42.2222 21.0281Z" fill="#EF5350"/>
<path opacity="0.1" d="M42.2262 22.9764L34.375 30.8276V13.1729L42.2262 21.024C42.762 21.5598 42.762 22.4407 42.2262 22.9764Z" fill="black"/>
<path d="M22 42.625H6.875C3.84167 42.625 1.375 40.1583 1.375 37.125V6.875C1.375 3.84167 3.84167 1.375 6.875 1.375H22C22.76 1.375 23.375 1.98999 23.375 2.75C23.375 3.51001 22.76 4.125 22 4.125H6.875C5.35901 4.125 4.125 5.35901 4.125 6.875V37.125C4.125 38.641 5.35901 39.875 6.875 39.875H22C22.76 39.875 23.375 40.49 23.375 41.25C23.375 42.01 22.76 42.625 22 42.625Z" fill="#FFCA28"/>
<g opacity="0.1">
<path d="M23.375 41.25C23.375 42.006 22.756 42.625 22 42.625H15.125V39.875H22C22.756 39.875 23.375 40.494 23.375 41.25Z" fill="black"/>
<path d="M22 4.125H15.125V1.375H22C22.756 1.375 23.375 1.99402 23.375 2.75C23.375 3.50598 22.756 4.125 22 4.125Z" fill="black"/>
</g>
</svg>
