<svg width="108" height="108" viewBox="0 0 108 108" fill="none" xmlns="http://www.w3.org/2000/svg">
<g clip-path="url(#clip0_2394_3147)">
<path d="M71.2548 64.2514C83.8599 64.2514 94.0783 54.033 94.0783 41.4279C94.0783 28.8229 83.8599 18.6045 71.2548 18.6045C58.6498 18.6045 48.4314 28.8229 48.4314 41.4279C48.4314 54.033 58.6498 64.2514 71.2548 64.2514Z" fill="url(#paint0_linear_2394_3147)"/>
<path d="M71.2548 64.2514C83.8599 64.2514 94.0783 54.033 94.0783 41.4279C94.0783 28.8229 83.8599 18.6045 71.2548 18.6045C58.6498 18.6045 48.4314 28.8229 48.4314 41.4279C48.4314 54.033 58.6498 64.2514 71.2548 64.2514Z" fill="url(#paint1_linear_2394_3147)"/>
<path d="M48.4314 41.4279C48.4314 54.0209 58.6408 64.2514 71.2548 64.2514C83.8478 64.2514 94.0783 54.042 94.0783 41.4279C94.0783 39.7826 93.9095 38.1795 93.572 36.6396H48.9376C48.6001 38.1795 48.4314 39.7826 48.4314 41.4279Z" fill="url(#paint2_linear_2394_3147)"/>
<path d="M71.2548 64.2304C83.8478 64.2304 94.0783 54.021 94.0783 41.4069C94.0783 28.814 83.8689 18.5835 71.2548 18.5835C69.6095 18.5835 68.0064 18.7522 66.4666 19.0897V63.7241C68.0064 64.0616 69.6095 64.2304 71.2548 64.2304Z" fill="url(#paint3_linear_2394_3147)"/>
<path d="M55.1182 57.5647C64.0198 66.4663 78.469 66.4663 87.3916 57.5647C96.2932 48.6632 96.2932 34.214 87.3916 25.2913C86.2315 24.1312 84.9659 23.1187 83.6581 22.2749L52.1018 53.8101C52.9456 55.139 53.9581 56.4046 55.1182 57.5647Z" fill="url(#paint4_linear_2394_3147)"/>
<path d="M71.2547 4.66162C72.6258 4.66162 73.7438 5.77959 73.7438 7.15068V12.4663C73.7438 13.8374 72.6258 14.9554 71.2547 14.9554C69.8836 14.9554 68.7656 13.8374 68.7656 12.4663V7.15068C68.7656 5.77959 69.8836 4.66162 71.2547 4.66162Z" fill="url(#paint5_linear_2394_3147)"/>
<path d="M108 41.428C108 42.7991 106.882 43.9171 105.511 43.9171H100.195C98.8243 43.9171 97.7063 42.7991 97.7063 41.428C97.7063 40.0569 98.8243 38.939 100.195 38.939H105.511C106.882 38.939 108 40.0569 108 41.428Z" fill="url(#paint6_linear_2394_3147)"/>
<path d="M52.5446 22.718C51.5743 23.6883 49.9923 23.6883 49.022 22.718L45.2673 18.9633C44.297 17.993 44.297 16.4109 45.2673 15.4406C46.2376 14.4703 47.8196 14.4703 48.7899 15.4406L52.5446 19.1953C53.5149 20.1656 53.5149 21.7477 52.5446 22.718Z" fill="url(#paint7_linear_2394_3147)"/>
<path d="M97.2424 67.3945C96.2721 68.3648 94.69 68.3648 93.7197 67.3945L89.965 63.6398C88.9947 62.6695 88.9947 61.0875 89.965 60.1171C90.9354 59.1468 92.5174 59.1468 93.4877 60.1171L97.2424 63.8718C98.2127 64.8632 98.2127 66.4242 97.2424 67.3945Z" fill="url(#paint8_linear_2394_3147)"/>
<path d="M97.2424 15.4406C98.2127 16.4109 98.2127 17.993 97.2424 18.9633L93.4877 22.718C92.5174 23.6883 90.9354 23.6883 89.965 22.718C88.9947 21.7477 88.9947 20.1656 89.965 19.1953L93.7197 15.4406C94.69 14.4703 96.2721 14.4703 97.2424 15.4406Z" fill="url(#paint9_linear_2394_3147)"/>
<path d="M68.85 59.2734C67.5633 59.2734 66.3187 59.4421 65.1375 59.7375C65.5172 58.1343 65.7281 56.4468 65.7281 54.7171C65.7281 42.8835 56.1305 33.2859 44.2969 33.2859C32.9695 33.2859 23.6883 42.082 22.9289 53.2406C21.4102 52.8398 19.8281 52.6078 18.1828 52.6078C8.14219 52.6078 0 60.771 0 70.8117C0 80.8523 8.14219 88.9945 18.1828 88.9945H68.85C77.0555 88.9945 83.7 82.35 83.7 74.1445C83.7 65.939 77.0555 59.2734 68.85 59.2734Z" fill="url(#paint10_linear_2394_3147)"/>
<path d="M68.85 88.9944C77.0514 88.9944 83.7 82.3459 83.7 74.1444C83.7 65.943 77.0514 59.2944 68.85 59.2944C60.6486 59.2944 54 65.943 54 74.1444C54 82.3459 60.6486 88.9944 68.85 88.9944Z" fill="url(#paint11_linear_2394_3147)"/>
<path d="M18.1828 88.9945C28.2249 88.9945 36.3656 80.8538 36.3656 70.8117C36.3656 60.7696 28.2249 52.6289 18.1828 52.6289C8.14072 52.6289 0 60.7696 0 70.8117C0 80.8538 8.14072 88.9945 18.1828 88.9945Z" fill="url(#paint12_linear_2394_3147)"/>
<path d="M65.7282 54.7171C65.7282 56.4468 65.5173 58.1343 65.1376 59.7375C58.8095 61.3617 54.1267 67.0359 54.0001 73.8281C51.0892 75.3046 47.7985 76.1484 44.297 76.1484C32.4634 76.1484 22.8657 66.5507 22.8657 54.7171C22.8657 42.8835 32.4634 33.2859 44.297 33.2859C56.1306 33.2859 65.7282 42.8835 65.7282 54.7171Z" fill="url(#paint13_linear_2394_3147)"/>
<path d="M98.6343 84.607C97.8327 84.607 97.0312 84.7125 96.2929 84.9023C96.546 83.8898 96.6726 82.8352 96.6726 81.7383C96.6726 74.2922 90.6397 68.2383 83.1726 68.2383C76.0218 68.2383 70.1999 73.7859 69.7147 80.8102C68.7655 80.557 67.753 80.4094 66.7405 80.4094C60.4124 80.4094 55.2866 85.5352 55.2866 91.8633C55.2866 98.1914 60.4124 103.317 66.7405 103.317H98.6554C103.823 103.317 108.021 99.1195 108.021 93.9516C108 88.8047 103.802 84.607 98.6343 84.607Z" fill="url(#paint14_linear_2394_3147)"/>
<path d="M98.6342 103.338C103.807 103.338 108 99.145 108 93.9726C108 88.8001 103.807 84.6069 98.6342 84.6069C93.4617 84.6069 89.2686 88.8001 89.2686 93.9726C89.2686 99.145 93.4617 103.338 98.6342 103.338Z" fill="url(#paint15_linear_2394_3147)"/>
<path d="M66.7405 103.317C73.0663 103.317 78.1944 98.1891 78.1944 91.8633C78.1944 85.5375 73.0663 80.4094 66.7405 80.4094C60.4147 80.4094 55.2866 85.5375 55.2866 91.8633C55.2866 98.1891 60.4147 103.317 66.7405 103.317Z" fill="url(#paint16_linear_2394_3147)"/>
<path d="M96.6726 81.7383C96.6726 82.8352 96.546 83.8898 96.2929 84.9023C92.3062 85.9359 89.3531 89.5008 89.2687 93.7828C87.4335 94.7109 85.3664 95.2383 83.1726 95.2383C75.7265 95.2383 69.6726 89.2055 69.6726 81.7383C69.6726 74.2922 75.7054 68.2383 83.1726 68.2383C90.6398 68.2383 96.6726 74.2922 96.6726 81.7383Z" fill="url(#paint17_linear_2394_3147)"/>
<path d="M12.7829 92.0109C13.7532 92.9812 13.7532 94.5633 12.7829 95.5336L9.02822 99.2883C8.05791 100.259 6.47588 100.259 5.50557 99.2883C4.53525 98.318 4.53525 96.7359 5.50557 95.7656L9.26025 92.0109C10.2306 91.0406 11.8126 91.0406 12.7829 92.0109Z" fill="url(#paint18_linear_2394_3147)"/>
<path d="M30.8813 92.0109C31.8516 92.9812 31.8516 94.5633 30.8813 95.5336L27.1266 99.2883C26.1563 100.259 24.5743 100.259 23.604 99.2883C22.6336 98.318 22.6336 96.7359 23.604 95.7656L27.3586 92.0109C28.329 91.0406 29.911 91.0406 30.8813 92.0109Z" fill="url(#paint19_linear_2394_3147)"/>
<path d="M48.9797 92.0109C49.95 92.9812 49.95 94.5633 48.9797 95.5336L45.225 99.2883C44.2547 100.259 42.6727 100.259 41.7023 99.2883C40.732 98.318 40.732 96.7359 41.7023 95.7656L45.457 92.0109C46.4273 91.0406 48.0094 91.0406 48.9797 92.0109Z" fill="url(#paint20_linear_2394_3147)"/>
</g>
<defs>
<linearGradient id="paint0_linear_2394_3147" x1="56.6141" y1="26.7813" x2="84.8622" y2="55.0294" gradientUnits="userSpaceOnUse">
<stop stop-color="#FEF0AE"/>
<stop offset="0.1466" stop-color="#FDEEA9"/>
<stop offset="0.2986" stop-color="#FDEB9D"/>
<stop offset="0.4531" stop-color="#FDE688"/>
<stop offset="0.6093" stop-color="#FCDF6B"/>
<stop offset="0.7669" stop-color="#FBD646"/>
<stop offset="0.9233" stop-color="#FACC18"/>
<stop offset="1" stop-color="#FAC600"/>
</linearGradient>
<linearGradient id="paint1_linear_2394_3147" x1="73.1505" y1="39.9775" x2="57.0393" y2="52.2102" gradientUnits="userSpaceOnUse">
<stop stop-color="#FE9738" stop-opacity="0"/>
<stop offset="0.1207" stop-color="#FE9738" stop-opacity="0.016"/>
<stop offset="0.2459" stop-color="#FE9738" stop-opacity="0.065"/>
<stop offset="0.3731" stop-color="#FE9738" stop-opacity="0.147"/>
<stop offset="0.5018" stop-color="#FE9738" stop-opacity="0.262"/>
<stop offset="0.6317" stop-color="#FE9738" stop-opacity="0.41"/>
<stop offset="0.7625" stop-color="#FE9738" stop-opacity="0.59"/>
<stop offset="0.8916" stop-color="#FE9738" stop-opacity="0.8"/>
<stop offset="1" stop-color="#FE9738"/>
</linearGradient>
<linearGradient id="paint2_linear_2394_3147" x1="71.2519" y1="44.9683" x2="71.2519" y2="65.7889" gradientUnits="userSpaceOnUse">
<stop stop-color="#FE9738" stop-opacity="0"/>
<stop offset="0.1207" stop-color="#FE9738" stop-opacity="0.016"/>
<stop offset="0.2459" stop-color="#FE9738" stop-opacity="0.065"/>
<stop offset="0.3731" stop-color="#FE9738" stop-opacity="0.147"/>
<stop offset="0.5018" stop-color="#FE9738" stop-opacity="0.262"/>
<stop offset="0.6317" stop-color="#FE9738" stop-opacity="0.41"/>
<stop offset="0.7625" stop-color="#FE9738" stop-opacity="0.59"/>
<stop offset="0.8916" stop-color="#FE9738" stop-opacity="0.8"/>
<stop offset="1" stop-color="#FE9738"/>
</linearGradient>
<linearGradient id="paint3_linear_2394_3147" x1="74.8009" y1="41.4194" x2="95.6217" y2="41.4194" gradientUnits="userSpaceOnUse">
<stop stop-color="#FE9738" stop-opacity="0"/>
<stop offset="0.1207" stop-color="#FE9738" stop-opacity="0.016"/>
<stop offset="0.2459" stop-color="#FE9738" stop-opacity="0.065"/>
<stop offset="0.3731" stop-color="#FE9738" stop-opacity="0.147"/>
<stop offset="0.5018" stop-color="#FE9738" stop-opacity="0.262"/>
<stop offset="0.6317" stop-color="#FE9738" stop-opacity="0.41"/>
<stop offset="0.7625" stop-color="#FE9738" stop-opacity="0.59"/>
<stop offset="0.8916" stop-color="#FE9738" stop-opacity="0.8"/>
<stop offset="1" stop-color="#FE9738"/>
</linearGradient>
<linearGradient id="paint4_linear_2394_3147" x1="81.1011" y1="51.2683" x2="88.8899" y2="59.0571" gradientUnits="userSpaceOnUse">
<stop stop-color="#F5FBFF" stop-opacity="0"/>
<stop offset="0.1205" stop-color="#F5FBFF" stop-opacity="0.016"/>
<stop offset="0.2454" stop-color="#F5FBFF" stop-opacity="0.065"/>
<stop offset="0.3724" stop-color="#F5FBFF" stop-opacity="0.147"/>
<stop offset="0.5008" stop-color="#F5FBFF" stop-opacity="0.261"/>
<stop offset="0.6304" stop-color="#F5FBFF" stop-opacity="0.408"/>
<stop offset="0.761" stop-color="#F5FBFF" stop-opacity="0.588"/>
<stop offset="0.8898" stop-color="#F5FBFF" stop-opacity="0.797"/>
<stop offset="1" stop-color="#F5FBFF"/>
</linearGradient>
<linearGradient id="paint5_linear_2394_3147" x1="69.3094" y1="9.81778" x2="73.0886" y2="9.81778" gradientUnits="userSpaceOnUse">
<stop stop-color="#FEF0AE"/>
<stop offset="0.1466" stop-color="#FDEEA9"/>
<stop offset="0.2986" stop-color="#FDEB9D"/>
<stop offset="0.4531" stop-color="#FDE688"/>
<stop offset="0.6093" stop-color="#FCDF6B"/>
<stop offset="0.7669" stop-color="#FBD646"/>
<stop offset="0.9233" stop-color="#FACC18"/>
<stop offset="1" stop-color="#FAC600"/>
</linearGradient>
<linearGradient id="paint6_linear_2394_3147" x1="102.853" y1="39.4769" x2="102.853" y2="43.256" gradientUnits="userSpaceOnUse">
<stop stop-color="#FEF0AE"/>
<stop offset="0.1466" stop-color="#FDEEA9"/>
<stop offset="0.2986" stop-color="#FDEB9D"/>
<stop offset="0.4531" stop-color="#FDE688"/>
<stop offset="0.6093" stop-color="#FCDF6B"/>
<stop offset="0.7669" stop-color="#FBD646"/>
<stop offset="0.9233" stop-color="#FACC18"/>
<stop offset="1" stop-color="#FAC600"/>
</linearGradient>
<linearGradient id="paint7_linear_2394_3147" x1="50.3024" y1="17.7082" x2="47.6305" y2="20.38" gradientUnits="userSpaceOnUse">
<stop stop-color="#FEF0AE"/>
<stop offset="0.1466" stop-color="#FDEEA9"/>
<stop offset="0.2986" stop-color="#FDEB9D"/>
<stop offset="0.4531" stop-color="#FDE688"/>
<stop offset="0.6093" stop-color="#FCDF6B"/>
<stop offset="0.7669" stop-color="#FBD646"/>
<stop offset="0.9233" stop-color="#FACC18"/>
<stop offset="1" stop-color="#FAC600"/>
</linearGradient>
<linearGradient id="paint8_linear_2394_3147" x1="94.9871" y1="62.3928" x2="92.3153" y2="65.0646" gradientUnits="userSpaceOnUse">
<stop stop-color="#FEF0AE"/>
<stop offset="0.1466" stop-color="#FDEEA9"/>
<stop offset="0.2986" stop-color="#FDEB9D"/>
<stop offset="0.4531" stop-color="#FDE688"/>
<stop offset="0.6093" stop-color="#FCDF6B"/>
<stop offset="0.7669" stop-color="#FBD646"/>
<stop offset="0.9233" stop-color="#FACC18"/>
<stop offset="1" stop-color="#FAC600"/>
</linearGradient>
<linearGradient id="paint9_linear_2394_3147" x1="92.202" y1="17.7083" x2="94.8739" y2="20.3802" gradientUnits="userSpaceOnUse">
<stop stop-color="#FEF0AE"/>
<stop offset="0.1466" stop-color="#FDEEA9"/>
<stop offset="0.2986" stop-color="#FDEB9D"/>
<stop offset="0.4531" stop-color="#FDE688"/>
<stop offset="0.6093" stop-color="#FCDF6B"/>
<stop offset="0.7669" stop-color="#FBD646"/>
<stop offset="0.9233" stop-color="#FACC18"/>
<stop offset="1" stop-color="#FAC600"/>
</linearGradient>
<linearGradient id="paint10_linear_2394_3147" x1="27.5775" y1="48.4962" x2="52.9038" y2="91.8322" gradientUnits="userSpaceOnUse">
<stop stop-color="#EAF6FF"/>
<stop offset="0.2651" stop-color="#E5F3FE"/>
<stop offset="0.5398" stop-color="#D9EDFE"/>
<stop offset="0.8179" stop-color="#C4E3FE"/>
<stop offset="1" stop-color="#B3DAFE"/>
</linearGradient>
<linearGradient id="paint11_linear_2394_3147" x1="69.0209" y1="74.1366" x2="84.5899" y2="74.1366" gradientUnits="userSpaceOnUse">
<stop stop-color="#8AC9FE" stop-opacity="0"/>
<stop offset="0.1291" stop-color="#89C8FD" stop-opacity="0.019"/>
<stop offset="0.2629" stop-color="#88C6FB" stop-opacity="0.075"/>
<stop offset="0.3989" stop-color="#87C4F8" stop-opacity="0.168"/>
<stop offset="0.5365" stop-color="#85C0F4" stop-opacity="0.298"/>
<stop offset="0.6753" stop-color="#83BBEF" stop-opacity="0.466"/>
<stop offset="0.8151" stop-color="#7FB5E9" stop-opacity="0.672"/>
<stop offset="0.9532" stop-color="#7CAEE1" stop-opacity="0.911"/>
<stop offset="1" stop-color="#7BACDF"/>
</linearGradient>
<linearGradient id="paint12_linear_2394_3147" x1="21.6532" y1="64.9534" x2="29.8139" y2="51.1646" gradientUnits="userSpaceOnUse">
<stop stop-color="#8AC9FE" stop-opacity="0"/>
<stop offset="0.1291" stop-color="#89C8FD" stop-opacity="0.019"/>
<stop offset="0.2629" stop-color="#88C6FB" stop-opacity="0.075"/>
<stop offset="0.3989" stop-color="#87C4F8" stop-opacity="0.168"/>
<stop offset="0.5365" stop-color="#85C0F4" stop-opacity="0.298"/>
<stop offset="0.6753" stop-color="#83BBEF" stop-opacity="0.466"/>
<stop offset="0.8151" stop-color="#7FB5E9" stop-opacity="0.672"/>
<stop offset="0.9532" stop-color="#7CAEE1" stop-opacity="0.911"/>
<stop offset="1" stop-color="#7BACDF"/>
</linearGradient>
<linearGradient id="paint13_linear_2394_3147" x1="51.8568" y1="51.5056" x2="67.0525" y2="45.0334" gradientUnits="userSpaceOnUse">
<stop stop-color="#8AC9FE" stop-opacity="0"/>
<stop offset="0.1291" stop-color="#89C8FD" stop-opacity="0.019"/>
<stop offset="0.2629" stop-color="#88C6FB" stop-opacity="0.075"/>
<stop offset="0.3989" stop-color="#87C4F8" stop-opacity="0.168"/>
<stop offset="0.5365" stop-color="#85C0F4" stop-opacity="0.298"/>
<stop offset="0.6753" stop-color="#83BBEF" stop-opacity="0.466"/>
<stop offset="0.8151" stop-color="#7FB5E9" stop-opacity="0.672"/>
<stop offset="0.9532" stop-color="#7CAEE1" stop-opacity="0.911"/>
<stop offset="1" stop-color="#7BACDF"/>
</linearGradient>
<linearGradient id="paint14_linear_2394_3147" x1="72.6468" y1="77.8197" x2="88.5987" y2="105.116" gradientUnits="userSpaceOnUse">
<stop stop-color="#EAF6FF"/>
<stop offset="0.2651" stop-color="#E5F3FE"/>
<stop offset="0.5398" stop-color="#D9EDFE"/>
<stop offset="0.8179" stop-color="#C4E3FE"/>
<stop offset="1" stop-color="#B3DAFE"/>
</linearGradient>
<linearGradient id="paint15_linear_2394_3147" x1="98.7504" y1="93.9696" x2="108.557" y2="93.9696" gradientUnits="userSpaceOnUse">
<stop stop-color="#8AC9FE" stop-opacity="0"/>
<stop offset="0.1291" stop-color="#89C8FD" stop-opacity="0.019"/>
<stop offset="0.2629" stop-color="#88C6FB" stop-opacity="0.075"/>
<stop offset="0.3989" stop-color="#87C4F8" stop-opacity="0.168"/>
<stop offset="0.5365" stop-color="#85C0F4" stop-opacity="0.298"/>
<stop offset="0.6753" stop-color="#83BBEF" stop-opacity="0.466"/>
<stop offset="0.8151" stop-color="#7FB5E9" stop-opacity="0.672"/>
<stop offset="0.9532" stop-color="#7CAEE1" stop-opacity="0.911"/>
<stop offset="1" stop-color="#7BACDF"/>
</linearGradient>
<linearGradient id="paint16_linear_2394_3147" x1="68.9153" y1="88.1856" x2="74.0554" y2="79.5005" gradientUnits="userSpaceOnUse">
<stop stop-color="#8AC9FE" stop-opacity="0"/>
<stop offset="0.1291" stop-color="#89C8FD" stop-opacity="0.019"/>
<stop offset="0.2629" stop-color="#88C6FB" stop-opacity="0.075"/>
<stop offset="0.3989" stop-color="#87C4F8" stop-opacity="0.168"/>
<stop offset="0.5365" stop-color="#85C0F4" stop-opacity="0.298"/>
<stop offset="0.6753" stop-color="#83BBEF" stop-opacity="0.466"/>
<stop offset="0.8151" stop-color="#7FB5E9" stop-opacity="0.672"/>
<stop offset="0.9532" stop-color="#7CAEE1" stop-opacity="0.911"/>
<stop offset="1" stop-color="#7BACDF"/>
</linearGradient>
<linearGradient id="paint17_linear_2394_3147" x1="86.5923" y1="80.2891" x2="96.1636" y2="76.2124" gradientUnits="userSpaceOnUse">
<stop stop-color="#8AC9FE" stop-opacity="0"/>
<stop offset="0.1291" stop-color="#89C8FD" stop-opacity="0.019"/>
<stop offset="0.2629" stop-color="#88C6FB" stop-opacity="0.075"/>
<stop offset="0.3989" stop-color="#87C4F8" stop-opacity="0.168"/>
<stop offset="0.5365" stop-color="#85C0F4" stop-opacity="0.298"/>
<stop offset="0.6753" stop-color="#83BBEF" stop-opacity="0.466"/>
<stop offset="0.8151" stop-color="#7FB5E9" stop-opacity="0.672"/>
<stop offset="0.9532" stop-color="#7CAEE1" stop-opacity="0.911"/>
<stop offset="1" stop-color="#7BACDF"/>
</linearGradient>
<linearGradient id="paint18_linear_2394_3147" x1="7.76189" y1="94.2683" x2="10.4338" y2="96.9401" gradientUnits="userSpaceOnUse">
<stop stop-color="#26A6FE"/>
<stop offset="0.2729" stop-color="#23A1FD"/>
<stop offset="0.5557" stop-color="#1A95FD"/>
<stop offset="0.8419" stop-color="#0B80FB"/>
<stop offset="1" stop-color="#0172FB"/>
</linearGradient>
<linearGradient id="paint19_linear_2394_3147" x1="25.8573" y1="94.2683" x2="28.5292" y2="96.9401" gradientUnits="userSpaceOnUse">
<stop stop-color="#26A6FE"/>
<stop offset="0.2729" stop-color="#23A1FD"/>
<stop offset="0.5557" stop-color="#1A95FD"/>
<stop offset="0.8419" stop-color="#0B80FB"/>
<stop offset="1" stop-color="#0172FB"/>
</linearGradient>
<linearGradient id="paint20_linear_2394_3147" x1="43.9527" y1="94.2683" x2="46.6246" y2="96.9401" gradientUnits="userSpaceOnUse">
<stop stop-color="#26A6FE"/>
<stop offset="0.2729" stop-color="#23A1FD"/>
<stop offset="0.5557" stop-color="#1A95FD"/>
<stop offset="0.8419" stop-color="#0B80FB"/>
<stop offset="1" stop-color="#0172FB"/>
</linearGradient>
<clipPath id="clip0_2394_3147">
<rect width="108" height="108" fill="white"/>
</clipPath>
</defs>
</svg>
