<svg width="125" height="125" viewBox="0 0 125 125" fill="none" xmlns="http://www.w3.org/2000/svg">
<path d="M78.8858 64.5691C78.8858 73.5575 71.5786 80.8261 62.5904 80.8261C53.6021 80.8261 46.2949 73.5575 46.2949 64.5691C46.2949 55.581 53.6021 48.2732 62.5904 48.2732C71.5786 48.2732 78.8858 55.581 78.8858 64.5691Z" fill="#FC6559"/>
<path d="M78.8757 64.5709C78.8757 73.5595 71.5828 80.8256 62.5944 80.8256C57.3199 80.8256 52.5835 78.3229 49.6501 74.3937C52.3682 76.466 55.759 77.6768 59.4189 77.6768C68.4073 77.6768 75.7271 70.3839 75.7271 61.3954C75.7271 57.6816 74.4891 54.2907 72.3632 51.5728C76.3192 54.506 78.8757 59.2425 78.8757 64.5709Z" fill="#F05543"/>
<path d="M62.4966 7.81323V27.7816C56.2802 27.7816 50.4403 29.3155 45.3004 32.0606L34.8857 14.9986C37.5769 13.4915 40.3756 12.1998 43.309 11.1502C44.1432 10.8543 45.0044 10.5581 45.8656 10.316C48.0454 9.61626 50.2789 9.078 52.5664 8.70119C53.4545 8.51296 54.3425 8.37827 55.2306 8.27068C57.5988 7.9747 60.0209 7.81323 62.4966 7.81323Z" fill="#FF6644"/>
<path d="M45.296 32.0613C39.4025 35.1829 34.4777 39.8386 31.0331 45.5171L13.8638 35.2905C15.3708 32.7878 17.0393 30.4195 18.9231 28.2128C19.4881 27.5132 20.0533 26.8404 20.6722 26.1944C22.4484 24.2569 24.3592 22.4538 26.4043 20.7853C27.0771 20.1932 27.8037 19.6549 28.5304 19.1168C30.5487 17.6098 32.6747 16.2373 34.8814 14.9993L45.296 32.0613Z" fill="#009FAC"/>
<path d="M31.0375 45.5158C27.6737 51.0596 25.736 57.5991 25.736 64.5422H5.74097C5.74097 61.4205 6.01018 58.3525 6.49456 55.3654C6.62908 54.4773 6.79054 53.5893 6.97894 52.7012C7.46332 50.4405 8.08223 48.2338 8.83582 46.0539C9.10487 45.1929 9.42779 44.3585 9.77765 43.5242C10.908 40.6448 12.2804 37.8998 13.8682 35.2893L31.0375 45.5158Z" fill="#009FAC"/>
<path d="M14.65 55.2602C14.5424 55.933 13.9772 56.3905 13.3314 56.3905C13.0454 56.3477 6.0502 55.3011 6.49602 55.3678C6.63054 54.4797 6.792 53.5917 6.9804 52.7036L13.5198 53.7263C14.2734 53.8339 14.7578 54.5336 14.65 55.2602Z" fill="#474646"/>
<path d="M15.9085 46.2978C15.7421 47.0964 14.9247 47.4782 14.2937 47.3205L8.96533 46.1095C8.91146 46.1095 8.85775 46.0825 8.83081 46.0556C9.09986 45.1946 9.42278 44.3601 9.77264 43.5259L14.8858 44.6832C15.6125 44.8715 16.0699 45.5712 15.9085 46.2978Z" fill="#474646"/>
<path d="M24.5504 31.6584C24.0579 32.2002 23.1766 32.2491 22.6398 31.7123L18.926 28.2137C19.4911 27.5141 20.0563 26.8413 20.6752 26.1953H20.7021L24.4967 29.7746C25.0349 30.2859 25.0617 31.1202 24.5504 31.6584Z" fill="#474646"/>
<path d="M31.139 24.9295C30.5469 25.3903 29.6788 25.2334 29.2821 24.6605L26.4026 20.7852C27.0754 20.1931 27.802 19.6548 28.5287 19.1167L31.435 23.0457C31.8656 23.6378 31.7581 24.499 31.139 24.9295Z" fill="#474646"/>
<path d="M46.2396 17.2881C45.5865 17.4517 44.796 17.0512 44.5981 16.2924L43.3064 11.1524C44.1406 10.8564 45.0018 10.5602 45.863 10.3181C45.8899 10.3451 45.8899 10.3451 45.8899 10.372L47.2086 15.6466C47.3969 16.3732 46.9663 17.0999 46.2396 17.2881Z" fill="#474646"/>
<path d="M55.9301 13.6014C56.0107 14.3281 55.4994 15.0008 54.746 15.1084H54.5845C53.9117 15.1084 53.3465 14.624 53.2389 13.9513L52.5662 8.70346C53.4543 8.51523 54.3422 8.38054 55.2303 8.27295L55.9301 13.6014Z" fill="#474646"/>
<path d="M90.1294 14.9986L79.688 32.0606C74.5748 29.3155 68.7082 27.7816 62.4917 27.7816V7.81323C64.9675 7.81323 67.3896 7.9747 69.7578 8.27068C70.6457 8.37827 71.5338 8.51296 72.4219 8.70119C74.7093 9.078 76.943 9.61626 79.1228 10.316C79.984 10.5581 80.8452 10.8543 81.6794 11.1502C84.6126 12.1998 87.4383 13.4915 90.1294 14.9986Z" fill="#FF6644"/>
<path d="M111.149 35.2905L93.9523 45.5171C90.5346 39.8386 85.583 35.1829 79.6895 32.0613L90.1308 14.9993C92.3376 16.2373 94.4367 17.5828 96.4551 19.1168C97.1817 19.6281 97.8813 20.1932 98.581 20.7853C100.626 22.4538 102.537 24.2569 104.313 26.1944C104.932 26.8404 105.524 27.5132 106.089 28.2128C107.946 30.4195 109.641 32.7878 111.149 35.2905Z" fill="#FF6644"/>
<path d="M119.277 64.5422H99.2817C99.2817 57.5991 97.3442 51.0596 93.9534 45.5158L111.15 35.2893C112.71 37.8998 114.083 40.6448 115.24 43.5242C115.563 44.3317 115.886 45.1929 116.182 46.0272C116.935 48.207 117.554 50.4405 118.039 52.7012C118.227 53.5893 118.389 54.4773 118.523 55.3654C119.008 58.3525 119.277 61.4205 119.277 64.5422Z" fill="#FB8F0B"/>
<path d="M118.524 55.3678H118.497L111.876 56.3905H111.688C111.015 56.3905 110.45 55.933 110.342 55.2602C110.235 54.5336 110.746 53.8339 111.473 53.7263L118.039 52.7036C118.227 53.5917 118.389 54.4797 118.524 55.3678Z" fill="#474646"/>
<path d="M116.181 46.0288C116.127 46.0825 116.073 46.0825 116.019 46.1094L110.691 47.3205C110.057 47.4792 109.278 47.1032 109.076 46.2978C108.915 45.5712 109.372 44.8715 110.099 44.6832L115.239 43.5259C115.562 44.3334 115.885 45.1946 116.181 46.0288Z" fill="#474646"/>
<path d="M106.09 28.2137L102.35 31.7123C101.853 32.2089 100.993 32.2378 100.466 31.6584C99.9545 31.1202 99.9815 30.2859 100.52 29.7746L104.287 26.1953H104.314C104.933 26.8413 105.525 27.5141 106.09 28.2137Z" fill="#474646"/>
<path d="M98.5791 20.7852L95.7265 24.6605C95.2807 25.2403 94.4306 25.3867 93.8427 24.9295C93.2508 24.499 93.1162 23.6378 93.5467 23.0457L96.4532 19.1167C97.1799 19.628 97.8794 20.1931 98.5791 20.7852Z" fill="#474646"/>
<path d="M81.6798 11.1524L80.3879 16.2924C80.1809 17.0861 79.3815 17.4469 78.7464 17.2881C78.0197 17.0999 77.5892 16.3732 77.7776 15.6466L79.0962 10.372C79.0962 10.3451 79.0962 10.3451 79.1232 10.3181C79.9844 10.5602 80.8455 10.8564 81.6798 11.1524Z" fill="#474646"/>
<path d="M72.4198 8.70346L71.747 13.9513C71.6662 14.624 71.0743 15.1084 70.4015 15.1084H70.24C69.5134 15.0008 68.9751 14.3281 69.0828 13.6014L69.7556 8.27295C70.6436 8.38054 71.5317 8.51523 72.4198 8.70346Z" fill="#474646"/>
<path d="M119.266 64.5698C119.266 67.6917 119.024 70.7596 118.54 73.7468H118.513C118.378 74.6617 118.217 75.5228 118.028 76.411C117.544 78.6715 116.925 80.9052 116.172 83.0581C115.875 83.8923 115.579 84.7535 115.23 85.5877C114.437 87.6064 113.526 89.5589 112.505 91.4453C111.788 92.7696 110.077 93.1902 108.783 92.4196L96.2186 84.9357C95.0242 84.2243 94.5269 82.6999 95.1666 81.4657C97.789 76.4067 99.2712 70.6427 99.2712 64.5698H119.266Z" fill="#FB8F0B"/>
<path d="M118.512 73.7465C118.377 74.6614 118.215 75.5226 118.027 76.4107L111.488 75.388C110.734 75.2804 110.25 74.5807 110.357 73.8541C110.465 73.1274 111.138 72.6161 111.891 72.7238L118.512 73.7465Z" fill="#474646"/>
<path d="M116.172 83.0596C115.876 83.8939 115.58 84.7551 115.23 85.5893L110.117 84.4052C109.39 84.2437 108.933 83.5172 109.094 82.8175C109.256 82.0908 109.982 81.6334 110.709 81.7949L116.037 83.0059C116.091 83.0059 116.145 83.0328 116.172 83.0596Z" fill="#474646"/>
<path d="M28.7888 84.9352L16.2239 92.4191C14.93 93.1897 13.2195 92.7692 12.5026 91.4449C11.4814 89.5585 10.5701 87.6059 9.77765 85.5873C9.42779 84.753 9.10487 83.8918 8.83582 83.0576C8.08223 80.9047 7.46332 78.671 6.97894 76.4105C6.79054 75.5224 6.62908 74.6612 6.49456 73.7463C6.01018 70.7591 5.74097 67.6912 5.74097 64.5693H25.736C25.736 70.6422 27.2183 76.4062 29.8407 81.4652C30.4805 82.6994 29.9831 84.2239 28.7888 84.9352Z" fill="#009FAC"/>
<path d="M14.6425 73.8538C14.7503 74.5805 14.2659 75.2802 13.5123 75.3878L6.97291 76.4104C6.78451 75.5223 6.62305 74.6611 6.48853 73.7462L13.1086 72.7236C13.8622 72.6158 14.5349 73.1271 14.6425 73.8538Z" fill="#474646"/>
<path d="M14.8858 84.4045L9.77264 85.5886C9.42278 84.7543 9.09986 83.8931 8.83081 83.0589C8.85775 83.0321 8.91146 83.0052 8.96533 83.0052L14.2937 81.7941C15.0204 81.6327 15.747 82.0901 15.9085 82.8168C16.0699 83.5165 15.6125 84.243 14.8858 84.4045Z" fill="#474646"/>
<path d="M32.6945 76.229C40.086 71.1837 57.4206 59.4566 60.0498 58.3453C63.3802 56.9377 67.2452 58.5063 68.6426 61.8616C70.0502 65.192 68.4917 69.0321 65.1614 70.4397C62.5572 71.5611 42.0463 75.8709 33.302 77.6663C32.4364 77.8668 31.9724 76.72 32.6945 76.229Z" fill="#474646"/>
<path d="M59.6671 63.2028C60.3238 61.5847 62.1703 60.81 63.7885 61.4667C65.4066 62.1234 66.191 63.9658 65.5343 65.5839C64.8777 67.202 63.0283 67.9837 61.4102 67.327C59.792 66.6704 59.0105 64.8209 59.6671 63.2028Z" fill="#2D2C2C"/>
<path d="M59.511 64.9792C59.8383 65.4607 60.3161 65.8578 60.8895 66.0905C62.5104 66.7483 64.3435 65.953 65.0013 64.3321C65.234 63.7586 65.2821 63.1391 65.1651 62.5688C65.7854 63.4015 65.9597 64.5468 65.5346 65.5942C64.8768 67.215 63.0289 67.9753 61.4082 67.3176C60.3609 66.8926 59.6858 65.9795 59.511 64.9792Z" fill="#1B1B1B"/>
</svg>
