<svg width="81" height="80" viewBox="0 0 81 80" fill="none" xmlns="http://www.w3.org/2000/svg">
<path fill-rule="evenodd" clip-rule="evenodd" d="M37.9222 76.3115L37.9245 76.3084C37.9169 76.3046 37.9101 76.3007 37.9025 76.2961C37.8806 76.2814 37.8564 76.269 37.8337 76.2559C35.8224 75.1239 32.4828 71.7936 32.2702 71.6283C32.2679 71.6252 32.2657 71.6229 32.2634 71.6206L32.2611 71.6221C32.1046 71.5017 31.9366 71.3943 31.7437 71.3187C30.631 70.8816 29.3686 71.4268 28.9298 72.5356C28.6878 73.1464 28.7536 73.7996 29.0426 74.3378L29.0698 74.4436C31.7589 78.0605 36.0274 79.8588 36.0274 79.8588C37.0705 80.2681 38.2528 79.7569 38.6643 78.7184C39.0175 77.8265 38.6839 76.8335 37.9222 76.3115Z" fill="#E82227"/>
<path fill-rule="evenodd" clip-rule="evenodd" d="M21.1329 9.18566C33.9807 2.26472 46.8362 2.81682 59.684 9.18797C61.1121 9.89605 62.5766 10.3871 63.4207 8.5548C64.1605 6.94946 63.0569 6.07382 61.7127 5.37965C54.8974 1.86011 47.6796 -0.0185756 39.9845 0.00150075C32.57 -0.0602726 25.6518 1.78598 19.1806 5.35494C17.8122 6.10857 16.5225 7.01818 17.5497 8.77564C18.4582 10.33 19.8129 9.89605 21.1329 9.18566Z" fill="#47536D"/>
<path fill-rule="evenodd" clip-rule="evenodd" d="M16.9643 66.8939C15.7684 66.8939 14.7949 67.863 14.7949 69.0544C14.7949 70.2451 15.7684 71.2142 16.9643 71.2142C18.161 71.2142 19.1338 70.2451 19.1338 69.0544C19.1338 67.863 18.161 66.8939 16.9643 66.8939Z" fill="#47536D"/>
<path fill-rule="evenodd" clip-rule="evenodd" d="M45.2043 30.5803C45.2043 29.3896 44.2315 28.4205 43.0349 28.4205C41.839 28.4205 40.8662 29.3896 40.8662 30.5803C40.8662 31.771 41.839 32.74 43.0349 32.74C44.2315 32.74 45.2043 31.771 45.2043 30.5803Z" fill="#47536D"/>
<path fill-rule="evenodd" clip-rule="evenodd" d="M68.5134 61.9664C67.3168 61.9664 66.344 62.9355 66.344 64.1262C66.344 65.3169 67.3168 66.2859 68.5134 66.2859C69.7093 66.2859 70.6821 65.3169 70.6821 64.1262C70.6821 62.9355 69.7093 61.9664 68.5134 61.9664Z" fill="#47536D"/>
<path fill-rule="evenodd" clip-rule="evenodd" d="M52.1958 53.1996C50.9991 53.1996 50.0271 54.1687 50.0271 55.3593C50.0271 56.55 50.9991 57.5191 52.1958 57.5191C53.3917 57.5191 54.3652 56.55 54.3652 55.3593C54.3652 54.1687 53.3917 53.1996 52.1958 53.1996Z" fill="#47536D"/>
<path fill-rule="evenodd" clip-rule="evenodd" d="M52.1958 53.1996C50.9991 53.1996 50.0271 54.1687 50.0271 55.3593C50.0271 56.55 50.9991 57.5191 52.1958 57.5191C53.3917 57.5191 54.3652 56.55 54.3652 55.3593C54.3652 54.1687 53.3917 53.1996 52.1958 53.1996Z" fill="#47536D"/>
<path fill-rule="evenodd" clip-rule="evenodd" d="M78.3303 38.9941C77.1336 38.9941 76.1609 39.9632 76.1609 41.1539C76.1609 42.3453 77.1336 43.3136 78.3303 43.3136C79.5262 43.3136 80.4997 42.3453 80.4997 41.1539C80.4997 39.9632 79.5262 38.9941 78.3303 38.9941Z" fill="#47536D"/>
<path fill-rule="evenodd" clip-rule="evenodd" d="M77.2802 34.0787C77.2802 32.888 76.3075 31.9189 75.1108 31.9189C73.9149 31.9189 72.9421 32.888 72.9421 34.0787C72.9421 35.2702 73.9149 36.2384 75.1108 36.2384C76.3075 36.2384 77.2802 35.2702 77.2802 34.0787Z" fill="#47536D"/>
<path fill-rule="evenodd" clip-rule="evenodd" d="M12.5849 15.3835C13.7809 15.3835 14.7544 14.4152 14.7544 13.2237C14.7544 12.033 13.7809 11.064 12.5849 11.064C11.389 11.064 10.4155 12.033 10.4155 13.2237C10.4155 14.4152 11.389 15.3835 12.5849 15.3835Z" fill="#47536D"/>
<path fill-rule="evenodd" clip-rule="evenodd" d="M4.55845 34.3663C3.74832 34.3663 3.04863 34.8165 2.67647 35.4728L2.66891 35.469C2.66059 35.4906 2.65227 35.5115 2.64395 35.5331C2.56755 35.6775 2.50628 35.8296 2.46467 35.991C0.615977 40.8788 0.500244 45.9519 0.500244 45.9519C0.500244 47.1434 1.473 48.1117 2.66891 48.1117C3.69386 48.1117 4.55013 47.3982 4.77555 46.4453L4.77933 46.4446C4.77933 46.4399 4.77933 46.4361 4.78009 46.4322C4.81488 46.2778 4.83833 46.1179 4.83833 45.9519C4.83833 45.877 4.8232 45.8052 4.81564 45.7319C5.10459 40.8803 6.55163 37.377 6.55163 37.377V37.3762C6.66433 37.1152 6.72787 36.828 6.72787 36.5261C6.72787 35.3354 5.75436 34.3663 4.55845 34.3663Z" fill="#47536D"/>
<path fill-rule="evenodd" clip-rule="evenodd" d="M29.5539 20.959C11.7295 28.0436 7.13046 44.9942 11.9738 61.5696C12.0003 61.7148 12.0412 61.8545 12.0949 61.9881C12.4179 62.7773 13.1947 63.3363 14.1032 63.3363C14.2333 63.3363 14.3596 63.3201 14.4837 63.2985C14.7461 63.2521 14.9905 63.1548 15.2113 63.0236C15.8437 62.646 16.2718 61.9634 16.2718 61.1766C16.2718 61.036 16.256 60.8986 16.2302 60.7642C16.2227 60.7279 16.2106 60.6947 16.2015 60.6584C15.7734 59.094 15.3626 57.5234 15.0502 55.9359C11.585 38.3428 23.1969 23.2523 40.2361 23.2523C55.8865 23.2523 66.4106 32.9863 66.4106 47.6304C66.4106 53.4572 64.0793 56.3605 59.9432 56.2741C59.9364 56.2741 59.9303 56.2718 59.9235 56.2718C59.9182 56.2718 59.9129 56.2733 59.9069 56.2733C59.8267 56.2717 59.7458 56.2764 59.6663 56.2718C59.6565 56.281 59.6505 56.291 59.6406 56.3003C58.5794 56.4401 57.7549 57.3381 57.7549 58.4315C57.7549 59.4261 58.4349 60.2546 59.3539 60.5055C59.3812 60.5171 59.4107 60.5279 59.4621 60.5418C59.4644 60.5418 59.4719 60.5426 59.475 60.5442C59.4924 60.5472 59.5113 60.5488 59.5287 60.5519C59.5741 60.5581 59.6285 60.5635 59.6958 60.5689C59.7715 60.5758 59.8456 60.5913 59.9235 60.5913C59.9515 60.5913 59.9772 60.5843 60.0052 60.5835C60.4432 60.5967 60.9651 60.5913 60.9651 60.5913C67.7578 60.0554 70.1988 54.4201 70.1988 46.2799C70.1988 25.9858 48.4894 13.4327 29.5539 20.959Z" fill="#47536D"/>
<path fill-rule="evenodd" clip-rule="evenodd" d="M30.5631 15.1676C30.6534 15.1526 30.7343 15.1183 30.8219 15.0963C30.7316 15.1196 30.644 15.1443 30.5537 15.169C30.5564 15.1676 30.5591 15.1676 30.5631 15.1676Z" fill="#00AEEF"/>
<path fill-rule="evenodd" clip-rule="evenodd" d="M32.2789 12.6427C32.2721 12.6072 32.26 12.574 32.2517 12.5392C32.0202 11.6134 31.1859 10.9231 30.1859 10.9231C30.0551 10.9231 29.928 10.9393 29.8039 10.9617C29.6405 11.0088 29.4832 11.0598 29.3228 11.1084C25.841 12.1686 22.9553 13.6141 19.9946 15.3831C15.9145 17.8216 12.6664 20.5736 9.23903 24.965C8.74963 25.592 7.87596 26.4159 7.29881 27.3008C7.00834 27.6251 6.81923 28.0359 6.7678 28.4899C6.64828 29.0814 6.7852 29.6729 7.35554 30.2281C7.37596 30.2497 7.39866 30.269 7.41984 30.2898C7.49623 30.3601 7.57868 30.4296 7.67021 30.4991C7.68005 30.5068 7.68988 30.5122 7.69971 30.5199C7.69971 30.5199 7.70047 30.5199 7.70047 30.5207C10.0068 32.2187 11.4712 29.0096 12.4992 27.6853C17.9054 20.7242 23.1292 17.0958 30.5543 15.1368C30.605 15.1237 30.6541 15.109 30.7056 15.0959C30.9075 15.0442 31.1012 14.97 31.2767 14.8658C31.8992 14.4944 32.3205 13.8234 32.3205 13.0489C32.3205 12.9099 32.3047 12.7748 32.2789 12.6427Z" fill="#47536D"/>
<path fill-rule="evenodd" clip-rule="evenodd" d="M72.3059 25.7714C72.2031 25.583 72.0798 25.4077 71.927 25.2587C64.0314 14.9773 53.4816 10.0037 40.8387 9.74121C40.2782 9.74893 38.8614 9.74121 38.6965 9.74121C37.5006 9.74121 36.5271 10.7103 36.5271 11.901C36.5271 13.0924 37.5006 14.0607 38.6965 14.0607C49.8228 13.4708 61.0307 18.059 68.6078 27.9698L68.6093 27.9713C68.6335 28.0091 68.6637 28.0423 68.6902 28.0779C69.0851 28.6022 69.7076 28.9466 70.4149 28.9466C71.6078 28.9466 72.5767 27.9806 72.5767 26.7937C72.5767 26.4223 72.4731 26.0764 72.3059 25.7714Z" fill="#47536D"/>
<path fill-rule="evenodd" clip-rule="evenodd" d="M61.2761 47.6361C61.2428 46.9559 61.149 46.2748 61.0264 45.6038C60.0045 40.0133 56.8427 34.9564 52.6112 31.8221C52.9728 32.1187 53.2406 32.5264 53.3571 32.9935C53.3654 33.0306 53.379 33.0646 53.3866 33.1016C53.4123 33.2375 53.4282 33.3781 53.4282 33.5217C53.4282 34.3232 52.9925 35.0181 52.3488 35.4019C52.1233 35.5363 51.8745 35.6351 51.6067 35.6822C51.4811 35.7046 51.3525 35.7208 51.2202 35.7208C50.7799 35.7208 50.373 35.5895 50.0288 35.3679C53.5 38.2945 56.4334 43.1437 56.9516 48.0276C57.118 49.5944 57.2761 51.1951 59.2284 51.131C61.4448 51.0592 61.354 49.2407 61.2761 47.6361Z" fill="#47536D"/>
<path fill-rule="evenodd" clip-rule="evenodd" d="M51.6114 35.6822C51.8792 35.6343 52.1273 35.5362 52.3527 35.4019C52.9972 35.0181 53.4329 34.3232 53.4329 33.5216C53.4329 33.378 53.417 33.2375 53.3905 33.1008C53.383 33.0645 53.3701 33.0305 53.3618 32.9935C53.2446 32.5263 52.9775 32.1186 52.6152 31.8221C52.5872 31.8013 52.5592 31.7796 52.5312 31.7596C52.1659 31.487 51.7158 31.3225 51.2241 31.3225C50.0063 31.3225 49.0154 32.3086 49.0154 33.5216C49.0154 33.6591 49.0313 33.7919 49.0562 33.9216C49.0835 34.0691 49.1243 34.2112 49.1795 34.3471C49.2885 34.6127 49.4511 34.8498 49.6485 35.0521C49.7779 35.154 49.9057 35.2598 50.0328 35.3679C50.3769 35.5895 50.7847 35.7208 51.2241 35.7208C51.3573 35.7208 51.4851 35.7046 51.6114 35.6822Z" fill="#47536D"/>
<path fill-rule="evenodd" clip-rule="evenodd" d="M52.5315 31.7592C52.5814 31.7962 52.6312 31.8332 52.6811 31.8703C52.6326 31.8305 52.5814 31.7962 52.5315 31.7592Z" fill="#00AEEF"/>
<path fill-rule="evenodd" clip-rule="evenodd" d="M50.3321 35.6149C50.1043 35.4223 49.8766 35.2339 49.6475 35.0522C49.855 35.2641 50.0814 35.454 50.3321 35.6149Z" fill="#00AEEF"/>
<path fill-rule="evenodd" clip-rule="evenodd" d="M42.558 37.8605C42.5513 37.8593 42.5473 37.858 42.5405 37.8568C42.5473 37.8593 42.554 37.8605 42.5607 37.863L42.558 37.8605Z" fill="#47536D"/>
<path fill-rule="evenodd" clip-rule="evenodd" d="M51.2923 73.2307C50.0948 72.7998 48.849 72.4624 47.7129 71.9057C38.5488 67.4132 33.6184 60.0629 33.1457 49.9058C32.9346 45.3647 35.8839 42.178 40.0064 42.0158L40.0662 41.995C40.3166 41.9541 40.5526 41.8699 40.7674 41.7517C41.4308 41.3881 41.8861 40.6939 41.8861 39.8885C41.8861 39.0885 41.4368 38.3982 40.781 38.0322C40.4913 37.8716 40.1653 37.7728 39.8143 37.7604C39.7893 37.7596 39.7659 37.7527 39.7409 37.7527C39.6925 37.7527 39.6464 37.7643 39.5987 37.7674C34.0814 38.121 29.6381 42.1564 28.9135 47.6364C27.2826 59.9803 37.7931 74.7665 49.9496 77.2436C51.3346 77.5263 52.5873 77.4506 53.0131 75.8622C53.3876 74.4677 52.5373 73.6785 51.2923 73.2307Z" fill="#47536D"/>
<path fill-rule="evenodd" clip-rule="evenodd" d="M51.3551 46.9654C51.3347 46.7963 51.2923 46.6356 51.2356 46.4804C50.8339 44.9029 50.2106 43.0559 49.3165 41.8042C49.25 41.6969 49.1736 41.5965 49.0896 41.5023C49.0752 41.4845 49.0624 41.4637 49.048 41.4467C49.045 41.4428 49.0397 41.4413 49.0359 41.4374C48.641 41.0266 48.0881 40.7679 47.4731 40.7679C46.2765 40.7679 45.3037 41.737 45.3037 42.9277C45.3037 43.1547 45.3483 43.3686 45.4141 43.574L45.4058 43.5825C45.4058 43.5825 45.4187 43.6103 45.4406 43.6605C45.4679 43.7354 45.4996 43.8072 45.5344 43.8775C45.7598 44.4103 46.2576 45.6643 46.843 47.6032C46.8748 47.8024 46.93 47.9931 47.011 48.1707C47.3695 48.9614 48.1637 49.5143 49.0896 49.5143C49.4882 49.5143 49.8566 49.4039 50.1826 49.2247C50.8891 48.8379 51.374 48.0981 51.374 47.2395C51.374 47.1468 51.3664 47.0557 51.3551 46.9654Z" fill="#47536D"/>
<path fill-rule="evenodd" clip-rule="evenodd" d="M28.0537 65.6659C28.1319 65.7993 28.2047 65.9342 28.2828 66.0676C28.2141 65.9287 28.1386 65.7952 28.0537 65.6659Z" fill="#E82227"/>
<path fill-rule="evenodd" clip-rule="evenodd" d="M24.2458 67.7174C24.3469 67.9444 24.4696 68.159 24.6124 68.3599C24.5316 68.2182 24.4521 68.0751 24.3793 67.9444C24.3685 67.9251 24.3159 67.8371 24.2458 67.7174Z" fill="#E82227"/>
<path fill-rule="evenodd" clip-rule="evenodd" d="M35.1531 29.0189C34.8059 29.0189 34.1811 29.2529 34.1758 29.2529C25.2288 31.9277 19.1895 40.1582 19.2826 50.14C19.4633 56.3838 22.1502 63.9765 23.93 67.1516C24.0125 67.3207 24.1562 67.5678 24.2447 67.7176C24.284 67.7848 24.3135 67.8335 24.3203 67.8443C24.3604 67.9184 24.4051 67.9979 24.4504 68.0782C24.8438 68.635 25.4928 69.0025 26.2273 69.0025C26.6062 69.0025 26.958 68.8967 27.2689 68.7261C27.9421 68.3578 28.4035 67.6535 28.4035 66.835C28.4035 66.4945 28.3196 66.1772 28.1773 65.8907C28.1335 65.8158 28.0926 65.7401 28.0488 65.6652C25.0253 60.5179 23.4913 54.8371 23.6865 48.5439C23.9134 41.2184 29.0268 35.2897 35.5684 33.2967C35.6985 33.272 35.8233 33.2326 35.9443 33.1848C36.1379 33.1307 36.7113 32.7624 36.7665 32.608C37.1084 32.2265 37.3217 31.7292 37.3217 31.1787C37.3217 29.988 36.349 29.0189 35.1531 29.0189Z" fill="#00AC75"/>
<path fill-rule="evenodd" clip-rule="evenodd" d="M61.57 65.4351C61.275 65.2706 60.9437 65.1702 60.5859 65.1586H60.5852C60.4626 65.171 60.3408 65.1787 60.219 65.1895C50.9234 65.9949 43.3712 59.7797 42.5656 50.5268C42.4265 48.9215 42.4771 47.0459 40.2661 47.2096C38.2275 47.3617 38.2101 49.4041 38.3153 51.021C38.9938 61.4708 47.8152 69.5484 58.5095 69.6627C59.2047 69.6627 59.9089 69.594 60.6131 69.4951C60.7516 69.4758 60.89 69.4565 61.0292 69.4341C61.2145 69.3862 61.3915 69.316 61.5564 69.2249C62.2326 68.855 62.6963 68.1469 62.6963 67.3253C62.6963 66.5107 62.2387 65.8072 61.57 65.4351Z" fill="#47536D"/>
</svg>
