<svg width="59" height="59" viewBox="0 0 59 59" fill="none" xmlns="http://www.w3.org/2000/svg">
<g clip-path="url(#clip0_732_29302)">
<path d="M49.8936 9.09716C44.4132 3.61686 37.1266 0.598633 29.3762 0.598633C21.6258 0.598633 14.3393 3.61686 8.85888 9.09716C3.37846 14.5776 0.360352 21.8641 0.360352 29.6145C0.360352 37.3649 3.37846 44.6514 8.85888 50.1319C14.3392 55.6123 21.6258 58.6304 29.3762 58.6304C37.1266 58.6304 44.4132 55.6123 49.8936 50.1319C55.374 44.6516 58.3921 37.3649 58.3921 29.6145C58.3921 21.8641 55.374 14.5776 49.8936 9.09716Z" fill="#70C0ED"/>
<path d="M29.3733 53.8736C42.7713 53.8736 53.6324 43.0125 53.6324 29.6145C53.6324 16.2166 42.7713 5.35547 29.3733 5.35547C15.9754 5.35547 5.11426 16.2166 5.11426 29.6145C5.11426 43.0125 15.9754 53.8736 29.3733 53.8736Z" fill="#FEFEFE"/>
<path d="M49.8945 9.09716C44.4141 3.61686 37.1276 0.598633 29.3772 0.598633C28.7848 0.598633 28.1957 0.618432 27.6094 0.653435C34.6947 1.07653 41.2973 4.03559 46.3589 9.09716C51.8393 14.5775 54.8574 21.8641 54.8574 29.6145C54.8574 37.3649 51.8393 44.6514 46.3589 50.1319C41.2973 55.1934 34.6947 58.1526 27.6094 58.5756C28.1957 58.6106 28.7848 58.6304 29.3772 58.6304C37.1276 58.6304 44.4141 55.6123 49.8945 50.1319C55.3749 44.6516 58.393 37.3649 58.393 29.6145C58.393 21.8641 55.3749 14.5776 49.8945 9.09716Z" fill="#4CB0E8"/>
<path d="M29.3772 5.35547C28.7826 5.35547 28.1932 5.37786 27.6094 5.41993C40.1819 6.32552 50.1006 16.8112 50.1006 29.6145C50.1006 42.4179 40.1819 52.9036 27.6094 53.8092C28.1932 53.8512 28.7826 53.8736 29.3772 53.8736C42.7751 53.8736 53.6363 43.0125 53.6363 29.6145C53.6363 16.2166 42.7751 5.35547 29.3772 5.35547Z" fill="#F7F5F5"/>
<path d="M29.3734 4.4707C15.5095 4.4707 4.23047 15.7499 4.23047 29.6137C4.23047 43.4775 15.5096 54.7566 29.3734 54.7566C43.2372 54.7566 54.5164 43.4775 54.5164 29.6137C54.5164 15.7499 43.2374 4.4707 29.3734 4.4707ZM46.7084 45.278C46.6852 45.248 46.6607 45.2186 46.6331 45.1911L44.4042 42.9622C44.059 42.617 43.4994 42.617 43.1543 42.9622C42.8091 43.3074 42.8091 43.8671 43.1543 44.2122L45.3831 46.441C45.4165 46.4744 45.4523 46.5035 45.4892 46.5304C41.4538 50.3765 36.0484 52.7966 30.0898 52.9768C30.1172 52.8915 30.1323 52.8007 30.1323 52.7062V49.5541C30.1323 49.066 29.7365 48.6702 29.2484 48.6702C28.7602 48.6702 28.3645 49.066 28.3645 49.5541V52.7062C28.3645 52.7971 28.3783 52.8847 28.4037 52.9672C22.4728 52.7238 17.1055 50.2608 13.1116 46.3876C13.1245 46.3761 13.1378 46.365 13.1503 46.3525L15.3792 44.1237C15.7244 43.7785 15.7244 43.2188 15.3792 42.8737C15.034 42.5285 14.4743 42.5285 14.1292 42.8737L11.9004 45.1026C11.8972 45.1057 11.8946 45.1092 11.8915 45.1123C8.27649 41.0393 6.06014 35.6995 6.00133 29.8517H8.78715C9.2753 29.8517 9.67106 29.456 9.67106 28.9678C9.67106 28.4797 9.2753 28.0839 8.78715 28.0839H6.04965C6.41818 22.4075 8.82098 17.2772 12.5358 13.4168L14.2176 15.0986C14.3901 15.2711 14.6164 15.3575 14.8426 15.3575C15.0687 15.3575 15.295 15.2713 15.4676 15.0986C15.8128 14.7534 15.8128 14.1937 15.4676 13.8487L13.8089 12.19C17.7401 8.67442 22.8635 6.46702 28.4894 6.25677V8.50659C28.4894 8.99474 28.8852 9.3905 29.3733 9.3905C29.8615 9.3905 30.2572 8.99474 30.2572 8.50659V6.25677C35.8963 6.46761 41.0303 8.68455 44.9652 12.2144L43.2425 13.937C42.8974 14.2822 42.8974 14.8419 43.2425 15.187C43.4151 15.3595 43.6414 15.4459 43.8675 15.4459C44.0937 15.4459 44.32 15.3597 44.4925 15.187L46.2365 13.443C49.9642 17.3287 52.3648 22.4959 52.705 28.209H49.8344C49.3463 28.209 48.9505 28.6047 48.9505 29.0929C48.9505 29.581 49.3463 29.9768 49.8344 29.9768H52.7438C52.654 35.8548 50.3847 41.2136 46.7084 45.278Z" fill="#74CAEA"/>
<path d="M44.7767 38.3303H16.7198C16.2317 38.3303 15.8359 37.9345 15.8359 37.4464C15.8359 36.9583 16.2317 36.5625 16.7198 36.5625H44.7766C45.2648 36.5625 45.6605 36.9583 45.6605 37.4464C45.6605 37.9345 45.2649 38.3303 44.7767 38.3303Z" fill="#CCD8D3"/>
<path d="M37.9325 41.6311H23.5626C23.0745 41.6311 22.6787 41.2353 22.6787 40.7472C22.6787 40.259 23.0745 39.8633 23.5626 39.8633H37.9325C38.4206 39.8633 38.8164 40.259 38.8164 40.7472C38.8164 41.2353 38.4206 41.6311 37.9325 41.6311Z" fill="#CCD8D3"/>
<path d="M33.2542 34.1576C33.2542 35.9733 31.7822 37.4453 29.9665 37.4453C28.1507 37.4453 26.6787 35.9733 26.6787 34.1576C26.6787 32.3418 29.9665 21.9121 29.9665 21.9121C29.9665 21.9121 33.2542 32.3418 33.2542 34.1576Z" fill="#E76753"/>
<path d="M31.0421 22C30.9262 21.632 30.585 21.3818 30.1991 21.3818C29.8133 21.3818 29.4721 21.632 29.3561 22C29.0154 23.0808 26.0273 32.6141 26.0273 34.5112C26.0273 36.8114 27.8987 38.6828 30.199 38.6828C32.4993 38.6828 34.3707 36.8114 34.3707 34.5112C34.3709 32.6141 31.3828 23.0807 31.0421 22Z" fill="#EF7F9D"/>
<path d="M31.0395 22C30.9235 21.632 30.5824 21.3818 30.1965 21.3818C29.8107 21.3818 29.4695 21.632 29.3535 22C29.2468 22.3382 28.881 23.504 28.4287 25.0045C29.422 28.2994 30.8326 33.2077 30.8326 34.5112C30.8326 36.1798 29.8474 37.6219 28.4287 38.2886C28.9659 38.5411 29.5648 38.6828 30.1965 38.6828C32.4968 38.6828 34.3682 36.8114 34.3682 34.5112C34.3683 32.6141 31.3802 23.0807 31.0395 22Z" fill="#ED6C8E"/>
</g>
<defs>
<clipPath id="clip0_732_29302">
<rect width="58.0317" height="58.0317" fill="white" transform="translate(0.357422 0.597656)"/>
</clipPath>
</defs>
</svg>
