<svg width="59" height="59" viewBox="0 0 59 59" fill="none" xmlns="http://www.w3.org/2000/svg">
<g clip-path="url(#clip0_732_29438)">
<path d="M39.4645 29.7674C39.4645 35.2079 35.0432 39.6349 29.6027 39.6442H29.5868C24.141 39.6442 19.71 35.2137 19.71 29.7674C19.71 24.3216 24.141 19.8906 29.5868 19.8906H29.6027C35.0432 19.8999 39.4645 24.327 39.4645 29.7674Z" fill="#FF664D"/>
<path d="M56.9199 28.0675H50.6794C49.8559 17.7524 41.6027 9.49962 31.2875 8.67567V2.46924C31.2875 1.53548 30.5362 0.778386 29.6038 0.769531H29.5878C28.6496 0.769531 27.8881 1.52973 27.8881 2.46924V8.67567C17.5739 9.49962 9.32108 17.7524 8.49757 28.0675H2.2876C1.34942 28.0675 0.587891 28.8291 0.587891 29.7673C0.587891 30.7054 1.34942 31.467 2.2876 31.467H8.49757C9.32108 41.7821 17.5739 50.0349 27.8881 50.8588V57.0653C27.8881 58.0048 28.6496 58.765 29.5878 58.765H29.6038C30.5362 58.7561 31.2875 57.999 31.2875 57.0653V50.8588C41.6027 50.0349 49.8559 41.7821 50.6794 31.467H56.9199C57.8581 31.467 58.6196 30.7054 58.6196 29.7673C58.6196 28.8291 57.8581 28.0675 56.9199 28.0675ZM29.6038 47.5276H29.5878C19.7951 47.5276 11.8279 39.5599 11.8279 29.7673C11.8279 19.9746 19.7951 12.0073 29.5878 12.0073H29.6038C39.3911 12.0162 47.3491 19.9803 47.3491 29.7673C47.3491 39.5546 39.3911 47.5183 29.6038 47.5276Z" fill="#52ADFF"/>
<path d="M58.6194 29.7673C58.6194 30.7054 57.8579 31.467 56.9197 31.467H50.6792C49.8557 41.7821 41.6024 50.0349 31.2873 50.8588V57.0653C31.2873 57.999 30.5359 58.7561 29.6035 58.765V47.5276C39.3909 47.5183 47.3488 39.5546 47.3488 29.7673C47.3488 19.9803 39.3909 12.0162 29.6035 12.0073V0.769531C30.5359 0.778386 31.2873 1.53548 31.2873 2.46924V8.67567C41.6024 9.49962 49.8557 17.7524 50.6792 28.0675H56.9197C57.8579 28.0675 58.6194 28.8291 58.6194 29.7673Z" fill="#1D78DB"/>
<path d="M39.4653 29.7674C39.4653 35.2079 35.044 39.6349 29.6035 39.6442V19.8906C35.044 19.8999 39.4653 24.327 39.4653 29.7674Z" fill="#DD311B"/>
</g>
<defs>
<clipPath id="clip0_732_29438">
<rect width="58.0317" height="58.0317" fill="white" transform="translate(0.586914 0.769531)"/>
</clipPath>
</defs>
</svg>
