<svg width="59" height="54" viewBox="0 0 59 54" fill="none" xmlns="http://www.w3.org/2000/svg">
<path d="M38.5503 32.7377C45.3221 32.7377 50.8116 27.2481 50.8116 20.4763C50.8116 13.7045 45.3221 8.21484 38.5503 8.21484C31.7786 8.21484 26.2891 13.7045 26.2891 20.4763C26.2891 27.2481 31.7786 32.7377 38.5503 32.7377Z" fill="url(#paint0_linear_732_29452)"/>
<path d="M38.5503 32.7377C45.3221 32.7377 50.8116 27.2481 50.8116 20.4763C50.8116 13.7045 45.3221 8.21484 38.5503 8.21484C31.7786 8.21484 26.2891 13.7045 26.2891 20.4763C26.2891 27.2481 31.7786 32.7377 38.5503 32.7377Z" fill="url(#paint1_linear_732_29452)"/>
<path d="M26.2891 20.4767C26.2891 27.242 31.7738 32.7381 38.5503 32.7381C45.3156 32.7381 50.8116 27.2534 50.8116 20.4767C50.8116 19.5928 50.721 18.7315 50.5396 17.9043H26.561C26.3797 18.7315 26.2891 19.5928 26.2891 20.4767Z" fill="url(#paint2_linear_732_29452)"/>
<path d="M38.5519 32.727C45.3171 32.727 50.8131 27.2422 50.8131 20.4655C50.8131 13.7002 45.3284 8.2041 38.5519 8.2041C37.668 8.2041 36.8067 8.29476 35.9795 8.47607V32.455C36.8067 32.6363 37.668 32.727 38.5519 32.727Z" fill="url(#paint3_linear_732_29452)"/>
<path d="M29.8832 29.1462C34.6653 33.9284 42.4278 33.9284 47.2212 29.1462C52.0033 24.3641 52.0033 16.6015 47.2212 11.808C46.5979 11.1847 45.918 10.6408 45.2154 10.1875L28.2627 27.1291C28.716 27.843 29.2599 28.523 29.8832 29.1462Z" fill="url(#paint4_linear_732_29452)"/>
<path d="M38.5501 0.725586C39.2867 0.725586 39.8873 1.32619 39.8873 2.06278V4.91849C39.8873 5.65509 39.2867 6.25569 38.5501 6.25569C37.8135 6.25569 37.2129 5.65509 37.2129 4.91849V2.06278C37.2129 1.32619 37.8135 0.725586 38.5501 0.725586Z" fill="url(#paint5_linear_732_29452)"/>
<path d="M58.2898 20.4778C58.2898 21.2144 57.6892 21.815 56.9526 21.815H54.0969C53.3604 21.815 52.7598 21.2144 52.7598 20.4778C52.7598 19.7412 53.3604 19.1406 54.0969 19.1406H56.9526C57.6892 19.1406 58.2898 19.7412 58.2898 20.4778Z" fill="url(#paint6_linear_732_29452)"/>
<path d="M28.4988 10.4295C27.9775 10.9508 27.1276 10.9508 26.6063 10.4295L24.5892 8.41234C24.0679 7.89106 24.0679 7.04115 24.5892 6.51987C25.1105 5.99859 25.9604 5.99859 26.4817 6.51987L28.4988 8.537C29.02 9.05828 29.02 9.90819 28.4988 10.4295Z" fill="url(#paint7_linear_732_29452)"/>
<path d="M52.5134 34.4314C51.9921 34.9527 51.1422 34.9527 50.6209 34.4314L48.6038 32.4143C48.0826 31.893 48.0826 31.0431 48.6038 30.5218C49.1251 30.0005 49.975 30.0005 50.4963 30.5218L52.5134 32.5389C53.0347 33.0716 53.0347 33.9101 52.5134 34.4314Z" fill="url(#paint8_linear_732_29452)"/>
<path d="M52.5124 6.51498C53.0337 7.03626 53.0337 7.88618 52.5124 8.40746L50.4953 10.4246C49.974 10.9459 49.1241 10.9459 48.6029 10.4246C48.0816 9.90331 48.0816 9.05339 48.6029 8.53211L50.62 6.51498C51.1412 5.9937 51.9912 5.9937 52.5124 6.51498Z" fill="url(#paint9_linear_732_29452)"/>
<path d="M37.2564 30.0697C36.5651 30.0697 35.8965 30.1603 35.2619 30.319C35.4659 29.4577 35.5792 28.5511 35.5792 27.6219C35.5792 21.2645 30.4231 16.1084 24.0659 16.1084C17.9805 16.1084 12.9944 20.8339 12.5865 26.8286C11.7706 26.6133 10.9207 26.4887 10.0368 26.4887C4.64273 26.4887 0.268555 30.8742 0.268555 36.2684C0.268555 41.6625 4.64273 46.0367 10.0368 46.0367H37.2564C41.6645 46.0367 45.2341 42.4671 45.2341 38.0588C45.2341 33.6506 41.6645 30.0697 37.2564 30.0697Z" fill="url(#paint10_linear_732_29452)"/>
<path d="M37.2571 46.0387C41.6631 46.0387 45.2348 42.4669 45.2348 38.0609C45.2348 33.6548 41.6631 30.083 37.2571 30.083C32.8511 30.083 29.2793 33.6548 29.2793 38.0609C29.2793 42.4669 32.8511 46.0387 37.2571 46.0387Z" fill="url(#paint11_linear_732_29452)"/>
<path d="M10.0368 46.0338C15.4316 46.0338 19.805 41.6603 19.805 36.2654C19.805 30.8705 15.4316 26.4971 10.0368 26.4971C4.64194 26.4971 0.268555 30.8705 0.268555 36.2654C0.268555 41.6603 4.64194 46.0338 10.0368 46.0338Z" fill="url(#paint12_linear_732_29452)"/>
<path d="M35.5785 27.6219C35.5785 28.5511 35.4652 29.4577 35.2612 30.319C31.8616 31.1915 29.3459 34.2399 29.2779 37.8889C27.714 38.6821 25.9462 39.1354 24.0651 39.1354C17.7078 39.1354 12.5518 33.9793 12.5518 27.6219C12.5518 21.2645 17.7078 16.1084 24.0651 16.1084C30.4224 16.1084 35.5785 21.2645 35.5785 27.6219Z" fill="url(#paint13_linear_732_29452)"/>
<path d="M53.2542 43.6737C52.8235 43.6737 52.3929 43.7303 51.9963 43.8323C52.1323 43.2884 52.2003 42.7218 52.2003 42.1325C52.2003 38.1322 48.9593 34.8799 44.9478 34.8799C41.1062 34.8799 37.9786 37.8602 37.7179 41.6339C37.208 41.4979 36.664 41.4186 36.1201 41.4186C32.7205 41.4186 29.9668 44.1723 29.9668 47.5719C29.9668 50.9716 32.7205 53.7253 36.1201 53.7253H53.2655C56.0418 53.7253 58.2969 51.4702 58.2969 48.6938C58.2856 45.9288 56.0305 43.6737 53.2542 43.6737Z" fill="url(#paint14_linear_732_29452)"/>
<path d="M53.256 53.7368C56.0348 53.7368 58.2875 51.4841 58.2875 48.7053C58.2875 45.9265 56.0348 43.6738 53.256 43.6738C50.4773 43.6738 48.2246 45.9265 48.2246 48.7053C48.2246 51.4841 50.4773 53.7368 53.256 53.7368Z" fill="url(#paint15_linear_732_29452)"/>
<path d="M36.1201 53.7237C39.5185 53.7237 42.2734 50.9688 42.2734 47.5704C42.2734 44.172 39.5185 41.417 36.1201 41.417C32.7217 41.417 29.9668 44.172 29.9668 47.5704C29.9668 50.9688 32.7217 53.7237 36.1201 53.7237Z" fill="url(#paint16_linear_732_29452)"/>
<path d="M52.2023 42.1325C52.2023 42.7218 52.1343 43.2884 51.9983 43.8323C49.8566 44.3876 48.2701 46.3027 48.2247 48.6032C47.2389 49.1018 46.1283 49.3851 44.9498 49.3851C40.9496 49.3851 37.6973 46.1441 37.6973 42.1325C37.6973 38.1322 40.9382 34.8799 44.9498 34.8799C48.9613 34.8799 52.2023 38.1322 52.2023 42.1325Z" fill="url(#paint17_linear_732_29452)"/>
<path d="M7.13157 47.6537C7.65284 48.1749 7.65284 49.0248 7.13157 49.5461L5.11446 51.5633C4.59319 52.0845 3.74328 52.0845 3.22201 51.5633C2.70074 51.042 2.70074 50.1921 3.22201 49.6708L5.23912 47.6537C5.76039 47.1324 6.61029 47.1324 7.13157 47.6537Z" fill="url(#paint18_linear_732_29452)"/>
<path d="M16.8552 47.6537C17.3765 48.1749 17.3765 49.0248 16.8552 49.5461L14.8381 51.5633C14.3168 52.0845 13.4669 52.0845 12.9456 51.5633C12.4244 51.042 12.4244 50.1921 12.9456 49.6708L14.9627 47.6537C15.484 47.1324 16.3339 47.1324 16.8552 47.6537Z" fill="url(#paint19_linear_732_29452)"/>
<path d="M26.5749 47.6537C27.0962 48.1749 27.0962 49.0248 26.5749 49.5461L24.5578 51.5633C24.0365 52.0845 23.1866 52.0845 22.6654 51.5633C22.1441 51.042 22.1441 50.1921 22.6654 49.6708L24.6825 47.6537C25.2037 47.1324 26.0537 47.1324 26.5749 47.6537Z" fill="url(#paint20_linear_732_29452)"/>
<defs>
<linearGradient id="paint0_linear_732_29452" x1="30.685" y1="12.6077" x2="45.8607" y2="27.7832" gradientUnits="userSpaceOnUse">
<stop stop-color="#FEF0AE"/>
<stop offset="0.1466" stop-color="#FDEEA9"/>
<stop offset="0.2986" stop-color="#FDEB9D"/>
<stop offset="0.4531" stop-color="#FDE688"/>
<stop offset="0.6093" stop-color="#FCDF6B"/>
<stop offset="0.7669" stop-color="#FBD646"/>
<stop offset="0.9233" stop-color="#FACC18"/>
<stop offset="1" stop-color="#FAC600"/>
</linearGradient>
<linearGradient id="paint1_linear_732_29452" x1="39.5688" y1="19.6971" x2="30.9134" y2="26.2687" gradientUnits="userSpaceOnUse">
<stop stop-color="#FE9738" stop-opacity="0"/>
<stop offset="0.1207" stop-color="#FE9738" stop-opacity="0.016"/>
<stop offset="0.2459" stop-color="#FE9738" stop-opacity="0.065"/>
<stop offset="0.3731" stop-color="#FE9738" stop-opacity="0.147"/>
<stop offset="0.5018" stop-color="#FE9738" stop-opacity="0.262"/>
<stop offset="0.6317" stop-color="#FE9738" stop-opacity="0.41"/>
<stop offset="0.7625" stop-color="#FE9738" stop-opacity="0.59"/>
<stop offset="0.8916" stop-color="#FE9738" stop-opacity="0.8"/>
<stop offset="1" stop-color="#FE9738"/>
</linearGradient>
<linearGradient id="paint2_linear_732_29452" x1="38.5488" y1="22.3787" x2="38.5488" y2="33.5641" gradientUnits="userSpaceOnUse">
<stop stop-color="#FE9738" stop-opacity="0"/>
<stop offset="0.1207" stop-color="#FE9738" stop-opacity="0.016"/>
<stop offset="0.2459" stop-color="#FE9738" stop-opacity="0.065"/>
<stop offset="0.3731" stop-color="#FE9738" stop-opacity="0.147"/>
<stop offset="0.5018" stop-color="#FE9738" stop-opacity="0.262"/>
<stop offset="0.6317" stop-color="#FE9738" stop-opacity="0.41"/>
<stop offset="0.7625" stop-color="#FE9738" stop-opacity="0.59"/>
<stop offset="0.8916" stop-color="#FE9738" stop-opacity="0.8"/>
<stop offset="1" stop-color="#FE9738"/>
</linearGradient>
<linearGradient id="paint3_linear_732_29452" x1="40.4569" y1="20.4722" x2="51.6423" y2="20.4722" gradientUnits="userSpaceOnUse">
<stop stop-color="#FE9738" stop-opacity="0"/>
<stop offset="0.1207" stop-color="#FE9738" stop-opacity="0.016"/>
<stop offset="0.2459" stop-color="#FE9738" stop-opacity="0.065"/>
<stop offset="0.3731" stop-color="#FE9738" stop-opacity="0.147"/>
<stop offset="0.5018" stop-color="#FE9738" stop-opacity="0.262"/>
<stop offset="0.6317" stop-color="#FE9738" stop-opacity="0.41"/>
<stop offset="0.7625" stop-color="#FE9738" stop-opacity="0.59"/>
<stop offset="0.8916" stop-color="#FE9738" stop-opacity="0.8"/>
<stop offset="1" stop-color="#FE9738"/>
</linearGradient>
<linearGradient id="paint4_linear_732_29452" x1="43.8418" y1="25.7636" x2="48.0262" y2="29.9479" gradientUnits="userSpaceOnUse">
<stop stop-color="#F5FBFF" stop-opacity="0"/>
<stop offset="0.1205" stop-color="#F5FBFF" stop-opacity="0.016"/>
<stop offset="0.2454" stop-color="#F5FBFF" stop-opacity="0.065"/>
<stop offset="0.3724" stop-color="#F5FBFF" stop-opacity="0.147"/>
<stop offset="0.5008" stop-color="#F5FBFF" stop-opacity="0.261"/>
<stop offset="0.6304" stop-color="#F5FBFF" stop-opacity="0.408"/>
<stop offset="0.761" stop-color="#F5FBFF" stop-opacity="0.588"/>
<stop offset="0.8898" stop-color="#F5FBFF" stop-opacity="0.797"/>
<stop offset="1" stop-color="#F5FBFF"/>
</linearGradient>
<linearGradient id="paint5_linear_732_29452" x1="37.505" y1="3.49563" x2="39.5353" y2="3.49563" gradientUnits="userSpaceOnUse">
<stop stop-color="#FEF0AE"/>
<stop offset="0.1466" stop-color="#FDEEA9"/>
<stop offset="0.2986" stop-color="#FDEB9D"/>
<stop offset="0.4531" stop-color="#FDE688"/>
<stop offset="0.6093" stop-color="#FCDF6B"/>
<stop offset="0.7669" stop-color="#FBD646"/>
<stop offset="0.9233" stop-color="#FACC18"/>
<stop offset="1" stop-color="#FAC600"/>
</linearGradient>
<linearGradient id="paint6_linear_732_29452" x1="55.5249" y1="19.4296" x2="55.5249" y2="21.4599" gradientUnits="userSpaceOnUse">
<stop stop-color="#FEF0AE"/>
<stop offset="0.1466" stop-color="#FDEEA9"/>
<stop offset="0.2986" stop-color="#FDEB9D"/>
<stop offset="0.4531" stop-color="#FDE688"/>
<stop offset="0.6093" stop-color="#FCDF6B"/>
<stop offset="0.7669" stop-color="#FBD646"/>
<stop offset="0.9233" stop-color="#FACC18"/>
<stop offset="1" stop-color="#FAC600"/>
</linearGradient>
<linearGradient id="paint7_linear_732_29452" x1="27.2942" y1="7.73805" x2="25.8588" y2="9.17344" gradientUnits="userSpaceOnUse">
<stop stop-color="#FEF0AE"/>
<stop offset="0.1466" stop-color="#FDEEA9"/>
<stop offset="0.2986" stop-color="#FDEB9D"/>
<stop offset="0.4531" stop-color="#FDE688"/>
<stop offset="0.6093" stop-color="#FCDF6B"/>
<stop offset="0.7669" stop-color="#FBD646"/>
<stop offset="0.9233" stop-color="#FACC18"/>
<stop offset="1" stop-color="#FAC600"/>
</linearGradient>
<linearGradient id="paint8_linear_732_29452" x1="51.3018" y1="31.7444" x2="49.8664" y2="33.1797" gradientUnits="userSpaceOnUse">
<stop stop-color="#FEF0AE"/>
<stop offset="0.1466" stop-color="#FDEEA9"/>
<stop offset="0.2986" stop-color="#FDEB9D"/>
<stop offset="0.4531" stop-color="#FDE688"/>
<stop offset="0.6093" stop-color="#FCDF6B"/>
<stop offset="0.7669" stop-color="#FBD646"/>
<stop offset="0.9233" stop-color="#FACC18"/>
<stop offset="1" stop-color="#FAC600"/>
</linearGradient>
<linearGradient id="paint9_linear_732_29452" x1="49.8046" y1="7.73325" x2="51.24" y2="9.16864" gradientUnits="userSpaceOnUse">
<stop stop-color="#FEF0AE"/>
<stop offset="0.1466" stop-color="#FDEEA9"/>
<stop offset="0.2986" stop-color="#FDEB9D"/>
<stop offset="0.4531" stop-color="#FDE688"/>
<stop offset="0.6093" stop-color="#FCDF6B"/>
<stop offset="0.7669" stop-color="#FBD646"/>
<stop offset="0.9233" stop-color="#FACC18"/>
<stop offset="1" stop-color="#FAC600"/>
</linearGradient>
<linearGradient id="paint10_linear_732_29452" x1="15.0838" y1="24.2798" x2="28.6899" y2="47.5611" gradientUnits="userSpaceOnUse">
<stop stop-color="#EAF6FF"/>
<stop offset="0.2651" stop-color="#E5F3FE"/>
<stop offset="0.5398" stop-color="#D9EDFE"/>
<stop offset="0.8179" stop-color="#C4E3FE"/>
<stop offset="1" stop-color="#B3DAFE"/>
</linearGradient>
<linearGradient id="paint11_linear_732_29452" x1="37.3488" y1="38.0567" x2="45.7129" y2="38.0567" gradientUnits="userSpaceOnUse">
<stop stop-color="#8AC9FE" stop-opacity="0"/>
<stop offset="0.1291" stop-color="#89C8FD" stop-opacity="0.019"/>
<stop offset="0.2629" stop-color="#88C6FB" stop-opacity="0.075"/>
<stop offset="0.3989" stop-color="#87C4F8" stop-opacity="0.168"/>
<stop offset="0.5365" stop-color="#85C0F4" stop-opacity="0.298"/>
<stop offset="0.6753" stop-color="#83BBEF" stop-opacity="0.466"/>
<stop offset="0.8151" stop-color="#7FB5E9" stop-opacity="0.672"/>
<stop offset="0.9532" stop-color="#7CAEE1" stop-opacity="0.911"/>
<stop offset="1" stop-color="#7BACDF"/>
</linearGradient>
<linearGradient id="paint12_linear_732_29452" x1="11.9011" y1="33.1181" x2="16.2854" y2="25.7104" gradientUnits="userSpaceOnUse">
<stop stop-color="#8AC9FE" stop-opacity="0"/>
<stop offset="0.1291" stop-color="#89C8FD" stop-opacity="0.019"/>
<stop offset="0.2629" stop-color="#88C6FB" stop-opacity="0.075"/>
<stop offset="0.3989" stop-color="#87C4F8" stop-opacity="0.168"/>
<stop offset="0.5365" stop-color="#85C0F4" stop-opacity="0.298"/>
<stop offset="0.6753" stop-color="#83BBEF" stop-opacity="0.466"/>
<stop offset="0.8151" stop-color="#7FB5E9" stop-opacity="0.672"/>
<stop offset="0.9532" stop-color="#7CAEE1" stop-opacity="0.911"/>
<stop offset="1" stop-color="#7BACDF"/>
</linearGradient>
<linearGradient id="paint13_linear_732_29452" x1="28.1264" y1="25.8966" x2="36.2899" y2="22.4196" gradientUnits="userSpaceOnUse">
<stop stop-color="#8AC9FE" stop-opacity="0"/>
<stop offset="0.1291" stop-color="#89C8FD" stop-opacity="0.019"/>
<stop offset="0.2629" stop-color="#88C6FB" stop-opacity="0.075"/>
<stop offset="0.3989" stop-color="#87C4F8" stop-opacity="0.168"/>
<stop offset="0.5365" stop-color="#85C0F4" stop-opacity="0.298"/>
<stop offset="0.6753" stop-color="#83BBEF" stop-opacity="0.466"/>
<stop offset="0.8151" stop-color="#7FB5E9" stop-opacity="0.672"/>
<stop offset="0.9532" stop-color="#7CAEE1" stop-opacity="0.911"/>
<stop offset="1" stop-color="#7BACDF"/>
</linearGradient>
<linearGradient id="paint14_linear_732_29452" x1="39.2931" y1="40.0273" x2="47.863" y2="54.6914" gradientUnits="userSpaceOnUse">
<stop stop-color="#EAF6FF"/>
<stop offset="0.2651" stop-color="#E5F3FE"/>
<stop offset="0.5398" stop-color="#D9EDFE"/>
<stop offset="0.8179" stop-color="#C4E3FE"/>
<stop offset="1" stop-color="#B3DAFE"/>
</linearGradient>
<linearGradient id="paint15_linear_732_29452" x1="53.3185" y1="48.7037" x2="58.5866" y2="48.7037" gradientUnits="userSpaceOnUse">
<stop stop-color="#8AC9FE" stop-opacity="0"/>
<stop offset="0.1291" stop-color="#89C8FD" stop-opacity="0.019"/>
<stop offset="0.2629" stop-color="#88C6FB" stop-opacity="0.075"/>
<stop offset="0.3989" stop-color="#87C4F8" stop-opacity="0.168"/>
<stop offset="0.5365" stop-color="#85C0F4" stop-opacity="0.298"/>
<stop offset="0.6753" stop-color="#83BBEF" stop-opacity="0.466"/>
<stop offset="0.8151" stop-color="#7FB5E9" stop-opacity="0.672"/>
<stop offset="0.9532" stop-color="#7CAEE1" stop-opacity="0.911"/>
<stop offset="1" stop-color="#7BACDF"/>
</linearGradient>
<linearGradient id="paint16_linear_732_29452" x1="37.2884" y1="45.5946" x2="40.0499" y2="40.9287" gradientUnits="userSpaceOnUse">
<stop stop-color="#8AC9FE" stop-opacity="0"/>
<stop offset="0.1291" stop-color="#89C8FD" stop-opacity="0.019"/>
<stop offset="0.2629" stop-color="#88C6FB" stop-opacity="0.075"/>
<stop offset="0.3989" stop-color="#87C4F8" stop-opacity="0.168"/>
<stop offset="0.5365" stop-color="#85C0F4" stop-opacity="0.298"/>
<stop offset="0.6753" stop-color="#83BBEF" stop-opacity="0.466"/>
<stop offset="0.8151" stop-color="#7FB5E9" stop-opacity="0.672"/>
<stop offset="0.9532" stop-color="#7CAEE1" stop-opacity="0.911"/>
<stop offset="1" stop-color="#7BACDF"/>
</linearGradient>
<linearGradient id="paint17_linear_732_29452" x1="46.7869" y1="41.354" x2="51.9289" y2="39.1638" gradientUnits="userSpaceOnUse">
<stop stop-color="#8AC9FE" stop-opacity="0"/>
<stop offset="0.1291" stop-color="#89C8FD" stop-opacity="0.019"/>
<stop offset="0.2629" stop-color="#88C6FB" stop-opacity="0.075"/>
<stop offset="0.3989" stop-color="#87C4F8" stop-opacity="0.168"/>
<stop offset="0.5365" stop-color="#85C0F4" stop-opacity="0.298"/>
<stop offset="0.6753" stop-color="#83BBEF" stop-opacity="0.466"/>
<stop offset="0.8151" stop-color="#7FB5E9" stop-opacity="0.672"/>
<stop offset="0.9532" stop-color="#7CAEE1" stop-opacity="0.911"/>
<stop offset="1" stop-color="#7BACDF"/>
</linearGradient>
<linearGradient id="paint18_linear_732_29452" x1="4.43416" y1="48.8664" x2="5.86956" y2="50.3017" gradientUnits="userSpaceOnUse">
<stop stop-color="#26A6FE"/>
<stop offset="0.2729" stop-color="#23A1FD"/>
<stop offset="0.5557" stop-color="#1A95FD"/>
<stop offset="0.8419" stop-color="#0B80FB"/>
<stop offset="1" stop-color="#0172FB"/>
</linearGradient>
<linearGradient id="paint19_linear_732_29452" x1="14.1562" y1="48.8664" x2="15.5916" y2="50.3017" gradientUnits="userSpaceOnUse">
<stop stop-color="#26A6FE"/>
<stop offset="0.2729" stop-color="#23A1FD"/>
<stop offset="0.5557" stop-color="#1A95FD"/>
<stop offset="0.8419" stop-color="#0B80FB"/>
<stop offset="1" stop-color="#0172FB"/>
</linearGradient>
<linearGradient id="paint20_linear_732_29452" x1="23.8743" y1="48.8664" x2="25.3097" y2="50.3017" gradientUnits="userSpaceOnUse">
<stop stop-color="#26A6FE"/>
<stop offset="0.2729" stop-color="#23A1FD"/>
<stop offset="0.5557" stop-color="#1A95FD"/>
<stop offset="0.8419" stop-color="#0B80FB"/>
<stop offset="1" stop-color="#0172FB"/>
</linearGradient>
</defs>
</svg>
