<svg width="59" height="58" viewBox="0 0 59 58" fill="none" xmlns="http://www.w3.org/2000/svg">
<path d="M29.5597 47.2998C28.3223 47.2998 27.3193 46.3061 27.3193 45.0802V35.3983C27.3193 34.1724 28.3223 33.1787 29.5597 33.1787C30.7971 33.1787 31.8001 34.1724 31.8001 35.3983V45.0802C31.8001 46.3061 30.7971 47.2998 29.5597 47.2998Z" fill="#2266D3"/>
<path d="M35.3059 8.98242C34.0686 8.98242 33.0656 9.97615 33.0656 11.2021V29.7036C33.0656 31.6199 31.4919 33.1789 29.5578 33.1789C27.6237 33.1789 26.0501 31.6199 26.0501 29.7036V11.2021C26.0501 9.97615 25.0471 8.98242 23.8097 8.98242C22.5723 8.98242 21.5693 9.97615 21.5693 11.2021V29.7036C21.5693 34.0679 25.153 37.6182 29.5578 37.6182C33.9626 37.6182 37.5463 34.0677 37.5463 29.7036V11.2021C37.5463 9.97615 36.5433 8.98242 35.3059 8.98242Z" fill="#478CF7"/>
<path d="M24.375 34.2531C24.2384 34.2531 24.1107 34.1932 24.0233 34.0866C23.0218 32.8481 22.4707 31.2921 22.4707 29.7028V11.9435C22.4707 11.6993 22.6723 11.4996 22.9188 11.4996C23.1675 11.4996 23.3669 11.6993 23.3669 11.9435V29.7028C23.3669 31.1079 23.8351 32.433 24.7223 33.5317H24.7245C24.8791 33.7248 24.8477 34.0045 24.6551 34.1576C24.5744 34.2198 24.4781 34.2531 24.375 34.2531ZM23.4609 10.8315C23.2817 10.8315 23.1204 10.7249 23.051 10.5629C23.0039 10.4541 23.0017 10.332 23.0465 10.2211C23.089 10.1123 23.1742 10.0257 23.284 9.97912C23.5058 9.88368 23.7791 9.99244 23.8732 10.21C23.9202 10.3187 23.9225 10.4408 23.8777 10.5496C23.8328 10.6606 23.75 10.7471 23.6402 10.7937C23.5819 10.8181 23.5237 10.8315 23.4609 10.8315Z" fill="#5E9CF7"/>
<path d="M35.3085 8.98242V27.484C35.3085 31.8483 31.7248 35.3986 27.32 35.3986C25.6892 35.3986 24.1716 34.9109 22.9062 34.0765C24.339 36.2094 26.7863 37.6182 29.5604 37.6182C33.9654 37.6182 37.5488 34.0677 37.5488 29.7036V11.2021C37.5488 9.97615 36.5458 8.98242 35.3085 8.98242Z" fill="#377DE2"/>
<path d="M36.2241 9.17969C36.3512 9.45825 36.4235 9.76634 36.4235 10.092V28.5935C36.4235 32.9578 32.8398 36.5081 28.435 36.5081C26.5173 36.5081 24.7555 35.8347 23.377 34.7144C24.8433 36.4855 27.068 37.6179 29.5552 37.6179C33.9602 37.6179 37.5437 34.0674 37.5437 29.7034V11.2018C37.5437 10.3013 37.0018 9.52795 36.2241 9.17969Z" fill="#2266D3"/>
<path d="M29.5574 48.6199C31.7933 48.6199 33.6059 46.824 33.6059 44.6088C33.6059 42.3935 31.7933 40.5977 29.5574 40.5977C27.3214 40.5977 25.5088 42.3935 25.5088 44.6088C25.5088 46.824 27.3214 48.6199 29.5574 48.6199Z" fill="#377DE2"/>
<path d="M31.8097 41.2734C32.2396 41.9105 32.491 42.6758 32.491 43.4997C32.491 45.7149 30.6783 47.5108 28.4424 47.5108C27.6108 47.5108 26.8383 47.2618 26.1953 46.8359C26.9214 47.9117 28.1581 48.6207 29.5626 48.6207C31.7985 48.6207 33.6112 46.8248 33.6112 44.6096C33.6112 43.2181 32.8956 41.9928 31.8097 41.2734Z" fill="#2266D3"/>
<path d="M16.8745 41.2828C16.5877 41.2828 16.3012 41.1745 16.0823 40.9578C8.64965 33.5937 8.64965 21.6117 16.0823 14.2478C16.5198 13.8145 17.2289 13.8145 17.6665 14.2478C18.104 14.6813 18.104 15.384 17.6665 15.8173C11.1071 22.3157 11.1071 32.8899 17.6665 39.3883C18.104 39.8218 18.104 40.5246 17.6665 40.9578C17.4478 41.1745 17.161 41.2828 16.8745 41.2828Z" fill="#FFA91A"/>
<path d="M42.2502 41.2828C41.9635 41.2828 41.6769 41.1745 41.458 40.9578C41.0205 40.5243 41.0205 39.8216 41.458 39.3883C48.0174 32.8899 48.0174 22.3157 41.458 15.8173C41.0205 15.3838 41.0205 14.6811 41.458 14.2478C41.8956 13.8145 42.6047 13.8145 43.0422 14.2478C50.4749 21.6119 50.4749 33.594 43.0422 40.9578C42.8235 41.1745 42.537 41.2828 42.2502 41.2828Z" fill="#FFA91A"/>
<path d="M13.1074 45.0182C12.8207 45.0182 12.5341 44.9098 12.3153 44.6932C2.80377 35.2697 2.80377 19.9369 12.3153 10.5134C12.7528 10.0802 13.4619 10.0802 13.8994 10.5134C14.337 10.9469 14.337 11.6497 13.8994 12.0829C5.26145 20.6408 5.26145 34.5657 13.8994 43.1235C14.337 43.557 14.337 44.2597 13.8994 44.693C13.6808 44.9096 13.394 45.0182 13.1074 45.0182Z" fill="#FFA91A"/>
<path d="M46.0237 45.0179C45.7369 45.0179 45.4504 44.9096 45.2315 44.693C44.7939 44.2595 44.7939 43.5568 45.2315 43.1235C53.8694 34.5657 53.8694 20.6408 45.2315 12.0829C44.7939 11.6494 44.7939 10.9467 45.2315 10.5134C45.669 10.0802 46.3781 10.0802 46.8156 10.5134C56.3271 19.9369 56.3271 35.2697 46.8156 44.6932C46.5972 44.9094 46.3104 45.0179 46.0237 45.0179Z" fill="#FFA91A"/>
</svg>
