<svg width="28" height="65" viewBox="0 0 28 115" fill="none" xmlns="http://www.w3.org/2000/svg">
<path d="M14.6851 43.4229V5.65925C14.6851 2.95372 12.752 0.761719 10.3659 0.761719C7.97983 0.761719 6.04362 2.95372 6.04362 5.65925V43.4264C1.20766 46.1319 -0.777184 52.7699 1.60888 58.2534C3.99495 63.7368 9.84917 65.9874 14.6851 63.2819C19.5211 60.5763 21.5059 53.9383 19.1199 48.4549C18.1715 46.2698 16.6122 44.5017 14.6851 43.4229Z" fill="#E8E8F8"/>
<path d="M10.366 3.55371C9.34163 3.55371 8.50879 4.49462 8.50879 5.65954V29.2718L8.52703 29.2959L12.2201 29.2993L12.2232 29.2649V5.6561C12.2232 4.49462 11.3903 3.55371 10.366 3.55371Z" fill="#CBCFF7"/>
<path d="M15.4164 53.2423C15.4103 56.3993 13.1489 58.9566 10.3646 58.9497C7.58035 58.9428 5.32499 56.3786 5.33107 53.2216C5.33411 50.8814 6.59857 48.779 8.51654 47.9174V26.0146H12.2279V47.9174C14.155 48.7859 15.4164 50.8952 15.4164 53.2423Z" fill="#6167FF"/>
<path d="M18.1913 37.3268H14.6867C14.2672 37.3268 13.9268 36.9408 13.9268 36.4651C13.9268 35.9895 14.2672 35.6035 14.6867 35.6035H18.1882C18.6077 35.6035 18.9481 35.9895 18.9481 36.4651C18.9481 36.9408 18.6107 37.3268 18.1913 37.3268Z" fill="#444B6B"/>
<path d="M18.1913 29.3795H14.6867C14.2672 29.3795 13.9268 28.9935 13.9268 28.5179C13.9268 28.0423 14.2672 27.6562 14.6867 27.6562H18.1882C18.6077 27.6562 18.9481 28.0423 18.9481 28.5179C18.9481 28.9935 18.6107 29.3795 18.1913 29.3795Z" fill="#444B6B"/>
<path d="M18.1913 21.4313H14.6867C14.2672 21.4313 13.9268 21.0453 13.9268 20.5696C13.9268 20.094 14.2672 19.708 14.6867 19.708H18.1882C18.6077 19.708 18.9481 20.094 18.9481 20.5696C18.9481 21.0453 18.6107 21.4313 18.1913 21.4313Z" fill="#444B6B"/>
<path d="M18.1913 13.4791H14.6867C14.2672 13.4791 13.9268 13.0931 13.9268 12.6175C13.9268 12.1419 14.2672 11.7559 14.6867 11.7559H18.1882C18.6077 11.7559 18.9481 12.1419 18.9481 12.6175C18.9481 13.0931 18.6107 13.4791 18.1913 13.4791Z" fill="#444B6B"/>
<path d="M27.2823 11.5368C26.8355 11.7264 26.3613 11.8125 25.8871 11.7953C24.422 11.9952 23.0938 10.8096 22.9175 9.14835C22.8992 8.98636 22.8962 8.82093 22.9023 8.65894C22.8445 6.87364 24.0755 5.37439 25.65 5.30891C25.7625 5.30546 25.875 5.30891 25.9874 5.31925C26.4616 5.29512 26.9358 5.39163 27.3735 5.59842L27.0817 6.91844C26.7564 6.76679 26.4069 6.69097 26.0573 6.69442C25.2306 6.63238 24.5163 7.33892 24.4616 8.27638C24.4555 8.36943 24.4585 8.45904 24.4646 8.5521C24.3886 9.48266 24.9935 10.3098 25.8172 10.3994C25.9054 10.4098 25.9935 10.4098 26.0847 10.3994C26.4221 10.3994 26.7564 10.3409 27.0756 10.2202L27.2823 11.5368Z" fill="#444B6B"/>
<path d="M22.2359 5.23237C21.3483 5.23237 20.6279 4.41554 20.6279 3.40916C20.6279 2.40277 21.3483 1.58594 22.2359 1.58594C23.1234 1.58594 23.8438 2.40277 23.8438 3.40916C23.8438 4.41554 23.1234 5.23237 22.2359 5.23237ZM22.2359 2.44412C21.7678 2.44412 21.3878 2.87494 21.3878 3.40571C21.3878 3.93647 21.7678 4.36729 22.2359 4.36729C22.704 4.36729 23.0839 3.93647 23.0839 3.40571C23.0839 2.87494 22.704 2.44412 22.2359 2.44412Z" fill="#444B6B"/>
<path d="M20.1459 53.318C20.1307 59.4356 15.7507 64.3848 10.3555 64.3813C14.4528 62.2135 17.1854 57.6882 17.4833 52.5735C16.9088 49.3958 15.9696 46.3146 14.6899 43.4092C18.0243 45.2669 20.1368 49.1063 20.1459 53.318Z" fill="#CBCFF7"/>
</svg>
