<svg width="59" height="59" viewBox="0 0 59 59" fill="none" xmlns="http://www.w3.org/2000/svg">
<path d="M39.6684 40.8377C39.674 40.8327 39.6775 40.8257 39.6782 40.8183C42.0996 35.2979 47.6287 28.2666 53.1578 28.2666C61.3435 28.2666 57.2555 36.8959 54.7949 45.5252C53.4813 50.1256 51.1285 52.5952 46.6091 52.5952C42.08 52.5952 38.4136 50.2999 38.4136 45.5252C38.4312 44.8401 38.5366 44.16 38.7273 43.501L39.6684 40.8377Z" fill="#4C8056"/>
<path d="M39.7931 40.4193C37.9651 47.0113 34.673 50.5416 28.357 50.5416C22.0409 50.5416 16.9209 47.252 16.9209 40.4193C16.9209 33.5866 27.2134 15.6758 37.5059 15.6758C48.9423 15.6758 43.224 28.0475 39.7931 40.4193Z" fill="#4FBA6F"/>
<path d="M35.2743 33.1467L30.7314 34.4514C31.768 32.4956 32.9757 30.6332 34.3408 28.8853C34.5072 28.6879 34.5874 28.4333 34.5638 28.1775C34.5401 27.9216 34.4146 27.6856 34.2148 27.5212C34.015 27.3568 33.7572 27.2775 33.4983 27.3009C33.2393 27.3242 33.0003 27.4483 32.8339 27.6457C31.3628 29.4905 30.0659 31.4646 28.9594 33.5432L27.649 29.88C27.6091 29.7563 27.5446 29.6419 27.4591 29.5434C27.3736 29.4449 27.2689 29.3643 27.1513 29.3065C27.0337 29.2488 26.9056 29.2149 26.7745 29.207C26.6434 29.1991 26.512 29.2173 26.3882 29.2606C26.2644 29.3038 26.1506 29.3712 26.0536 29.4587C25.9566 29.5462 25.8785 29.6521 25.8237 29.77C25.769 29.8879 25.7388 30.0155 25.7349 30.1452C25.731 30.2749 25.7536 30.4041 25.8012 30.525L27.7346 35.9307C26.9093 37.6524 26.1815 39.4182 25.5547 41.2198L23.6807 37.5173C23.5644 37.2875 23.3604 37.1128 23.1138 37.0315C22.8671 36.9503 22.5978 36.9692 22.3652 37.0841C22.1326 37.199 21.9558 37.4005 21.8736 37.6442C21.7913 37.8879 21.8105 38.1539 21.9268 38.3837L24.7089 43.8808C23.4483 48.2521 22.8071 52.775 22.8038 57.3204C22.8038 57.5772 22.9071 57.8236 23.0909 58.0052C23.2747 58.1868 23.5241 58.2889 23.7841 58.2889C24.0441 58.2889 24.2935 58.1868 24.4773 58.0052C24.6611 57.8236 24.7644 57.5772 24.7644 57.3204C24.7717 53.002 25.3837 48.7053 26.5831 44.5527L33.8249 42.7641C34.0723 42.6976 34.2835 42.5379 34.4132 42.3194C34.5429 42.1008 34.5807 41.8407 34.5186 41.5949C34.4565 41.3491 34.2994 41.1372 34.0809 41.0045C33.8624 40.8718 33.6 40.829 33.35 40.8852L27.2607 42.3893C27.9019 40.4891 28.6567 38.6283 29.5212 36.8165L35.8219 35.0062C36.0716 34.9345 36.2822 34.7677 36.4074 34.5425C36.5327 34.3174 36.5622 34.0523 36.4896 33.8056C36.417 33.5589 36.2481 33.3508 36.0202 33.2271C35.7923 33.1034 35.524 33.075 35.2743 33.1467Z" fill="#A56A43"/>
<path d="M52.6937 40.8413C52.6219 40.5948 52.4545 40.3863 52.2278 40.2612C52.0012 40.1361 51.7338 40.1044 51.4836 40.1731L48.8942 40.8976C49.5405 39.7699 50.2754 38.694 51.0921 37.6799C51.2554 37.4839 51.3343 37.2325 51.3119 36.9797C51.2895 36.7268 51.1675 36.4928 50.9722 36.3279C50.7769 36.163 50.5239 36.0805 50.2676 36.098C50.0113 36.1156 49.7722 36.2318 49.6018 36.4217C48.6618 37.5674 47.8211 38.7893 47.0886 40.0744L46.3533 38.0726C46.2647 37.831 46.0826 37.6342 45.847 37.5253C45.6115 37.4164 45.3418 37.4044 45.0973 37.4919C44.8528 37.5795 44.6535 37.7594 44.5433 37.9921C44.433 38.2248 44.4209 38.4913 44.5095 38.7328L45.8501 42.384C45.4052 43.296 44.9631 44.3024 44.5501 45.3961L43.4958 43.3658C43.4377 43.2514 43.3573 43.1496 43.2592 43.0661C43.161 42.9826 43.0471 42.9192 42.924 42.8794C42.8009 42.8397 42.6711 42.8244 42.542 42.8346C42.4129 42.8447 42.2871 42.88 42.1719 42.9384C42.0567 42.9968 41.9543 43.0772 41.8707 43.1749C41.7872 43.2726 41.724 43.3857 41.6849 43.5077C41.6458 43.6296 41.6316 43.758 41.643 43.8855C41.6544 44.0129 41.6913 44.1369 41.7515 44.2501L43.6961 47.9934C42.8051 51.0249 42.3503 54.1651 42.3451 57.3218C42.3451 57.5787 42.4483 57.825 42.6322 58.0067C42.816 58.1883 43.0654 58.2903 43.3254 58.2903C43.5854 58.2903 43.8347 58.1883 44.0186 58.0067C44.2024 57.825 44.3057 57.5787 44.3057 57.3218C44.3134 54.3904 44.7362 51.4744 45.5617 48.6587L50.5783 47.452C50.7034 47.4219 50.8212 47.3678 50.9252 47.2928C51.0291 47.2177 51.1171 47.1232 51.184 47.0145C51.2509 46.9059 51.2956 46.7853 51.3153 46.6596C51.3351 46.5339 51.3296 46.4056 51.2992 46.282C51.2688 46.1585 51.214 46.042 51.138 45.9393C51.0621 45.8366 50.9664 45.7498 50.8564 45.6836C50.7464 45.6175 50.6244 45.5734 50.4971 45.5539C50.3699 45.5343 50.2401 45.5398 50.115 45.5698L46.265 46.4958C46.664 45.3971 47.1188 44.319 47.6277 43.2657L52.0182 42.0373C52.2682 41.9671 52.4798 41.8017 52.6065 41.5774C52.7331 41.3532 52.7645 41.0884 52.6937 40.8413Z" fill="#805333"/>
<path d="M17.8247 11.8017H8.02135C7.76135 11.8017 7.512 11.6996 7.32815 11.518C7.1443 11.3364 7.04102 11.09 7.04102 10.8332C7.04102 10.5763 7.1443 10.33 7.32815 10.1484C7.512 9.96672 7.76135 9.86469 8.02135 9.86469H17.8247C18.1424 9.86465 18.4554 9.78831 18.7367 9.64224C19.018 9.49616 19.2591 9.28474 19.4394 9.02616C19.6196 8.76758 19.7335 8.4696 19.7712 8.15789C19.809 7.84617 19.7695 7.53006 19.6561 7.23677C19.5428 6.94348 19.359 6.6818 19.1205 6.47427C18.8821 6.26675 18.5962 6.11959 18.2874 6.04546C17.9786 5.97134 17.6562 5.97248 17.3479 6.04878C17.0397 6.12509 16.7548 6.27427 16.5179 6.48347C16.4229 6.57303 16.3106 6.64282 16.1878 6.68869C16.0649 6.73456 15.934 6.75558 15.8028 6.75051C15.6716 6.74543 15.5427 6.71436 15.4239 6.65914C15.3051 6.60392 15.1987 6.52568 15.111 6.42906C15.0234 6.33243 14.9563 6.2194 14.9137 6.09667C14.8712 5.97394 14.854 5.84401 14.8632 5.71459C14.8725 5.58518 14.908 5.45892 14.9675 5.3433C15.0271 5.22769 15.1096 5.12509 15.2101 5.04158C15.6838 4.62259 16.2534 4.32367 16.87 4.17057C17.4866 4.01746 18.1317 4.01477 18.7495 4.16271C19.3674 4.31066 19.9396 4.60481 20.4169 5.01982C20.8941 5.43483 21.262 5.95825 21.4889 6.54497C21.7159 7.1317 21.795 7.76414 21.7195 8.38779C21.644 9.01145 21.4161 9.60761 21.0555 10.1249C20.6949 10.6422 20.2124 11.0651 19.6496 11.3572C19.0867 11.6494 18.4604 11.8019 17.8247 11.8017Z" fill="#B0D3F0"/>
<path d="M17.8245 15.6756H3.11949C2.85949 15.6756 2.61014 15.5736 2.42629 15.392C2.24244 15.2103 2.13916 14.964 2.13916 14.7071C2.13916 14.4503 2.24244 14.2039 2.42629 14.0223C2.61014 13.8407 2.85949 13.7386 3.11949 13.7386H17.8245C18.7943 13.7386 19.749 13.5016 20.6037 13.0488C21.4584 12.596 22.1865 11.9415 22.7232 11.1435C23.2599 10.3454 23.5885 9.42871 23.6799 8.47486C23.7712 7.52101 23.6224 6.55965 23.2466 5.67637C22.8709 4.79309 22.28 4.01529 21.5264 3.41223C20.7728 2.80916 19.8799 2.39953 18.9273 2.21982C17.9747 2.04011 16.9919 2.09588 16.0664 2.38217C15.1409 2.66847 14.3014 3.1764 13.6227 3.86075C13.5336 3.95567 13.4261 4.03198 13.3067 4.08517C13.1872 4.13837 13.0582 4.16737 12.9272 4.17046C12.7962 4.17355 12.666 4.15068 12.5441 4.10318C12.4222 4.05568 12.3112 3.98452 12.2176 3.89392C12.124 3.80331 12.0498 3.6951 11.9993 3.57566C11.9488 3.45623 11.923 3.328 11.9235 3.19856C11.924 3.06912 11.9507 2.94109 12.0022 2.82204C12.0536 2.70299 12.1287 2.59533 12.2229 2.50543C13.1279 1.59287 14.2473 0.915536 15.4813 0.533752C16.7154 0.151967 18.0259 0.0775754 19.2961 0.3172C20.5663 0.556825 21.7568 1.10303 22.7616 1.90718C23.7665 2.71134 24.5544 3.74848 25.0554 4.92628C25.5563 6.10408 25.7547 7.38597 25.6328 8.65783C25.5109 9.92969 25.0726 11.152 24.3569 12.2161C23.6411 13.2801 22.6702 14.1527 21.5305 14.7563C20.3907 15.3599 19.1176 15.6757 17.8245 15.6756Z" fill="#90BAE1"/>
<path d="M9.00218 30.203C8.03713 30.2038 7.1059 29.8519 6.38764 29.2152C6.28811 29.1314 6.20656 29.0288 6.14778 28.9133C6.08901 28.7979 6.0542 28.6721 6.04541 28.5432C6.03662 28.4143 6.05402 28.2849 6.09659 28.1628C6.13917 28.0406 6.20605 27.9281 6.2933 27.8319C6.38055 27.7356 6.48641 27.6576 6.60464 27.6024C6.72288 27.5472 6.85109 27.516 6.98175 27.5104C7.1124 27.5049 7.24285 27.5253 7.36541 27.5704C7.48797 27.6154 7.60017 27.6843 7.6954 27.7728C7.9323 27.9821 8.21715 28.1314 8.52543 28.2078C8.83371 28.2842 9.15617 28.2855 9.46503 28.2114C9.77389 28.1373 10.0599 27.9902 10.2984 27.7826C10.5369 27.5751 10.7208 27.3134 10.8342 27.0201C10.9476 26.7267 10.9871 26.4106 10.9493 26.0988C10.9115 25.787 10.7976 25.489 10.6173 25.2304C10.437 24.9718 10.1958 24.7604 9.91446 24.6143C9.6331 24.4683 9.32001 24.392 9.00218 24.3921H1.15953C0.899531 24.3921 0.65018 24.29 0.466332 24.1084C0.282484 23.9268 0.179199 23.6804 0.179199 23.4236C0.179199 23.1667 0.282484 22.9204 0.466332 22.7387C0.65018 22.5571 0.899531 22.4551 1.15953 22.4551H9.00218C10.0422 22.4551 11.0396 22.8632 11.775 23.5897C12.5104 24.3163 12.9235 25.3016 12.9235 26.3291C12.9235 27.3565 12.5104 28.3419 11.775 29.0684C11.0396 29.7949 10.0422 30.203 9.00218 30.203Z" fill="#B0D3F0"/>
<path d="M9.00218 34.077C7.95835 34.0802 6.92451 33.876 5.9622 33.4764C4.99989 33.0769 4.12877 32.4902 3.40067 31.7512C3.3064 31.6613 3.23133 31.5537 3.17989 31.4346C3.12846 31.3156 3.1017 31.1876 3.1012 31.0581C3.1007 30.9287 3.12647 30.8004 3.17699 30.681C3.22751 30.5616 3.30175 30.4534 3.39532 30.3628C3.4889 30.2722 3.59991 30.201 3.72179 30.1535C3.84367 30.106 3.97396 30.0831 4.10494 30.0862C4.23593 30.0893 4.36496 30.1183 4.48441 30.1715C4.60386 30.2247 4.7113 30.301 4.80038 30.3959C5.47913 31.0803 6.31862 31.5882 7.24412 31.8745C8.16963 32.1608 9.15243 32.2166 10.105 32.0369C11.0576 31.8571 11.9505 31.4475 12.7041 30.8445C13.4577 30.2414 14.0486 29.4636 14.4244 28.5803C14.8001 27.697 14.9489 26.7357 14.8576 25.7818C14.7663 24.828 14.4376 23.9112 13.9009 23.1132C13.3642 22.3152 12.6361 21.6607 11.7814 21.2079C10.9267 20.7551 9.972 20.5181 9.00218 20.518H1.15953C0.899531 20.518 0.65018 20.416 0.466332 20.2344C0.282484 20.0528 0.179199 19.8064 0.179199 19.5496C0.179199 19.2927 0.282484 19.0463 0.466332 18.8647C0.65018 18.6831 0.899531 18.5811 1.15953 18.5811H9.00218C11.0822 18.5811 13.077 19.3974 14.5478 20.8504C16.0186 22.3034 16.8448 24.2741 16.8448 26.329C16.8448 28.3839 16.0186 30.3546 14.5478 31.8077C13.077 33.2607 11.0822 34.077 9.00218 34.077Z" fill="#90BAE1"/>
<path d="M4.10262 11.8012H2.14195C1.88195 11.8012 1.6326 11.6992 1.44875 11.5176C1.26491 11.336 1.16162 11.0896 1.16162 10.8328C1.16162 10.5759 1.26491 10.3296 1.44875 10.1479C1.6326 9.9663 1.88195 9.86426 2.14195 9.86426H4.10262C4.36262 9.86426 4.61197 9.9663 4.79582 10.1479C4.97966 10.3296 5.08295 10.5759 5.08295 10.8328C5.08295 11.0896 4.97966 11.336 4.79582 11.5176C4.61197 11.6992 4.36262 11.8012 4.10262 11.8012Z" fill="#B0D3F0"/>
<path d="M35.471 6.95945H31.5497C31.2897 6.95945 31.0403 6.85741 30.8565 6.67579C30.6726 6.49416 30.5693 6.24782 30.5693 5.99096C30.5693 5.7341 30.6726 5.48776 30.8565 5.30613C31.0403 5.1245 31.2897 5.02246 31.5497 5.02246H35.471C35.731 5.02246 35.9803 5.1245 36.1642 5.30613C36.348 5.48776 36.4513 5.7341 36.4513 5.99096C36.4513 6.24782 36.348 6.49416 36.1642 6.67579C35.9803 6.85741 35.731 6.95945 35.471 6.95945Z" fill="#B0D3F0"/>
<path d="M45.2759 6.95945H39.3939C39.1339 6.95945 38.8846 6.85741 38.7007 6.67579C38.5169 6.49416 38.4136 6.24782 38.4136 5.99096C38.4136 5.7341 38.5169 5.48776 38.7007 5.30613C38.8846 5.1245 39.1339 5.02246 39.3939 5.02246H45.2759C45.5359 5.02246 45.7852 5.1245 45.9691 5.30613C46.1529 5.48776 46.2562 5.7341 46.2562 5.99096C46.2562 6.24782 46.1529 6.49416 45.9691 6.67579C45.7852 6.85741 45.5359 6.95945 45.2759 6.95945Z" fill="#B0D3F0"/>
<path d="M45.275 10.8335H29.5897C29.3297 10.8335 29.0804 10.7314 28.8965 10.5498C28.7127 10.3682 28.6094 10.1218 28.6094 9.86498C28.6094 9.60812 28.7127 9.36178 28.8965 9.18015C29.0804 8.99852 29.3297 8.89648 29.5897 8.89648H45.275C45.535 8.89648 45.7844 8.99852 45.9682 9.18015C46.1521 9.36178 46.2553 9.60812 46.2553 9.86498C46.2553 10.1218 46.1521 10.3682 45.9682 10.5498C45.7844 10.7314 45.535 10.8335 45.275 10.8335Z" fill="#90BAE1"/>
<path d="M5.08015 51.5101C5.07532 51.0842 5.1664 50.6625 5.34681 50.2756C5.52722 49.8887 5.79244 49.5463 6.12328 49.2731C6.45411 49 6.84229 48.8029 7.25971 48.6961C7.67714 48.5894 8.11336 48.5757 8.5368 48.656C8.99693 47.8134 9.75832 47.1703 10.6724 46.8523C11.5865 46.5344 12.5878 46.5643 13.4808 46.9362C14.3738 47.3081 15.0945 47.9954 15.5023 48.8639C15.9101 49.7324 15.9757 50.7199 15.6864 51.6336C16.3689 51.8236 16.9587 52.2513 17.3466 52.8378C17.7345 53.4242 17.8943 54.1296 17.7963 54.8234C17.6984 55.5172 17.3493 56.1525 16.8138 56.6117C16.2783 57.0709 15.5926 57.3229 14.8835 57.3211H5.08015C4.30015 57.3211 3.5521 57.015 3.00056 56.4701C2.44901 55.9252 2.13916 55.1862 2.13916 54.4156C2.13916 53.645 2.44901 52.906 3.00056 52.3611C3.5521 51.8163 4.30015 51.5101 5.08015 51.5101Z" fill="#4FBA6F"/>
<path d="M55.6463 10.1034C54.479 11.0523 52.9972 11.5402 51.4871 11.4731C51.4192 9.98119 51.9131 8.51734 52.8735 7.36413C54.0409 6.41528 55.5226 5.9273 57.0328 5.99438C57.1007 7.48629 56.6067 8.95017 55.6463 10.1034Z" fill="#24AE5F"/>
<path d="M53.0241 21.4845C51.5579 21.8484 50.0072 21.6628 48.6714 20.9634C49.2564 19.5864 50.3371 18.4723 51.7048 17.8363C53.1711 17.4724 54.7217 17.6581 56.0575 18.3576C55.4724 19.7345 54.3917 20.8485 53.0241 21.4845Z" fill="#24AE5F"/>
<path d="M58.0188 58.2886H1.15953C0.899531 58.2886 0.65018 58.1865 0.466332 58.0049C0.282484 57.8233 0.179199 57.5769 0.179199 57.3201C0.179199 57.0632 0.282484 56.8169 0.466332 56.6352C0.65018 56.4536 0.899531 56.3516 1.15953 56.3516H58.0188C58.2788 56.3516 58.5281 56.4536 58.712 56.6352C58.8958 56.8169 58.9991 57.0632 58.9991 57.3201C58.9991 57.5769 58.8958 57.8233 58.712 58.0049C58.5281 58.1865 58.2788 58.2886 58.0188 58.2886Z" fill="#A56A43"/>
</svg>
