<svg width="68" height="58" viewBox="0 0 68 58" fill="none" xmlns="http://www.w3.org/2000/svg">
<path d="M41.7188 30.6278C41.7188 29.5799 40.7182 28.7305 39.484 28.7305L28.3037 28.7314C27.0684 28.7314 26.0679 29.5809 26.0679 30.6297V55.3069C26.0679 56.3557 27.0684 57.2052 28.3037 57.2052H39.4829C40.7182 57.2052 41.7188 56.3557 41.7188 55.3069V30.6278Z" fill="#8D9395"/>
<path d="M41.7217 55.3069V30.6278C41.7217 29.5799 40.7212 28.7305 39.487 28.7305L28.3066 28.7314V51.0871C28.3066 53.4182 30.5324 55.3079 33.278 55.3079L41.7217 55.3069Z" fill="#A4A9AA"/>
<path d="M58.4873 15.4438C63.4266 15.4438 67.4307 12.0443 67.4307 7.85082C67.4307 3.65732 63.4266 0.257812 58.4873 0.257812C53.548 0.257812 49.5439 3.65732 49.5439 7.85082C49.5439 12.0443 53.548 15.4438 58.4873 15.4438Z" fill="#8D9395"/>
<path d="M58.4902 0.257812C56.592 0.257812 54.8346 0.763696 53.3869 1.61981C52.3786 2.84893 51.7827 4.34095 51.7827 5.95257C51.7827 10.1458 55.7871 13.5456 60.7261 13.5456C62.6243 13.5456 64.3817 13.0397 65.8294 12.1836C66.8378 10.9545 67.4336 9.46243 67.4336 7.85082C67.4336 3.65758 63.4292 0.257812 58.4902 0.257812Z" fill="#A4A9AA"/>
<path d="M43.958 51.5102H23.8355C20.1307 51.5102 17.1279 48.9609 17.1279 45.8155V42.019C17.1279 38.8736 20.1307 36.3242 23.8355 36.3242H43.958C47.6628 36.3242 50.6656 38.8736 50.6656 42.019V45.8155C50.6656 48.9609 47.6628 51.5102 43.958 51.5102Z" fill="#4293DD"/>
<path d="M43.958 51.5102H23.8355C20.1307 51.5102 17.1279 48.9609 17.1279 45.8155V42.019C17.1279 38.8736 20.1307 36.3242 23.8355 36.3242H43.958C47.6628 36.3242 50.6656 38.8736 50.6656 42.019V45.8155C50.6656 48.9609 47.6628 51.5102 43.958 51.5102Z" fill="#4293DD"/>
<path d="M43.9561 36.3242H23.8335C22.5546 36.3242 21.364 36.6336 20.3467 37.1604C19.7263 38.0241 19.3618 39.0349 19.3618 40.1207V43.9172C19.3618 47.0626 22.3646 49.612 26.0693 49.612H46.1919C47.4708 49.612 48.6614 49.3026 49.6787 48.7758C50.2992 47.9121 50.6636 46.9013 50.6636 45.8155V42.019C50.6636 38.8736 47.6609 36.3242 43.9561 36.3242Z" fill="#53A3EC"/>
<path d="M30.2105 14.8911C30.4027 15.229 30.8287 15.4501 31.2691 15.4197C35.8694 15.1056 39.4859 11.8368 39.4859 7.8514C39.4859 3.86412 35.8671 0.595337 31.2658 0.283074C30.8208 0.252702 30.405 0.47195 30.2105 0.813635C29.4022 2.22973 28.3066 4.68797 28.3066 7.8514C28.3066 9.20296 28.5067 11.9061 30.2105 14.8911Z" fill="#8D9395"/>
<path d="M39.4834 7.85094C39.4834 3.89973 35.9262 0.657515 31.3841 0.295898C30.9145 1.5924 30.54 3.18504 30.54 5.02539C30.54 6.37695 30.7401 9.08006 32.4439 12.0651C32.6361 12.4029 33.0621 12.6241 33.5025 12.5937C35.583 12.4513 37.4577 11.7006 38.892 10.5569C39.271 9.71597 39.4834 8.80481 39.4834 7.85094Z" fill="#A4A9AA"/>
<path d="M9.30128 15.4438C14.2406 15.4438 18.2447 12.0443 18.2447 7.85082C18.2447 3.65732 14.2406 0.257812 9.30128 0.257812C4.36199 0.257812 0.35791 3.65732 0.35791 7.85082C0.35791 12.0443 4.36199 15.4438 9.30128 15.4438Z" fill="#8D9395"/>
<path d="M9.29933 0.257812C7.4011 0.257812 5.64372 0.763696 4.19601 1.61981C3.18765 2.84893 2.5918 4.34095 2.5918 5.95257C2.5918 10.1458 6.59619 13.5456 11.5352 13.5456C13.4334 13.5456 15.1908 13.0397 16.6385 12.1836C17.6468 10.9545 18.2427 9.46243 18.2427 7.85082C18.2427 3.65758 14.2383 0.257812 9.29933 0.257812Z" fill="#A4A9AA"/>
<path d="M28.3045 7.8504C28.3045 7.18222 28.3615 6.55389 28.4465 5.95215H9.40266C8.11034 5.95215 7.06396 6.80162 7.06396 7.8504C7.06396 8.89918 8.11146 9.74865 9.40266 9.74865H28.4409C28.3335 8.98081 28.3045 8.32781 28.3045 7.8504Z" fill="#B9BBBC"/>
<path d="M49.8384 9.74865C49.6539 9.14121 49.5455 8.50719 49.5455 7.8504C49.5455 7.1936 49.6539 6.55959 49.8384 5.95215H39.1924C39.3768 6.55959 39.4842 7.1936 39.4842 7.8504C39.4842 8.50719 39.3768 9.14121 39.1924 9.74865H49.8384Z" fill="#B9BBBC"/>
<path d="M28.3074 7.8504C28.3074 7.18222 28.3644 6.55389 28.4494 5.95215H9.40558C9.37093 5.95215 9.33739 5.95974 9.30273 5.96069C9.30832 7.00473 10.3536 7.8504 11.6414 7.8504H28.3074Z" fill="#D4D4D5"/>
<path d="M49.5474 7.8504C49.5474 7.1936 49.6558 6.55959 49.8403 5.95215H40.604C40.604 7.00093 41.6057 7.8504 42.8398 7.8504H49.5474Z" fill="#D4D4D5"/>
<path d="M31.6597 15.3764V24.935H36.1314V13.7686C34.8737 14.6256 33.341 15.1979 31.6597 15.3764Z" fill="#B9BBBC"/>
<path d="M33.8936 14.8857V21.1385C33.8936 22.1873 34.8941 23.0368 36.1294 23.0368V13.7686C35.4564 14.2279 34.7063 14.6066 33.8936 14.8857Z" fill="#D4D4D5"/>
<path d="M43.9585 47.7188H23.8359C22.6006 47.7188 21.6001 46.8694 21.6001 45.8206V42.0193C21.6001 40.9706 22.6006 40.1211 23.8359 40.1211H43.9585C45.1938 40.1211 46.1944 40.9706 46.1944 42.0193V45.8206C46.1944 46.8684 45.1938 47.7188 43.9585 47.7188Z" fill="#E9EDF5"/>
<path d="M43.9566 40.1211H23.834V43.9223C23.834 44.9711 24.8345 45.8206 26.0698 45.8206H46.1924V42.0193C46.1924 40.9706 45.1919 40.1211 43.9566 40.1211Z" fill="#F2F6FC"/>
<path d="M35.0164 44.867H32.7805C32.1634 44.867 31.6626 44.4427 31.6626 43.9179C31.6626 43.393 32.1634 42.9688 32.7805 42.9688H35.0164C35.6335 42.9688 36.1343 43.393 36.1343 43.9179C36.1343 44.4427 35.6335 44.867 35.0164 44.867Z" fill="#EA5B70"/>
<path d="M41.721 44.867H39.4851C38.868 44.867 38.3672 44.4427 38.3672 43.9179C38.3672 43.393 38.868 42.9688 39.4851 42.9688H41.721C42.338 42.9688 42.8389 43.393 42.8389 43.9179C42.8389 44.4427 42.338 44.867 41.721 44.867Z" fill="#EA5B70"/>
<path d="M28.3044 44.867H26.0686C25.4515 44.867 24.9507 44.4427 24.9507 43.9179C24.9507 43.393 25.4515 42.9688 26.0686 42.9688H28.3044C28.9215 42.9688 29.4224 43.393 29.4224 43.9179C29.4224 44.4427 28.9215 44.867 28.3044 44.867Z" fill="#EA5B70"/>
<path d="M29.4258 28.7311V25.8837C29.4258 25.3598 29.9266 24.9346 30.5437 24.9346H37.2512C37.8683 24.9346 38.3692 25.3598 38.3692 25.8837V28.7311H29.4258Z" fill="#B9BBBC"/>
<path d="M38.3655 25.8837C38.3655 25.3598 37.8647 24.9346 37.2476 24.9346H30.54V26.2994C30.54 27.1185 31.3226 27.7819 32.2874 27.7819H38.3655V25.8837Z" fill="#D4D4D5"/>
<path d="M58.4907 9.74865C59.7255 9.74865 60.7266 8.89877 60.7266 7.8504C60.7266 6.80202 59.7255 5.95215 58.4907 5.95215C57.2559 5.95215 56.2549 6.80202 56.2549 7.8504C56.2549 8.89877 57.2559 9.74865 58.4907 9.74865Z" fill="white"/>
</svg>
