<svg width="390" height="439" viewBox="0 0 390 439" fill="none" xmlns="http://www.w3.org/2000/svg">
<path d="M242.519 397.303C237.662 394.777 234.073 390.961 226.795 380.583C223.047 375.24 219.946 371.737 218.375 371.073C214.979 369.637 212.884 367.113 210.172 361.19C208.256 357.001 207.386 356.03 204.933 355.339C203.316 354.883 201.233 354.713 200.306 354.961C198.908 355.334 198.52 354.833 198.04 352.03C197.722 350.171 196.296 346.498 194.871 343.868C192.499 339.488 192.317 338.565 192.713 332.892C192.951 329.485 194.129 323.536 195.331 319.672C196.84 314.821 197.903 308.3 198.765 298.598C200.176 282.718 199.629 275.393 196.424 267.27L194.457 262.285L206.291 262.001C216.553 261.755 218.368 261.492 219.964 260.016C221.568 258.533 222.905 258.345 230.385 258.55C238.52 258.772 239.179 258.653 243.045 256.258C245.289 254.868 248.76 253.243 250.758 252.647C253.138 251.937 255.176 250.514 256.662 248.527C257.91 246.857 260.921 244.318 263.353 242.886C265.785 241.454 268.384 239.178 269.129 237.829C269.966 236.312 272.932 234.063 276.897 231.938C281.269 229.595 283.943 227.499 285.301 225.352C287.598 221.721 300.305 211.593 300.771 213.022C301.245 214.473 299.413 226.877 296.626 241.083C294.777 250.507 293.886 258.491 293.197 271.816C291.965 295.623 292.022 299.348 293.991 324.026C294.913 335.597 295.578 345.156 295.467 345.269C295.356 345.382 288.499 343.729 280.229 341.596C263.428 337.261 260.508 336.951 258.443 339.279C256.435 341.544 256.673 344.352 259.154 347.671C262.337 351.93 263.903 357.371 263.903 364.17C263.903 369.88 264.079 370.435 266.788 373.282C269.464 376.093 269.646 376.648 269.301 380.921C269.098 383.456 268.36 387.635 267.663 390.209C266.497 394.519 266.078 395.032 262.353 396.717C259.973 397.795 255.833 398.692 252.287 398.899C247.318 399.189 245.609 398.91 242.519 397.303Z" fill="#E9E9E9"/>
<path d="M161.695 262.023C159.194 261.141 156.29 259.619 155.241 258.64C154.193 257.661 152.474 256.594 151.422 256.269C149.249 255.596 142.819 258.179 140.968 260.467C139.277 262.557 137.214 262.291 131.235 259.211C126.365 256.702 125.364 256.509 118.137 256.684C113.834 256.788 109.828 256.824 109.237 256.766C107.777 256.62 107.885 254.285 109.588 249.187C111.261 244.173 110.593 240.513 106.347 231.432L103.769 225.92L106.18 223.714C107.506 222.501 109.655 221.268 110.954 220.974C112.254 220.679 114.698 218.878 116.386 216.971C119.02 213.995 119.372 213.107 118.867 210.714C117.296 203.277 116.457 201.945 111.885 199.635C109.437 198.398 107.209 197.155 106.935 196.872C106.286 196.203 109.154 188.037 111.973 182.53C113.189 180.154 114.184 177.157 114.184 175.871C114.184 174.584 114.443 173.267 114.76 172.944C115.705 171.98 118.438 175.069 120.163 179.049C122.141 183.611 124.652 185.025 133.114 186.345C136.996 186.95 142.208 188.611 146.195 190.512L152.823 193.673L163.175 189.541C168.869 187.269 173.751 185.042 174.023 184.593C174.295 184.144 176.212 183.776 178.282 183.776C184.463 183.776 186.103 182.698 187.785 177.53C188.983 173.848 189.175 171.257 188.744 164.565C188.015 153.23 187.851 153.096 177.905 155.712C169.364 157.96 165.675 157.566 165.074 154.342C164.896 153.386 163.967 151.478 163.011 150.103L161.272 147.602L168.919 139.83C180.061 128.506 184.716 118.972 180.558 115.993C179.678 115.362 177.147 112.201 174.934 108.969C169.997 101.758 166.441 98.6006 163.259 98.6006C161.738 98.6006 158.858 100.088 155.516 102.599C148.437 107.917 146.991 108.391 140.609 107.482C135.089 106.695 132.943 106.811 123.957 108.379C119.799 109.104 118.239 109.049 116.643 108.122C115.527 107.473 112.679 106.542 110.312 106.052L106.01 105.161L104.874 97.2708C104.249 92.9312 102.793 86.1483 101.638 82.1978C99.9807 76.5274 99.7342 74.5773 100.467 72.9367C101.212 71.2669 100.96 69.6808 99.185 64.8677C96.2122 56.808 96.2445 51.6189 99.2868 48.3775C101.923 45.5699 106.677 45.0237 109.502 47.2039C111.633 48.8489 115.915 48.8955 119.532 47.3132C121.086 46.6334 123.93 45.6522 125.851 45.1327C130.374 43.9098 132.989 40.9873 134.303 35.6879C135.203 32.0566 135.973 31.0135 139.509 28.6363C141.791 27.1019 144.902 24.616 146.423 23.1121L149.187 20.3777L151.266 23.1289C154.305 27.151 158.3 27.056 164.33 22.8181C168.714 19.7362 169.298 19.5719 175.855 19.5719C182.92 19.5719 187.53 18.519 190.009 16.3393C191.249 15.2486 192.594 16.3503 202.055 26.2124C212.93 37.548 218.357 41.3889 227.401 44.1525C230.504 45.1007 231.302 45.0184 234.285 43.4426C236.14 42.4622 239.941 39.674 242.731 37.2466L247.805 32.8331L249.467 34.989C252.038 38.325 254.322 39.1588 260.422 38.988C264.671 38.8691 267.857 39.4553 273.401 41.3763C287.471 46.2518 289.383 48.3402 288.622 58.0068C288.143 64.108 289.099 69.3269 293.164 82.8009L295.683 91.1489L293.998 100.683C293.072 105.927 292.538 111.13 292.812 112.245C293.086 113.36 292.864 118.586 292.318 123.858C291.411 132.618 291.476 134.043 293.074 140.39L294.823 147.335L290.333 151.743C287.864 154.168 283.585 158.819 280.826 162.079C275.416 168.472 272.782 170.162 263.472 173.218C255.158 175.946 250.614 178.777 249.01 182.226C248.268 183.822 247.392 188.281 247.062 192.135C246.733 195.989 246.113 199.836 245.685 200.684C243.578 204.856 226.311 210.755 219.332 209.687C215.047 209.031 214.158 207.633 216.101 204.606C218.027 201.607 216.993 199.747 212.832 198.722C210.869 198.239 206.464 197.049 203.043 196.078C192.868 193.191 190.079 193.561 184.17 198.58C181.408 200.927 177.944 203.477 176.472 204.246C175.001 205.016 173.287 206.903 172.663 208.439C171.644 210.951 171.697 211.36 173.187 212.494C174.797 213.718 176.44 213.676 184.452 212.207C186.775 211.781 187.398 212.075 188.694 214.207C191.157 218.258 192.473 218.9 198.306 218.9H203.799L201.785 222.627C199.463 226.922 197.512 228.063 189.597 229.756C182.49 231.277 181.01 232.425 181.582 235.974C181.819 237.45 182.292 240.342 182.632 242.402C183.179 245.717 182.905 246.722 180.241 251.183C178.586 253.953 176.972 257.332 176.654 258.692C176.252 260.406 175.168 261.551 173.122 262.424C169.304 264.052 167.244 263.979 161.695 262.023Z" fill="#E9E9E9"/>
<line x1="189.64" y1="61.1543" x2="189.64" y2="93.4073" stroke="#FF5858" stroke-width="2.55418"/>
<rect x="163.079" y="16" width="50.5676" height="51.6049" rx="25.2838" fill="#FF5858"/>
<path d="M178.265 48.4927C177.367 48.4927 176.566 48.3385 175.863 48.0301C175.165 47.7218 174.609 47.2932 174.197 46.7444C173.788 46.1911 173.566 45.5494 173.53 44.8193H175.244C175.28 45.2682 175.435 45.656 175.707 45.9825C175.979 46.3045 176.335 46.554 176.775 46.7308C177.215 46.9077 177.702 46.9961 178.237 46.9961C178.836 46.9961 179.367 46.8918 179.829 46.6832C180.292 46.4746 180.655 46.1843 180.918 45.8125C181.181 45.4406 181.312 45.0097 181.312 44.52C181.312 44.0075 181.185 43.5562 180.931 43.1662C180.677 42.7717 180.305 42.4633 179.816 42.2411C179.326 42.0188 178.727 41.9077 178.02 41.9077H176.904V40.4111H178.02C178.573 40.4111 179.058 40.3114 179.475 40.1118C179.897 39.9123 180.226 39.6311 180.462 39.2683C180.702 38.9055 180.822 38.4792 180.822 37.9894C180.822 37.5177 180.718 37.1073 180.509 36.7581C180.301 36.4089 180.006 36.1368 179.625 35.9418C179.249 35.7468 178.804 35.6493 178.292 35.6493C177.811 35.6493 177.358 35.7377 176.931 35.9146C176.509 36.0869 176.165 36.3386 175.897 36.6697C175.63 36.9962 175.485 37.3907 175.462 37.8533H173.829C173.856 37.1232 174.076 36.4837 174.489 35.935C174.902 35.3817 175.441 34.9508 176.108 34.6425C176.779 34.3341 177.516 34.1799 178.319 34.1799C179.181 34.1799 179.92 34.3545 180.537 34.7037C181.153 35.0484 181.627 35.5041 181.958 36.071C182.289 36.6379 182.455 37.2502 182.455 37.9077C182.455 38.6923 182.249 39.3613 181.836 39.9145C181.428 40.4678 180.872 40.851 180.169 41.0642V41.173C181.049 41.3182 181.736 41.6923 182.231 42.2955C182.725 42.8941 182.972 43.6356 182.972 44.52C182.972 45.2773 182.766 45.9576 182.353 46.5608C181.945 47.1594 181.387 47.631 180.68 47.9757C179.972 48.3204 179.167 48.4927 178.265 48.4927ZM185.754 48.3022V47.0778L190.353 42.0438C190.893 41.4542 191.337 40.9417 191.686 40.5064C192.035 40.0665 192.294 39.6538 192.462 39.2683C192.634 38.8783 192.72 38.4701 192.72 38.0438C192.72 37.554 192.602 37.13 192.367 36.7717C192.135 36.4134 191.818 36.1368 191.414 35.9418C191.011 35.7468 190.557 35.6493 190.054 35.6493C189.518 35.6493 189.051 35.7604 188.652 35.9826C188.258 36.2003 187.952 36.5064 187.734 36.9009C187.521 37.2955 187.414 37.7581 187.414 38.2887H185.809C185.809 37.4724 185.997 36.7558 186.373 36.139C186.75 35.5223 187.262 35.0415 187.911 34.6969C188.564 34.3522 189.296 34.1799 190.108 34.1799C190.924 34.1799 191.648 34.3522 192.278 34.6969C192.908 35.0415 193.403 35.5064 193.761 36.0914C194.119 36.6765 194.298 37.3273 194.298 38.0438C194.298 38.5563 194.206 39.0574 194.02 39.5472C193.838 40.0325 193.521 40.5744 193.067 41.173C192.618 41.7671 191.995 42.4928 191.196 43.3499L188.067 46.6968V46.8057H194.543V48.3022H185.754ZM200.264 40.52C199.688 40.52 199.162 40.3794 198.686 40.0982C198.215 39.817 197.838 39.4406 197.557 38.969C197.276 38.4928 197.135 37.9667 197.135 37.3907C197.135 36.8148 197.276 36.291 197.557 35.8193C197.838 35.3431 198.215 34.9645 198.686 34.6833C199.162 34.4021 199.688 34.2615 200.264 34.2615C200.84 34.2615 201.364 34.4021 201.836 34.6833C202.312 34.9645 202.691 35.3431 202.972 35.8193C203.253 36.291 203.394 36.8148 203.394 37.3907C203.394 37.9667 203.253 38.4928 202.972 38.969C202.691 39.4406 202.312 39.817 201.836 40.0982C201.364 40.3794 200.84 40.52 200.264 40.52ZM200.264 39.1594C200.591 39.1594 200.888 39.0801 201.156 38.9213C201.423 38.7626 201.636 38.5495 201.795 38.2819C201.954 38.0143 202.033 37.7173 202.033 37.3907C202.033 37.0642 201.954 36.7672 201.795 36.4996C201.636 36.232 201.423 36.0189 201.156 35.8601C200.888 35.7014 200.591 35.622 200.264 35.622C199.938 35.622 199.641 35.7014 199.373 35.8601C199.106 36.0189 198.893 36.232 198.734 36.4996C198.575 36.7672 198.496 37.0642 198.496 37.3907C198.496 37.7173 198.575 38.0143 198.734 38.2819C198.893 38.5495 199.106 38.7626 199.373 38.9213C199.641 39.0801 199.938 39.1594 200.264 39.1594Z" fill="#FAFAFA"/>
<line x1="268.743" y1="123.08" x2="268.743" y2="155.333" stroke="#FFAF5E" stroke-width="2.55418"/>
<rect x="242.182" y="77.9258" width="50.5676" height="51.6049" rx="25.2838" fill="#FFAF5E"/>
<path d="M253.287 110.228V109.004L257.885 103.97C258.425 103.38 258.87 102.868 259.219 102.432C259.568 101.992 259.826 101.58 259.994 101.194C260.167 100.804 260.253 100.396 260.253 99.9696C260.253 99.4798 260.135 99.0558 259.899 98.6975C259.668 98.3392 259.35 98.0626 258.947 97.8676C258.543 97.6725 258.09 97.575 257.586 97.575C257.051 97.575 256.584 97.6861 256.185 97.9084C255.79 98.1261 255.484 98.4322 255.266 98.8267C255.053 99.2213 254.947 99.6839 254.947 100.214H253.341C253.341 99.3982 253.529 98.6816 253.906 98.0648C254.282 97.4481 254.795 96.9673 255.443 96.6227C256.096 96.278 256.829 96.1057 257.641 96.1057C258.457 96.1057 259.18 96.278 259.811 96.6227C260.441 96.9673 260.935 97.4322 261.294 98.0172C261.652 98.6022 261.831 99.253 261.831 99.9696C261.831 100.482 261.738 100.983 261.552 101.473C261.371 101.958 261.053 102.5 260.6 103.099C260.151 103.693 259.527 104.419 258.729 105.276L255.6 108.623V108.731H262.076V110.228H253.287ZM265.321 110.228L271.552 97.9016V97.7927H264.368V96.2961H273.294V97.8744L267.089 110.228H265.321ZM278.741 102.446C278.165 102.446 277.639 102.305 277.163 102.024C276.691 101.743 276.314 101.366 276.033 100.895C275.752 100.419 275.612 99.8925 275.612 99.3165C275.612 98.7406 275.752 98.2168 276.033 97.7451C276.314 97.2689 276.691 96.8902 277.163 96.6091C277.639 96.3279 278.165 96.1873 278.741 96.1873C279.317 96.1873 279.841 96.3279 280.312 96.6091C280.788 96.8902 281.167 97.2689 281.448 97.7451C281.729 98.2168 281.87 98.7406 281.87 99.3165C281.87 99.8925 281.729 100.419 281.448 100.895C281.167 101.366 280.788 101.743 280.312 102.024C279.841 102.305 279.317 102.446 278.741 102.446ZM278.741 101.085C279.067 101.085 279.364 101.006 279.632 100.847C279.9 100.688 280.113 100.475 280.271 100.208C280.43 99.9401 280.509 99.6431 280.509 99.3165C280.509 98.99 280.43 98.6929 280.271 98.4254C280.113 98.1578 279.9 97.9446 279.632 97.7859C279.364 97.6272 279.067 97.5478 278.741 97.5478C278.414 97.5478 278.117 97.6272 277.85 97.7859C277.582 97.9446 277.369 98.1578 277.21 98.4254C277.051 98.6929 276.972 98.99 276.972 99.3165C276.972 99.6431 277.051 99.9401 277.21 100.208C277.369 100.475 277.582 100.688 277.85 100.847C278.117 101.006 278.414 101.085 278.741 101.085Z" fill="#FAFAFA"/>
<line x1="247.07" y1="282.318" x2="247.07" y2="314.571" stroke="#74A3FD" stroke-width="2.55418"/>
<rect x="220.509" y="237.164" width="50.5676" height="51.6049" rx="25.2838" fill="#74A3FD"/>
<path d="M237.503 255.534V269.466H235.816V257.303H235.735L232.333 259.562V257.847L235.816 255.534H237.503ZM245.864 269.657C245.066 269.657 244.347 269.498 243.707 269.181C243.068 268.863 242.556 268.428 242.17 267.874C241.785 267.321 241.574 266.691 241.537 265.983H243.17C243.234 266.614 243.519 267.135 244.027 267.548C244.54 267.956 245.152 268.16 245.864 268.16C246.435 268.16 246.943 268.026 247.388 267.759C247.837 267.491 248.188 267.124 248.442 266.657C248.701 266.185 248.83 265.652 248.83 265.058C248.83 264.45 248.696 263.909 248.429 263.432C248.165 262.952 247.803 262.573 247.34 262.296C246.878 262.02 246.349 261.879 245.755 261.875C245.329 261.87 244.891 261.936 244.442 262.072C243.993 262.203 243.624 262.373 243.333 262.582L241.755 262.392L242.599 255.534H249.837V257.031H244.014L243.524 261.14H243.605C243.891 260.913 244.249 260.725 244.68 260.575C245.111 260.426 245.56 260.351 246.027 260.351C246.88 260.351 247.639 260.555 248.306 260.963C248.977 261.367 249.503 261.92 249.884 262.623C250.27 263.326 250.463 264.128 250.463 265.031C250.463 265.92 250.263 266.713 249.864 267.412C249.469 268.106 248.925 268.655 248.231 269.058C247.537 269.457 246.748 269.657 245.864 269.657ZM256.076 261.684C255.5 261.684 254.974 261.543 254.498 261.262C254.027 260.981 253.65 260.605 253.369 260.133C253.088 259.657 252.947 259.131 252.947 258.555C252.947 257.979 253.088 257.455 253.369 256.983C253.65 256.507 254.027 256.129 254.498 255.847C254.974 255.566 255.5 255.426 256.076 255.426C256.652 255.426 257.176 255.566 257.648 255.847C258.124 256.129 258.503 256.507 258.784 256.983C259.065 257.455 259.206 257.979 259.206 258.555C259.206 259.131 259.065 259.657 258.784 260.133C258.503 260.605 258.124 260.981 257.648 261.262C257.176 261.543 256.652 261.684 256.076 261.684ZM256.076 260.324C256.403 260.324 256.7 260.244 256.968 260.085C257.235 259.927 257.448 259.714 257.607 259.446C257.766 259.178 257.845 258.881 257.845 258.555C257.845 258.228 257.766 257.931 257.607 257.664C257.448 257.396 257.235 257.183 256.968 257.024C256.7 256.865 256.403 256.786 256.076 256.786C255.75 256.786 255.453 256.865 255.185 257.024C254.918 257.183 254.705 257.396 254.546 257.664C254.387 257.931 254.308 258.228 254.308 258.555C254.308 258.881 254.387 259.178 254.546 259.446C254.705 259.714 254.918 259.927 255.185 260.085C255.453 260.244 255.75 260.324 256.076 260.324Z" fill="#FAFAFA"/>
<rect x="109.983" y="159.756" width="48.5449" height="49.5407" rx="24.2724" fill="#74FD79"/>
<path d="M126.154 178.152V191.527H124.535V179.85H124.456L121.191 182.018V180.373L124.535 178.152H126.154ZM134.259 177.969C134.807 177.974 135.356 178.078 135.904 178.283C136.453 178.487 136.954 178.827 137.406 179.302C137.859 179.772 138.223 180.414 138.497 181.228C138.771 182.042 138.908 183.063 138.908 184.291C138.908 185.48 138.795 186.535 138.569 187.458C138.347 188.377 138.025 189.152 137.602 189.783C137.184 190.414 136.675 190.893 136.074 191.22C135.478 191.546 134.803 191.71 134.05 191.71C133.301 191.71 132.633 191.562 132.045 191.266C131.461 190.965 130.982 190.549 130.608 190.018C130.238 189.483 130.001 188.862 129.896 188.157H131.49C131.633 188.771 131.919 189.278 132.345 189.679C132.776 190.075 133.344 190.273 134.05 190.273C135.081 190.273 135.896 189.822 136.492 188.921C137.093 188.02 137.393 186.746 137.393 185.101H137.289C137.045 185.466 136.755 185.782 136.42 186.048C136.085 186.313 135.713 186.518 135.304 186.662C134.894 186.805 134.459 186.877 133.997 186.877C133.231 186.877 132.528 186.688 131.888 186.309C131.252 185.926 130.743 185.401 130.36 184.735C129.981 184.065 129.792 183.298 129.792 182.436C129.792 181.618 129.975 180.869 130.34 180.19C130.71 179.506 131.228 178.962 131.895 178.557C132.565 178.152 133.353 177.956 134.259 177.969ZM134.259 179.406C133.71 179.406 133.216 179.543 132.776 179.818C132.341 180.087 131.995 180.453 131.738 180.915C131.485 181.372 131.359 181.879 131.359 182.436C131.359 182.994 131.481 183.501 131.725 183.958C131.973 184.411 132.31 184.772 132.737 185.042C133.168 185.308 133.658 185.44 134.206 185.44C134.62 185.44 135.005 185.36 135.362 185.199C135.719 185.033 136.031 184.809 136.296 184.526C136.566 184.239 136.777 183.914 136.93 183.553C137.082 183.187 137.158 182.806 137.158 182.41C137.158 181.888 137.032 181.398 136.779 180.941C136.531 180.484 136.187 180.114 135.748 179.831C135.312 179.548 134.816 179.406 134.259 179.406ZM144.272 184.056C143.719 184.056 143.214 183.921 142.757 183.651C142.304 183.381 141.942 183.02 141.672 182.567C141.403 182.11 141.268 181.605 141.268 181.052C141.268 180.499 141.403 179.996 141.672 179.543C141.942 179.086 142.304 178.723 142.757 178.453C143.214 178.183 143.719 178.048 144.272 178.048C144.825 178.048 145.327 178.183 145.78 178.453C146.237 178.723 146.601 179.086 146.871 179.543C147.141 179.996 147.276 180.499 147.276 181.052C147.276 181.605 147.141 182.11 146.871 182.567C146.601 183.02 146.237 183.381 145.78 183.651C145.327 183.921 144.825 184.056 144.272 184.056ZM144.272 182.75C144.585 182.75 144.87 182.674 145.127 182.521C145.384 182.369 145.589 182.164 145.741 181.907C145.893 181.65 145.97 181.365 145.97 181.052C145.97 180.738 145.893 180.453 145.741 180.196C145.589 179.939 145.384 179.735 145.127 179.582C144.87 179.43 144.585 179.354 144.272 179.354C143.958 179.354 143.673 179.43 143.416 179.582C143.159 179.735 142.955 179.939 142.802 180.196C142.65 180.453 142.574 180.738 142.574 181.052C142.574 181.365 142.65 181.65 142.802 181.907C142.955 182.164 143.159 182.369 143.416 182.521C143.673 182.674 143.958 182.75 144.272 182.75Z" fill="#FAFAFA"/>
<line x1="135.482" y1="206.201" x2="135.482" y2="237.164" stroke="#74FD79" stroke-width="2.45201"/>
</svg>
