<svg width="176" height="54" viewBox="0 0 176 54" fill="none" xmlns="http://www.w3.org/2000/svg">
<rect x="-0.00244141" y="22.2427" width="175.551" height="14.9469" fill="url(#paint0_linear_732_14830)"/>
<path d="M152.792 11.4807L133.287 11.4807C133.089 11.4811 132.895 11.5111 132.727 11.5676C132.558 11.6242 132.42 11.705 132.328 11.8015C132.237 11.898 132.194 12.0065 132.206 12.1152C132.218 12.224 132.283 12.329 132.395 12.4188L142.148 20.1912C142.552 20.5134 143.525 20.5134 143.93 20.1912L153.683 12.4188C153.796 12.3291 153.862 12.2241 153.874 12.1152C153.887 12.0062 153.845 11.8975 153.753 11.8008C153.661 11.7041 153.523 11.6232 153.354 11.5667C153.184 11.5103 152.99 11.4806 152.792 11.4807Z" fill="#E84258"/>
<path d="M2.23959 51.4354C1.85573 51.4354 1.52876 51.3309 1.2587 51.122C0.988638 50.9114 0.78227 50.6065 0.639595 50.2073C0.49692 49.8065 0.425583 49.3224 0.425583 48.7551C0.425583 48.1912 0.49692 47.7097 0.639595 47.3105C0.783968 46.9097 0.991186 46.6039 1.26125 46.3933C1.53301 46.181 1.85912 46.0749 2.23959 46.0749C2.62006 46.0749 2.94532 46.181 3.21538 46.3933C3.48714 46.6039 3.69436 46.9097 3.83704 47.3105C3.98141 47.7097 4.0536 48.1912 4.0536 48.7551C4.0536 49.3224 3.98226 49.8065 3.83958 50.2073C3.69691 50.6065 3.49054 50.9114 3.22048 51.122C2.95042 51.3309 2.62345 51.4354 2.23959 51.4354ZM2.23959 50.8748C2.62006 50.8748 2.9156 50.6914 3.12621 50.3245C3.33683 49.9576 3.44213 49.4345 3.44213 48.7551C3.44213 48.3033 3.39373 47.9186 3.29691 47.601C3.2018 47.2833 3.06422 47.0413 2.88417 46.8749C2.70583 46.7084 2.49097 46.6252 2.23959 46.6252C1.86252 46.6252 1.56783 46.8112 1.35552 47.1831C1.1432 47.5534 1.03705 48.0774 1.03705 48.7551C1.03705 49.2069 1.0846 49.5908 1.17972 49.9067C1.27484 50.2226 1.41157 50.463 1.58991 50.6277C1.76995 50.7925 1.98651 50.8748 2.23959 50.8748Z" fill="#8A8A8A"/>
<path d="M23.2965 51.364V50.9054L25.0188 49.0201C25.2209 48.7993 25.3873 48.6073 25.5181 48.4443C25.6489 48.2795 25.7457 48.125 25.8086 47.9806C25.8731 47.8345 25.9054 47.6816 25.9054 47.522C25.9054 47.3385 25.8612 47.1797 25.7729 47.0456C25.6863 46.9114 25.5674 46.8078 25.4162 46.7347C25.265 46.6617 25.0952 46.6252 24.9067 46.6252C24.7062 46.6252 24.5313 46.6668 24.3818 46.75C24.2341 46.8315 24.1194 46.9462 24.0379 47.094C23.958 47.2417 23.9181 47.415 23.9181 47.6137H23.3169C23.3169 47.308 23.3873 47.0396 23.5283 46.8086C23.6693 46.5776 23.8612 46.3976 24.1041 46.2685C24.3487 46.1394 24.623 46.0749 24.927 46.0749C25.2328 46.0749 25.5037 46.1394 25.7398 46.2685C25.9759 46.3976 26.161 46.5717 26.2952 46.7908C26.4294 47.0099 26.4965 47.2536 26.4965 47.522C26.4965 47.7139 26.4616 47.9016 26.392 48.085C26.3241 48.2668 26.2052 48.4698 26.0353 48.694C25.8672 48.9165 25.6336 49.1882 25.3347 49.5092L24.1627 50.7627V50.8035H26.5882V51.364H23.2965ZM29.3423 51.4354C28.9585 51.4354 28.6315 51.3309 28.3614 51.122C28.0914 50.9114 27.885 50.6065 27.7423 50.2073C27.5996 49.8065 27.5283 49.3224 27.5283 48.7551C27.5283 48.1912 27.5996 47.7097 27.7423 47.3105C27.8867 46.9097 28.0939 46.6039 28.364 46.3933C28.6357 46.181 28.9618 46.0749 29.3423 46.0749C29.7228 46.0749 30.048 46.181 30.3181 46.3933C30.5899 46.6039 30.7971 46.9097 30.9398 47.3105C31.0841 47.7097 31.1563 48.1912 31.1563 48.7551C31.1563 49.3224 31.085 49.8065 30.9423 50.2073C30.7996 50.6065 30.5933 50.9114 30.3232 51.122C30.0531 51.3309 29.7262 51.4354 29.3423 51.4354ZM29.3423 50.8748C29.7228 50.8748 30.0183 50.6914 30.2289 50.3245C30.4396 49.9576 30.5449 49.4345 30.5449 48.7551C30.5449 48.3033 30.4965 47.9186 30.3996 47.601C30.3045 47.2833 30.1669 47.0413 29.9869 46.8749C29.8086 46.7084 29.5937 46.6252 29.3423 46.6252C28.9652 46.6252 28.6706 46.8112 28.4582 47.1831C28.2459 47.5534 28.1398 48.0774 28.1398 48.7551C28.1398 49.2069 28.1873 49.5908 28.2824 49.9067C28.3776 50.2226 28.5143 50.463 28.6926 50.6277C28.8727 50.7925 29.0892 50.8748 29.3423 50.8748ZM33.8264 51.4354C33.4425 51.4354 33.1156 51.3309 32.8455 51.122C32.5754 50.9114 32.3691 50.6065 32.2264 50.2073C32.0837 49.8065 32.0124 49.3224 32.0124 48.7551C32.0124 48.1912 32.0837 47.7097 32.2264 47.3105C32.3708 46.9097 32.578 46.6039 32.848 46.3933C33.1198 46.181 33.4459 46.0749 33.8264 46.0749C34.2068 46.0749 34.5321 46.181 34.8022 46.3933C35.0739 46.6039 35.2811 46.9097 35.4238 47.3105C35.5682 47.7097 35.6404 48.1912 35.6404 48.7551C35.6404 49.3224 35.569 49.8065 35.4264 50.2073C35.2837 50.6065 35.0773 50.9114 34.8073 51.122C34.5372 51.3309 34.2102 51.4354 33.8264 51.4354ZM33.8264 50.8748C34.2068 50.8748 34.5024 50.6914 34.713 50.3245C34.9236 49.9576 35.0289 49.4345 35.0289 48.7551C35.0289 48.3033 34.9805 47.9186 34.8837 47.601C34.7886 47.2833 34.651 47.0413 34.471 46.8749C34.2926 46.7084 34.0778 46.6252 33.8264 46.6252C33.4493 46.6252 33.1546 46.8112 32.9423 47.1831C32.73 47.5534 32.6238 48.0774 32.6238 48.7551C32.6238 49.2069 32.6714 49.5908 32.7665 49.9067C32.8616 50.2226 32.9984 50.463 33.1767 50.6277C33.3567 50.7925 33.5733 50.8748 33.8264 50.8748Z" fill="#8A8A8A"/>
<path d="M56.765 50.294V49.7742L59.058 46.1462H59.4351V46.9513H59.1803L57.4478 49.6927V49.7334H60.5357V50.294H56.765ZM59.221 51.364V50.136V49.894V46.1462H59.8223V51.364H59.221ZM63.1924 51.4354C62.8085 51.4354 62.4815 51.3309 62.2115 51.122C61.9414 50.9114 61.735 50.6065 61.5924 50.2073C61.4497 49.8065 61.3784 49.3224 61.3784 48.7551C61.3784 48.1912 61.4497 47.7097 61.5924 47.3105C61.7367 46.9097 61.944 46.6039 62.214 46.3933C62.4858 46.181 62.8119 46.0749 63.1924 46.0749C63.5728 46.0749 63.8981 46.181 64.1682 46.3933C64.4399 46.6039 64.6471 46.9097 64.7898 47.3105C64.9342 47.7097 65.0064 48.1912 65.0064 48.7551C65.0064 49.3224 64.935 49.8065 64.7924 50.2073C64.6497 50.6065 64.4433 50.9114 64.1733 51.122C63.9032 51.3309 63.5762 51.4354 63.1924 51.4354ZM63.1924 50.8748C63.5728 50.8748 63.8684 50.6914 64.079 50.3245C64.2896 49.9576 64.3949 49.4345 64.3949 48.7551C64.3949 48.3033 64.3465 47.9186 64.2497 47.601C64.1546 47.2833 64.017 47.0413 63.837 46.8749C63.6586 46.7084 63.4437 46.6252 63.1924 46.6252C62.8153 46.6252 62.5206 46.8112 62.3083 47.1831C62.096 47.5534 61.9898 48.0774 61.9898 48.7551C61.9898 49.2069 62.0374 49.5908 62.1325 49.9067C62.2276 50.2226 62.3643 50.463 62.5427 50.6277C62.7227 50.7925 62.9393 50.8748 63.1924 50.8748ZM67.6764 51.4354C67.2926 51.4354 66.9656 51.3309 66.6955 51.122C66.4255 50.9114 66.2191 50.6065 66.0764 50.2073C65.9338 49.8065 65.8624 49.3224 65.8624 48.7551C65.8624 48.1912 65.9338 47.7097 66.0764 47.3105C66.2208 46.9097 66.428 46.6039 66.6981 46.3933C66.9699 46.181 67.296 46.0749 67.6764 46.0749C68.0569 46.0749 68.3822 46.181 68.6522 46.3933C68.924 46.6039 69.1312 46.9097 69.2739 47.3105C69.4183 47.7097 69.4904 48.1912 69.4904 48.7551C69.4904 49.3224 69.4191 49.8065 69.2764 50.2073C69.1338 50.6065 68.9274 50.9114 68.6573 51.122C68.3873 51.3309 68.0603 51.4354 67.6764 51.4354ZM67.6764 50.8748C68.0569 50.8748 68.3524 50.6914 68.5631 50.3245C68.7737 49.9576 68.879 49.4345 68.879 48.7551C68.879 48.3033 68.8306 47.9186 68.7338 47.601C68.6386 47.2833 68.5011 47.0413 68.321 46.8749C68.1427 46.7084 67.9278 46.6252 67.6764 46.6252C67.2994 46.6252 67.0047 46.8112 66.7924 47.1831C66.58 47.5534 66.4739 48.0774 66.4739 48.7551C66.4739 49.2069 66.5214 49.5908 66.6166 49.9067C66.7117 50.2226 66.8484 50.463 67.0268 50.6277C67.2068 50.7925 67.4234 50.8748 67.6764 50.8748Z" fill="#8A8A8A"/>
<path d="M92.2155 51.4354C92.0015 51.432 91.7875 51.3912 91.5734 51.3131C91.3594 51.2349 91.1641 51.1033 90.9875 50.9182C90.8108 50.7313 90.669 50.4791 90.562 50.1615C90.455 49.8422 90.4015 49.4413 90.4015 48.9589C90.4015 48.4969 90.4448 48.0876 90.5314 47.7309C90.618 47.3725 90.7437 47.071 90.9085 46.8264C91.0732 46.5802 91.272 46.3933 91.5046 46.2659C91.739 46.1386 92.0032 46.0749 92.297 46.0749C92.5891 46.0749 92.849 46.1335 93.0766 46.2507C93.3059 46.3662 93.4928 46.5275 93.6371 46.7347C93.7815 46.9419 93.8749 47.1806 93.9174 47.4506H93.2957C93.238 47.2163 93.1259 47.0218 92.9594 46.8672C92.793 46.7126 92.5722 46.6354 92.297 46.6354C91.8928 46.6354 91.5743 46.8112 91.3416 47.1628C91.1106 47.5143 90.9942 48.0078 90.9925 48.643H91.0333C91.1284 48.4986 91.2414 48.3755 91.3722 48.2736C91.5046 48.17 91.6507 48.0901 91.8104 48.0341C91.97 47.978 92.139 47.95 92.3174 47.95C92.6163 47.95 92.8898 48.0247 93.1378 48.1742C93.3857 48.322 93.5845 48.5267 93.7339 48.7882C93.8834 49.0481 93.9581 49.3462 93.9581 49.6825C93.9581 50.0052 93.886 50.3007 93.7416 50.5691C93.5972 50.8358 93.3942 51.0481 93.1327 51.2061C92.8728 51.3623 92.5671 51.4387 92.2155 51.4354ZM92.2155 50.8748C92.4295 50.8748 92.6214 50.8213 92.7913 50.7143C92.9628 50.6073 93.0979 50.4638 93.1964 50.2838C93.2966 50.1037 93.3467 49.9033 93.3467 49.6825C93.3467 49.4668 93.2983 49.2706 93.2015 49.094C93.1063 48.9156 92.9747 48.7738 92.8066 48.6685C92.6401 48.5632 92.4499 48.5105 92.2359 48.5105C92.0745 48.5105 91.9242 48.5428 91.7849 48.6073C91.6456 48.6702 91.5233 48.7568 91.418 48.8672C91.3144 48.9776 91.2329 49.1041 91.1734 49.2468C91.114 49.3878 91.0843 49.5364 91.0843 49.6927C91.0843 49.8999 91.1327 50.0935 91.2295 50.2736C91.328 50.4536 91.4622 50.5988 91.632 50.7092C91.8036 50.8196 91.9981 50.8748 92.2155 50.8748ZM96.662 51.4354C96.2781 51.4354 95.9511 51.3309 95.6811 51.122C95.411 50.9114 95.2046 50.6065 95.062 50.2073C94.9193 49.8065 94.848 49.3224 94.848 48.7551C94.848 48.1912 94.9193 47.7097 95.062 47.3105C95.2063 46.9097 95.4136 46.6039 95.6836 46.3933C95.9554 46.181 96.2815 46.0749 96.662 46.0749C97.0424 46.0749 97.3677 46.181 97.6378 46.3933C97.9095 46.6039 98.1167 46.9097 98.2594 47.3105C98.4038 47.7097 98.476 48.1912 98.476 48.7551C98.476 49.3224 98.4046 49.8065 98.262 50.2073C98.1193 50.6065 97.9129 50.9114 97.6428 51.122C97.3728 51.3309 97.0458 51.4354 96.662 51.4354ZM96.662 50.8748C97.0424 50.8748 97.338 50.6914 97.5486 50.3245C97.7592 49.9576 97.8645 49.4345 97.8645 48.7551C97.8645 48.3033 97.8161 47.9186 97.7193 47.601C97.6242 47.2833 97.4866 47.0413 97.3065 46.8749C97.1282 46.7084 96.9133 46.6252 96.662 46.6252C96.2849 46.6252 95.9902 46.8112 95.7779 47.1831C95.5656 47.5534 95.4594 48.0774 95.4594 48.7551C95.4594 49.2069 95.507 49.5908 95.6021 49.9067C95.6972 50.2226 95.8339 50.463 96.0123 50.6277C96.1923 50.7925 96.4089 50.8748 96.662 50.8748ZM101.146 51.4354C100.762 51.4354 100.435 51.3309 100.165 51.122C99.8951 50.9114 99.6887 50.6065 99.546 50.2073C99.4034 49.8065 99.332 49.3224 99.332 48.7551C99.332 48.1912 99.4034 47.7097 99.546 47.3105C99.6904 46.9097 99.8976 46.6039 100.168 46.3933C100.439 46.181 100.766 46.0749 101.146 46.0749C101.526 46.0749 101.852 46.181 102.122 46.3933C102.394 46.6039 102.601 46.9097 102.743 47.3105C102.888 47.7097 102.96 48.1912 102.96 48.7551C102.96 49.3224 102.889 49.8065 102.746 50.2073C102.603 50.6065 102.397 50.9114 102.127 51.122C101.857 51.3309 101.53 51.4354 101.146 51.4354ZM101.146 50.8748C101.526 50.8748 101.822 50.6914 102.033 50.3245C102.243 49.9576 102.349 49.4345 102.349 48.7551C102.349 48.3033 102.3 47.9186 102.203 47.601C102.108 47.2833 101.971 47.0413 101.791 46.8749C101.612 46.7084 101.397 46.6252 101.146 46.6252C100.769 46.6252 100.474 46.8112 100.262 47.1831C100.05 47.5534 99.9435 48.0774 99.9435 48.7551C99.9435 49.2069 99.991 49.5908 100.086 49.9067C100.181 50.2226 100.318 50.463 100.496 50.6277C100.676 50.7925 100.893 50.8748 101.146 50.8748Z" fill="#8A8A8A"/>
<path d="M125.745 51.4354C125.395 51.4354 125.086 51.3734 124.817 51.2494C124.551 51.1237 124.343 50.9513 124.193 50.7322C124.044 50.5114 123.97 50.26 123.971 49.978C123.97 49.7572 124.013 49.5534 124.101 49.3666C124.19 49.178 124.31 49.0209 124.463 48.8952C124.618 48.7678 124.79 48.6872 124.98 48.6532V48.6226C124.731 48.5581 124.532 48.418 124.384 48.2022C124.236 47.9848 124.163 47.7377 124.165 47.4608C124.163 47.1959 124.23 46.9589 124.366 46.75C124.502 46.5411 124.689 46.3763 124.927 46.2557C125.166 46.1352 125.439 46.0749 125.745 46.0749C126.047 46.0749 126.317 46.1352 126.555 46.2557C126.793 46.3763 126.979 46.5411 127.115 46.75C127.253 46.9589 127.323 47.1959 127.324 47.4608C127.323 47.7377 127.247 47.9848 127.098 48.2022C126.95 48.418 126.754 48.5581 126.509 48.6226V48.6532C126.698 48.6872 126.867 48.7678 127.019 48.8952C127.17 49.0209 127.29 49.178 127.38 49.3666C127.47 49.5534 127.516 49.7572 127.518 49.978C127.516 50.26 127.44 50.5114 127.289 50.7322C127.139 50.9513 126.931 51.1237 126.664 51.2494C126.399 51.3734 126.093 51.4354 125.745 51.4354ZM125.745 50.8748C125.981 50.8748 126.185 50.8366 126.356 50.7602C126.528 50.6838 126.66 50.5759 126.754 50.4366C126.847 50.2974 126.895 50.1343 126.896 49.9475C126.895 49.7504 126.844 49.5763 126.743 49.4252C126.643 49.274 126.506 49.1551 126.333 49.0685C126.162 48.9819 125.965 48.9385 125.745 48.9385C125.522 48.9385 125.323 48.9819 125.148 49.0685C124.975 49.1551 124.839 49.274 124.738 49.4252C124.64 49.5763 124.591 49.7504 124.593 49.9475C124.591 50.1343 124.636 50.2974 124.728 50.4366C124.822 50.5759 124.955 50.6838 125.128 50.7602C125.301 50.8366 125.507 50.8748 125.745 50.8748ZM125.745 48.3984C125.931 48.3984 126.097 48.3611 126.241 48.2863C126.388 48.2116 126.502 48.1071 126.585 47.9729C126.669 47.8388 126.711 47.6816 126.713 47.5016C126.711 47.325 126.669 47.1712 126.588 47.0405C126.506 46.908 126.393 46.8061 126.249 46.7347C126.105 46.6617 125.937 46.6252 125.745 46.6252C125.549 46.6252 125.379 46.6617 125.233 46.7347C125.086 46.8061 124.974 46.908 124.894 47.0405C124.814 47.1712 124.775 47.325 124.777 47.5016C124.775 47.6816 124.815 47.8388 124.896 47.9729C124.979 48.1071 125.094 48.2116 125.24 48.2863C125.386 48.3611 125.554 48.3984 125.745 48.3984ZM130.196 51.4354C129.812 51.4354 129.485 51.3309 129.215 51.122C128.945 50.9114 128.739 50.6065 128.596 50.2073C128.454 49.8065 128.382 49.3224 128.382 48.7551C128.382 48.1912 128.454 47.7097 128.596 47.3105C128.741 46.9097 128.948 46.6039 129.218 46.3933C129.49 46.181 129.816 46.0749 130.196 46.0749C130.577 46.0749 130.902 46.181 131.172 46.3933C131.444 46.6039 131.651 46.9097 131.794 47.3105C131.938 47.7097 132.01 48.1912 132.01 48.7551C132.01 49.3224 131.939 49.8065 131.796 50.2073C131.654 50.6065 131.447 50.9114 131.177 51.122C130.907 51.3309 130.58 51.4354 130.196 51.4354ZM130.196 50.8748C130.577 50.8748 130.872 50.6914 131.083 50.3245C131.293 49.9576 131.399 49.4345 131.399 48.7551C131.399 48.3033 131.35 47.9186 131.254 47.601C131.158 47.2833 131.021 47.0413 130.841 46.8749C130.662 46.7084 130.448 46.6252 130.196 46.6252C129.819 46.6252 129.524 46.8112 129.312 47.1831C129.1 47.5534 128.994 48.0774 128.994 48.7551C128.994 49.2069 129.041 49.5908 129.136 49.9067C129.231 50.2226 129.368 50.463 129.547 50.6277C129.727 50.7925 129.943 50.8748 130.196 50.8748ZM134.68 51.4354C134.296 51.4354 133.969 51.3309 133.699 51.122C133.429 50.9114 133.223 50.6065 133.08 50.2073C132.938 49.8065 132.866 49.3224 132.866 48.7551C132.866 48.1912 132.938 47.7097 133.08 47.3105C133.225 46.9097 133.432 46.6039 133.702 46.3933C133.974 46.181 134.3 46.0749 134.68 46.0749C135.061 46.0749 135.386 46.181 135.656 46.3933C135.928 46.6039 136.135 46.9097 136.278 47.3105C136.422 47.7097 136.494 48.1912 136.494 48.7551C136.494 49.3224 136.423 49.8065 136.28 50.2073C136.138 50.6065 135.931 50.9114 135.661 51.122C135.391 51.3309 135.064 51.4354 134.68 51.4354ZM134.68 50.8748C135.061 50.8748 135.356 50.6914 135.567 50.3245C135.778 49.9576 135.883 49.4345 135.883 48.7551C135.883 48.3033 135.834 47.9186 135.738 47.601C135.643 47.2833 135.505 47.0413 135.325 46.8749C135.147 46.7084 134.932 46.6252 134.68 46.6252C134.303 46.6252 134.009 46.8112 133.796 47.1831C133.584 47.5534 133.478 48.0774 133.478 48.7551C133.478 49.2069 133.525 49.5908 133.62 49.9067C133.716 50.2226 133.852 50.463 134.031 50.6277C134.211 50.7925 134.427 50.8748 134.68 50.8748Z" fill="#8A8A8A"/>
<path d="M128.997 7.19268C128.647 7.19268 128.338 7.13068 128.069 7.00669C127.803 6.881 127.594 6.7086 127.445 6.48949C127.296 6.26869 127.222 6.01731 127.223 5.73535C127.222 5.51455 127.265 5.31073 127.353 5.12389C127.442 4.93536 127.562 4.77825 127.715 4.65256C127.87 4.52517 128.042 4.44449 128.232 4.41052V4.37995C127.983 4.3154 127.784 4.17527 127.636 3.95956C127.488 3.74216 127.415 3.49502 127.417 3.21817C127.415 2.9532 127.482 2.71626 127.618 2.50734C127.754 2.29842 127.941 2.13367 128.179 2.01307C128.418 1.89248 128.691 1.83218 128.997 1.83218C129.299 1.83218 129.569 1.89248 129.807 2.01307C130.045 2.13367 130.231 2.29842 130.367 2.50734C130.505 2.71626 130.575 2.9532 130.576 3.21817C130.575 3.49502 130.499 3.74216 130.349 3.95956C130.202 4.17527 130.006 4.3154 129.761 4.37995V4.41052C129.949 4.44449 130.119 4.52517 130.27 4.65256C130.422 4.77825 130.542 4.93536 130.632 5.12389C130.722 5.31073 130.768 5.51455 130.77 5.73535C130.768 6.01731 130.692 6.26869 130.541 6.48949C130.391 6.7086 130.183 6.881 129.916 7.00669C129.651 7.13068 129.345 7.19268 128.997 7.19268ZM128.997 6.63217C129.233 6.63217 129.437 6.59395 129.608 6.51752C129.78 6.44109 129.912 6.33323 130.006 6.19395C130.099 6.05467 130.147 5.89162 130.148 5.70478C130.147 5.50775 130.096 5.33366 129.995 5.18249C129.895 5.03132 129.758 4.91243 129.585 4.8258C129.414 4.73918 129.217 4.69587 128.997 4.69587C128.774 4.69587 128.575 4.73918 128.4 4.8258C128.227 4.91243 128.09 5.03132 127.99 5.18249C127.892 5.33366 127.843 5.50775 127.845 5.70478C127.843 5.89162 127.888 6.05467 127.98 6.19395C128.073 6.33323 128.207 6.44109 128.38 6.51752C128.553 6.59395 128.759 6.63217 128.997 6.63217ZM128.997 4.15574C129.183 4.15574 129.349 4.11837 129.493 4.04364C129.639 3.96891 129.754 3.86445 129.837 3.73027C129.921 3.59608 129.963 3.43897 129.965 3.25893C129.963 3.08228 129.921 2.92857 129.84 2.79778C129.758 2.6653 129.645 2.56339 129.501 2.49205C129.357 2.41902 129.189 2.3825 128.997 2.3825C128.801 2.3825 128.631 2.41902 128.485 2.49205C128.338 2.56339 128.225 2.6653 128.146 2.79778C128.066 2.92857 128.027 3.08228 128.028 3.25893C128.027 3.43897 128.067 3.59608 128.148 3.73027C128.231 3.86445 128.346 3.96891 128.492 4.04364C128.638 4.11837 128.806 4.15574 128.997 4.15574ZM133.448 7.19268C133.064 7.19268 132.737 7.08822 132.467 6.8793C132.197 6.66869 131.991 6.3638 131.848 5.96465C131.706 5.56381 131.634 5.07973 131.634 4.51243C131.634 3.94852 131.706 3.467 131.848 3.06785C131.993 2.667 132.2 2.36127 132.47 2.15065C132.742 1.93834 133.068 1.83218 133.448 1.83218C133.829 1.83218 134.154 1.93834 134.424 2.15065C134.696 2.36127 134.903 2.667 135.046 3.06785C135.19 3.467 135.262 3.94852 135.262 4.51243C135.262 5.07973 135.191 5.56381 135.048 5.96465C134.906 6.3638 134.699 6.66869 134.429 6.8793C134.159 7.08822 133.832 7.19268 133.448 7.19268ZM133.448 6.63217C133.829 6.63217 134.124 6.44873 134.335 6.08185C134.545 5.71497 134.651 5.19183 134.651 4.51243C134.651 4.06063 134.602 3.67591 134.506 3.35829C134.41 3.04067 134.273 2.79863 134.093 2.63218C133.914 2.46573 133.7 2.3825 133.448 2.3825C133.071 2.3825 132.776 2.56849 132.564 2.94046C132.352 3.31073 132.246 3.83472 132.246 4.51243C132.246 4.96423 132.293 5.34809 132.388 5.66402C132.483 5.97994 132.62 6.22028 132.799 6.38503C132.979 6.54979 133.195 6.63217 133.448 6.63217ZM137.902 7.19268C137.552 7.19268 137.243 7.13068 136.974 7.00669C136.708 6.881 136.5 6.7086 136.35 6.48949C136.201 6.26869 136.127 6.01731 136.128 5.73535C136.127 5.51455 136.17 5.31073 136.258 5.12389C136.347 4.93536 136.467 4.77825 136.62 4.65256C136.775 4.52517 136.947 4.44449 137.137 4.41052V4.37995C136.888 4.3154 136.689 4.17527 136.541 3.95956C136.393 3.74216 136.32 3.49502 136.322 3.21817C136.32 2.9532 136.387 2.71626 136.523 2.50734C136.659 2.29842 136.846 2.13367 137.084 2.01307C137.323 1.89248 137.596 1.83218 137.902 1.83218C138.204 1.83218 138.474 1.89248 138.712 2.01307C138.95 2.13367 139.136 2.29842 139.272 2.50734C139.41 2.71626 139.48 2.9532 139.481 3.21817C139.48 3.49502 139.404 3.74216 139.255 3.95956C139.107 4.17527 138.911 4.3154 138.666 4.37995V4.41052C138.855 4.44449 139.024 4.52517 139.176 4.65256C139.327 4.77825 139.447 4.93536 139.537 5.12389C139.627 5.31073 139.673 5.51455 139.675 5.73535C139.673 6.01731 139.597 6.26869 139.446 6.48949C139.296 6.7086 139.088 6.881 138.821 7.00669C138.556 7.13068 138.25 7.19268 137.902 7.19268ZM137.902 6.63217C138.138 6.63217 138.342 6.59395 138.513 6.51752C138.685 6.44109 138.817 6.33323 138.911 6.19395C139.004 6.05467 139.052 5.89162 139.053 5.70478C139.052 5.50775 139.001 5.33366 138.9 5.18249C138.8 5.03132 138.663 4.91243 138.49 4.8258C138.319 4.73918 138.122 4.69587 137.902 4.69587C137.679 4.69587 137.48 4.73918 137.306 4.8258C137.132 4.91243 136.996 5.03132 136.895 5.18249C136.797 5.33366 136.748 5.50775 136.75 5.70478C136.748 5.89162 136.793 6.05467 136.885 6.19395C136.979 6.33323 137.112 6.44109 137.285 6.51752C137.458 6.59395 137.664 6.63217 137.902 6.63217ZM137.902 4.15574C138.089 4.15574 138.254 4.11837 138.398 4.04364C138.545 3.96891 138.659 3.86445 138.742 3.73027C138.826 3.59608 138.868 3.43897 138.87 3.25893C138.868 3.08228 138.827 2.92857 138.745 2.79778C138.663 2.6653 138.551 2.56339 138.406 2.49205C138.262 2.41902 138.094 2.3825 137.902 2.3825C137.706 2.3825 137.536 2.41902 137.39 2.49205C137.244 2.56339 137.131 2.6653 137.051 2.79778C136.971 2.92857 136.932 3.08228 136.934 3.25893C136.932 3.43897 136.972 3.59608 137.053 3.73027C137.137 3.86445 137.251 3.96891 137.397 4.04364C137.543 4.11837 137.711 4.15574 137.902 4.15574ZM140.939 7.1621C140.813 7.1621 140.705 7.11709 140.615 7.02707C140.525 6.93705 140.48 6.82919 140.48 6.7035C140.48 6.57782 140.525 6.46996 140.615 6.37994C140.705 6.28992 140.813 6.24491 140.939 6.24491C141.064 6.24491 141.172 6.28992 141.262 6.37994C141.352 6.46996 141.397 6.57782 141.397 6.7035C141.397 6.78673 141.376 6.86316 141.334 6.9328C141.293 7.00244 141.238 7.05849 141.168 7.10096C141.1 7.14172 141.024 7.1621 140.939 7.1621ZM143.677 1.90352V7.12134H143.045V2.56594H143.014L141.741 3.41179V2.76976L143.045 1.90352H143.677Z" fill="#E84258"/>
<path d="M159.185 45.7819V50.9998H158.553V46.4444H158.522L157.248 47.2902V46.6482L158.553 45.7819H159.185ZM162.387 51.0711C162.003 51.0711 161.676 50.9666 161.406 50.7577C161.136 50.5471 160.93 50.2422 160.787 49.8431C160.644 49.4422 160.573 48.9581 160.573 48.3908C160.573 47.8269 160.644 47.3454 160.787 46.9463C160.931 46.5454 161.139 46.2397 161.409 46.0291C161.681 45.8168 162.007 45.7106 162.387 45.7106C162.768 45.7106 163.093 45.8168 163.363 46.0291C163.635 46.2397 163.842 46.5454 163.985 46.9463C164.129 47.3454 164.201 47.8269 164.201 48.3908C164.201 48.9581 164.13 49.4422 163.987 49.8431C163.844 50.2422 163.638 50.5471 163.368 50.7577C163.098 50.9666 162.771 51.0711 162.387 51.0711ZM162.387 50.5106C162.768 50.5106 163.063 50.3271 163.274 49.9603C163.484 49.5934 163.59 49.0703 163.59 48.3908C163.59 47.939 163.541 47.5543 163.444 47.2367C163.349 46.9191 163.212 46.6771 163.032 46.5106C162.853 46.3441 162.638 46.2609 162.387 46.2609C162.01 46.2609 161.715 46.4469 161.503 46.8189C161.291 47.1892 161.185 47.7131 161.185 48.3908C161.185 48.8426 161.232 49.2265 161.327 49.5424C161.422 49.8584 161.559 50.0987 161.737 50.2635C161.917 50.4282 162.134 50.5106 162.387 50.5106ZM166.871 51.0711C166.487 51.0711 166.16 50.9666 165.89 50.7577C165.62 50.5471 165.414 50.2422 165.271 49.8431C165.129 49.4422 165.057 48.9581 165.057 48.3908C165.057 47.8269 165.129 47.3454 165.271 46.9463C165.416 46.5454 165.623 46.2397 165.893 46.0291C166.165 45.8168 166.491 45.7106 166.871 45.7106C167.252 45.7106 167.577 45.8168 167.847 46.0291C168.119 46.2397 168.326 46.5454 168.469 46.9463C168.613 47.3454 168.685 47.8269 168.685 48.3908C168.685 48.9581 168.614 49.4422 168.471 49.8431C168.328 50.2422 168.122 50.5471 167.852 50.7577C167.582 50.9666 167.255 51.0711 166.871 51.0711ZM166.871 50.5106C167.252 50.5106 167.547 50.3271 167.758 49.9603C167.968 49.5934 168.074 49.0703 168.074 48.3908C168.074 47.939 168.025 47.5543 167.928 47.2367C167.833 46.9191 167.696 46.6771 167.516 46.5106C167.337 46.3441 167.123 46.2609 166.871 46.2609C166.494 46.2609 166.199 46.4469 165.987 46.8189C165.775 47.1892 165.669 47.7131 165.669 48.3908C165.669 48.8426 165.716 49.2265 165.811 49.5424C165.906 49.8584 166.043 50.0987 166.221 50.2635C166.402 50.4282 166.618 50.5106 166.871 50.5106ZM171.355 51.0711C170.971 51.0711 170.644 50.9666 170.374 50.7577C170.104 50.5471 169.898 50.2422 169.755 49.8431C169.613 49.4422 169.541 48.9581 169.541 48.3908C169.541 47.8269 169.613 47.3454 169.755 46.9463C169.9 46.5454 170.107 46.2397 170.377 46.0291C170.649 45.8168 170.975 45.7106 171.355 45.7106C171.736 45.7106 172.061 45.8168 172.331 46.0291C172.603 46.2397 172.81 46.5454 172.953 46.9463C173.097 47.3454 173.169 47.8269 173.169 48.3908C173.169 48.9581 173.098 49.4422 172.955 49.8431C172.813 50.2422 172.606 50.5471 172.336 50.7577C172.066 50.9666 171.739 51.0711 171.355 51.0711ZM171.355 50.5106C171.736 50.5106 172.031 50.3271 172.242 49.9603C172.452 49.5934 172.558 49.0703 172.558 48.3908C172.558 47.939 172.509 47.5543 172.413 47.2367C172.317 46.9191 172.18 46.6771 172 46.5106C171.821 46.3441 171.607 46.2609 171.355 46.2609C170.978 46.2609 170.683 46.4469 170.471 46.8189C170.259 47.1892 170.153 47.7131 170.153 48.3908C170.153 48.8426 170.2 49.2265 170.295 49.5424C170.39 49.8584 170.527 50.0987 170.706 50.2635C170.886 50.4282 171.102 50.5106 171.355 50.5106Z" fill="#8A8A8A"/>
<path d="M1.0835 37.1897V44.3642" stroke="#B2B2B2" stroke-width="0.597875"/>
<path d="M35.7593 37.1897V44.3642" stroke="#B2B2B2" stroke-width="0.597875"/>
<path d="M70.4355 37.1897V44.3642" stroke="#B2B2B2" stroke-width="0.597875"/>
<path d="M105.112 37.1897V44.3642" stroke="#B2B2B2" stroke-width="0.597875"/>
<path d="M139.788 37.1897V44.3642" stroke="#B2B2B2" stroke-width="0.597875"/>
<path d="M174.464 37.1897V44.3642" stroke="#B2B2B2" stroke-width="0.597875"/>
<defs>
<linearGradient id="paint0_linear_732_14830" x1="-0.00244141" y1="29.7161" x2="175.549" y2="29.7161" gradientUnits="userSpaceOnUse">
<stop stop-color="#B8D8B3"/>
<stop offset="0.443269" stop-color="#FBE192"/>
<stop offset="1" stop-color="#E84559"/>
</linearGradient>
</defs>
</svg>
