<svg width="21" height="21" viewBox="0 0 21 21" fill="none" xmlns="http://www.w3.org/2000/svg">
<path d="M10.5 6.68179C8.39044 6.68179 6.68184 8.39044 6.68184 10.5C6.68184 12.6095 8.39044 14.3182 10.5 14.3182C12.6096 14.3182 14.3182 12.6095 14.3182 10.5C14.3182 8.39049 12.6095 6.68179 10.5 6.68179ZM19.0336 9.54543C18.5945 5.56498 15.435 2.40545 11.4545 1.96638V0H9.54543V1.96638C5.56498 2.40545 2.40545 5.56498 1.96638 9.54543H0V11.4545H1.96638C2.40545 15.435 5.56502 18.5945 9.54547 19.0336V21H11.4545V19.0336C15.435 18.5945 18.5945 15.435 19.0336 11.4545H21V9.54543H19.0336ZM10.5 17.1818C6.8107 17.1818 3.81821 14.1893 3.81821 10.5C3.81821 6.8107 6.8107 3.81821 10.5 3.81821C14.1893 3.81821 17.1818 6.81066 17.1818 10.5C17.1818 14.1893 14.1893 17.1818 10.5 17.1818Z" fill="white"/>
</svg>
