<svg width="60" height="60" viewBox="0 0 60 60" fill="none" xmlns="http://www.w3.org/2000/svg">
<rect opacity="0.1" width="60" height="60" rx="30" fill="#5B93FF"/>
<g clip-path="url(#clip0_1_14193)">
<g clip-path="url(#clip1_1_14193)">
<path d="M30.4733 37.3394C27.4962 37.3394 24.6903 36.9054 22.5725 36.1174C21.4602 35.7035 20.5939 35.2085 20 34.6577V38.3974C20 39.2622 21.057 40.1515 22.8997 40.8372C24.9153 41.5872 27.605 42.0002 30.4733 42.0002C33.3416 42.0002 36.0312 41.5872 38.0469 40.8372C39.8895 40.1515 40.9466 39.2622 40.9466 38.3974V34.6577C40.3527 35.2085 39.4864 35.7035 38.3736 36.1174C36.2563 36.9054 33.4503 37.3394 30.4733 37.3394ZM35.2587 39.5069C35.2527 39.5369 35.2438 39.5663 35.232 39.5946C35.2202 39.6229 35.2057 39.65 35.1889 39.6757C35.1717 39.7013 35.1521 39.7251 35.1303 39.7469C35.1087 39.7686 35.085 39.788 35.0595 39.8051C35.0339 39.8219 35.0067 39.8363 34.9784 39.8482C34.9502 39.8599 34.9208 39.8689 34.8908 39.8749C34.8303 39.8868 34.768 39.8868 34.7075 39.8749C34.6775 39.8689 34.6481 39.8599 34.6198 39.8482C34.5629 39.8248 34.5111 39.7904 34.4675 39.7469C34.4458 39.7251 34.4264 39.7013 34.4094 39.6757C34.3925 39.65 34.3781 39.6229 34.3663 39.5946C34.3545 39.5663 34.3456 39.5369 34.3395 39.5069C34.3335 39.4768 34.3305 39.4462 34.3306 39.4155C34.3304 39.3841 34.3334 39.3526 34.3395 39.3218C34.3516 39.2617 34.3753 39.2045 34.4094 39.1535C34.4263 39.1278 34.4457 39.1039 34.4675 39.0822C34.511 39.0385 34.5628 39.0039 34.6198 38.9805C34.6481 38.9688 34.6775 38.9599 34.7075 38.9538C34.768 38.9416 34.8303 38.9416 34.8908 38.9538C34.9208 38.9599 34.9502 38.9688 34.9784 38.9805C35.0067 38.9924 35.0339 39.0068 35.0595 39.0237C35.085 39.0408 35.1087 39.0604 35.1303 39.0822C35.1522 39.1039 35.1719 39.1278 35.1889 39.1535C35.223 39.2045 35.2467 39.2617 35.2587 39.3218C35.2649 39.3526 35.2679 39.3841 35.2677 39.4155C35.2677 39.4462 35.2648 39.4768 35.2587 39.5069ZM37.2969 39.0002C37.2908 39.0302 37.2819 39.0596 37.2702 39.0879C37.2585 39.1163 37.2441 39.1434 37.227 39.169C37.2098 39.1945 37.1902 39.2184 37.1684 39.2402C37.0804 39.3279 36.9613 39.3772 36.837 39.3776C36.8063 39.3775 36.7757 39.3743 36.7456 39.3682C36.7156 39.3624 36.6862 39.3534 36.658 39.3415C36.6296 39.3298 36.6024 39.3154 36.5769 39.2983C36.5254 39.2644 36.4814 39.2204 36.4475 39.169C36.4305 39.1434 36.416 39.1163 36.4044 39.0879C36.3927 39.0596 36.3837 39.0302 36.3777 39.0002C36.3652 38.9399 36.3652 38.8777 36.3777 38.8174C36.3837 38.7874 36.3927 38.758 36.4044 38.7297C36.416 38.7014 36.4305 38.6742 36.4475 38.6487C36.4814 38.5972 36.5254 38.5532 36.5769 38.5193C36.6023 38.5021 36.6295 38.4876 36.658 38.4762C36.6862 38.4642 36.7156 38.4553 36.7456 38.4494C36.821 38.4345 36.899 38.4384 36.9725 38.4607C37.0461 38.483 37.1131 38.5231 37.1675 38.5774C37.1894 38.5991 37.209 38.623 37.2261 38.6487C37.2431 38.6742 37.2576 38.7014 37.2692 38.7297C37.2809 38.758 37.2899 38.7874 37.2959 38.8174C37.3078 38.8778 37.3078 38.9399 37.2959 39.0002H37.2969ZM38.4134 38.3083C38.4195 38.2783 38.4284 38.249 38.4402 38.2207C38.4518 38.1923 38.4663 38.1651 38.4833 38.1396C38.5002 38.1139 38.5196 38.09 38.5414 38.0683C38.596 38.0144 38.663 37.9745 38.7365 37.9522C38.81 37.9299 38.8879 37.9258 38.9633 37.9404C38.9933 37.9466 39.0226 37.9555 39.0509 37.9671C39.0791 37.9788 39.1061 37.9933 39.1316 38.0102C39.1572 38.0271 39.1811 38.0466 39.2028 38.0683C39.2572 38.1227 39.2973 38.1897 39.3197 38.2632C39.3421 38.3368 39.3461 38.4148 39.3312 38.4902C39.3251 38.5202 39.3161 38.5495 39.3045 38.5779C39.257 38.6927 39.1657 38.7839 39.0509 38.8315C39.0226 38.8431 38.9933 38.852 38.9633 38.8582C38.8878 38.873 38.8099 38.8691 38.7363 38.8467C38.6627 38.8243 38.5958 38.7841 38.5414 38.7297C38.5196 38.7081 38.5002 38.6842 38.4833 38.6585C38.4664 38.6331 38.4519 38.6061 38.4402 38.5779C38.4286 38.5495 38.4196 38.5202 38.4134 38.4902C38.4072 38.4594 38.404 38.428 38.4041 38.3965C38.4034 38.3662 38.4058 38.3358 38.4111 38.306L38.4134 38.3083Z" fill="#5891EF"/>
<path d="M30.4733 31.7408C27.4962 31.7408 24.6903 31.3067 22.5725 30.5188C21.4602 30.1049 20.5939 29.6099 20 29.0591V32.7988C20 33.6636 21.057 34.5528 22.8997 35.2386C24.9153 35.9886 27.605 36.4016 30.4733 36.4016C33.3416 36.4016 36.0312 35.9886 38.0469 35.2386C39.8895 34.5528 40.9466 33.6636 40.9466 32.7988V29.0591C40.3527 29.6099 39.4864 30.1049 38.3736 30.5188C36.2563 31.3067 33.4503 31.7408 30.4733 31.7408ZM35.2587 33.9083C35.2527 33.9383 35.2438 33.9677 35.232 33.996C35.22 34.0247 35.2051 34.0522 35.1875 34.078C35.1705 34.1036 35.151 34.1274 35.1294 34.1492C35.1076 34.1709 35.0837 34.1904 35.0581 34.2074C35.0325 34.2242 35.0053 34.2386 34.977 34.2505C34.9487 34.2622 34.9194 34.2712 34.8894 34.2772C34.8289 34.2897 34.7665 34.2897 34.7061 34.2772C34.6761 34.2712 34.6467 34.2622 34.6184 34.2505C34.5901 34.2386 34.563 34.2242 34.5373 34.2074C34.46 34.1561 34.3997 34.0829 34.3642 33.9971C34.3287 33.9113 34.3196 33.8169 34.3381 33.726C34.3443 33.696 34.3533 33.6666 34.3648 33.6383C34.3766 33.6101 34.391 33.5831 34.408 33.5577C34.4249 33.532 34.4443 33.5081 34.4661 33.4864C34.488 33.4648 34.5119 33.4451 34.5373 33.4278C34.563 33.411 34.5901 33.3966 34.6184 33.3847C34.6467 33.373 34.6761 33.364 34.7061 33.358C34.7666 33.3458 34.8289 33.3458 34.8894 33.358C34.9194 33.364 34.9487 33.373 34.977 33.3847C35.0053 33.3966 35.0325 33.411 35.0581 33.4278C35.0836 33.4451 35.1075 33.4648 35.1294 33.4864C35.1739 33.5294 35.2095 33.5807 35.2344 33.6374C35.246 33.6657 35.2549 33.695 35.2611 33.725C35.2672 33.7559 35.2702 33.7873 35.27 33.8188C35.2692 33.8489 35.2654 33.8789 35.2587 33.9083ZM37.2969 33.3992C37.2908 33.4294 37.2818 33.4589 37.2702 33.4874C37.2584 33.5156 37.244 33.5426 37.227 33.568C37.21 33.5937 37.1904 33.6176 37.1684 33.6392C37.1467 33.6609 37.123 33.6805 37.0977 33.6978C37.0719 33.7143 37.0448 33.7286 37.0166 33.7405C36.9884 33.7524 36.959 33.7614 36.9289 33.7672C36.8981 33.7735 36.8666 33.7766 36.8352 33.7766C36.8045 33.7765 36.7738 33.7734 36.7438 33.7672C36.7137 33.7614 36.6843 33.7524 36.6561 33.7405C36.6278 33.7287 36.6007 33.7144 36.575 33.6978C36.5494 33.6806 36.5256 33.661 36.5037 33.6392C36.482 33.6175 36.4625 33.5937 36.4456 33.568C36.4287 33.5426 36.4143 33.5156 36.4025 33.4874C36.3908 33.4589 36.3819 33.4294 36.3758 33.3992C36.3633 33.3389 36.3633 33.2767 36.3758 33.2164C36.3818 33.1864 36.3908 33.1571 36.4025 33.1288C36.4142 33.1004 36.4286 33.0732 36.4456 33.0477C36.4796 32.9962 36.5236 32.9522 36.575 32.9183C36.6006 32.9014 36.6277 32.8869 36.6561 32.8752C36.6843 32.8632 36.7137 32.8543 36.7438 32.8485C36.8042 32.8363 36.8665 32.8363 36.927 32.8485C36.9571 32.8543 36.9865 32.8632 37.0147 32.8752C37.043 32.887 37.0701 32.9015 37.0958 32.9183C37.1212 32.9353 37.1449 32.9548 37.1666 32.9764C37.1885 32.9981 37.2081 33.022 37.2252 33.0477C37.2422 33.0732 37.2566 33.1004 37.2683 33.1288C37.28 33.1571 37.2889 33.1864 37.295 33.2164C37.3069 33.2768 37.3069 33.3389 37.295 33.3992H37.2969ZM38.5414 32.4674C38.596 32.4134 38.663 32.3735 38.7365 32.3512C38.81 32.3289 38.8879 32.3249 38.9633 32.3394C38.9933 32.3456 39.0226 32.3545 39.0509 32.3661C39.0791 32.3779 39.1061 32.3923 39.1316 32.4092C39.1572 32.4261 39.1811 32.4456 39.2028 32.4674C39.2907 32.5553 39.3401 32.6745 39.3401 32.7988C39.3401 32.9231 39.2907 33.0423 39.2028 33.1302C39.1811 33.1521 39.1573 33.1717 39.1316 33.1888C39.1061 33.2057 39.0791 33.2201 39.0509 33.2319C39.0226 33.2435 38.9933 33.2524 38.9633 33.2586C38.9324 33.2647 38.901 33.2677 38.8695 33.2675C38.8388 33.2676 38.8082 33.2646 38.7781 33.2586C38.7481 33.2526 38.7188 33.2436 38.6905 33.2319C38.662 33.2198 38.6348 33.2049 38.6094 33.1874C38.5837 33.1703 38.5598 33.1507 38.5381 33.1288C38.4502 33.0409 38.4009 32.9217 38.4009 32.7974C38.4009 32.6731 38.4502 32.5539 38.5381 32.466L38.5414 32.4674Z" fill="#5891EF"/>
<path d="M30.4733 26.1427C27.4962 26.1427 24.6903 25.7091 22.5725 24.9211C21.4602 24.5072 20.5939 24.0117 20 23.4609V27.2011C20 28.0655 21.057 28.9547 22.8997 29.6386C24.9153 30.3886 27.605 30.8016 30.4733 30.8016C33.3416 30.8016 36.0312 30.3905 38.0469 29.6405C39.8895 28.9547 40.9466 28.0655 40.9466 27.203V23.4609C40.3527 24.0117 39.4864 24.5072 38.3736 24.9211C36.2563 25.7091 33.4503 26.1427 30.4733 26.1427ZM35.2587 28.3125C35.2527 28.3425 35.2438 28.3719 35.232 28.4002C35.2204 28.4286 35.2059 28.4557 35.1889 28.4813C35.1719 28.5068 35.1524 28.5307 35.1308 28.5525C35.109 28.5742 35.0851 28.5936 35.0595 28.6106C35.0339 28.6275 35.0067 28.6419 34.9784 28.6537C34.9502 28.6657 34.9209 28.6746 34.8908 28.6805C34.8303 28.693 34.768 28.693 34.7075 28.6805C34.6774 28.6746 34.6481 28.6657 34.6198 28.6537C34.5915 28.6419 34.5644 28.6275 34.5387 28.6106C34.5132 28.5936 34.4893 28.5742 34.4675 28.5525C34.4457 28.5308 34.4263 28.5069 34.4094 28.4813C34.3923 28.4557 34.3779 28.4286 34.3663 28.4002C34.3545 28.3719 34.3456 28.3425 34.3395 28.3125C34.327 28.2522 34.327 28.19 34.3395 28.1297C34.3456 28.0997 34.3545 28.0703 34.3663 28.042C34.3779 28.0136 34.3923 27.9865 34.4094 27.9609C34.4263 27.9353 34.4457 27.9114 34.4675 27.8897C34.4893 27.868 34.5132 27.8486 34.5387 27.8316C34.5644 27.8147 34.5915 27.8003 34.6198 27.7884C34.6481 27.7765 34.6774 27.7676 34.7075 27.7617C34.768 27.7495 34.8303 27.7495 34.8908 27.7617C34.9209 27.7676 34.9502 27.7765 34.9784 27.7884C35.0067 27.8003 35.0339 27.8147 35.0595 27.8316C35.1238 27.8741 35.1765 27.932 35.2128 28C35.2491 28.068 35.268 28.144 35.2677 28.2211C35.2677 28.2518 35.2648 28.2824 35.2587 28.3125ZM37.2969 27.8016C37.2908 27.8316 37.2818 27.8609 37.2702 27.8892C37.2584 27.9174 37.244 27.9444 37.227 27.9698C37.21 27.9955 37.1904 28.0194 37.1684 28.0411C37.1468 28.0629 37.1231 28.0825 37.0977 28.0997C37.072 28.1165 37.0449 28.131 37.0166 28.1428C36.9597 28.1665 36.8987 28.1786 36.837 28.1784C36.8063 28.1785 36.7757 28.1755 36.7456 28.1695C36.7156 28.1635 36.6863 28.1545 36.658 28.1428C36.6296 28.1311 36.6025 28.1166 36.5769 28.0997C36.5256 28.0654 36.4816 28.0213 36.4475 27.9698C36.4306 27.9444 36.4161 27.9174 36.4044 27.8892C36.3927 27.8609 36.3838 27.8316 36.3777 27.8016C36.3714 27.7707 36.3682 27.7393 36.3683 27.7078C36.3684 27.6771 36.3715 27.6465 36.3777 27.6164C36.3837 27.5864 36.3927 27.557 36.4044 27.5287C36.4161 27.5004 36.4306 27.4732 36.4475 27.4477C36.4814 27.3962 36.5254 27.3522 36.5769 27.3183C36.6025 27.3013 36.6296 27.2869 36.658 27.2752C36.6863 27.2634 36.7156 27.2545 36.7456 27.2484C36.8061 27.2363 36.8684 27.2363 36.9289 27.2484C36.9589 27.2545 36.9883 27.2634 37.0166 27.2752C37.0449 27.287 37.072 27.3014 37.0977 27.3183C37.1231 27.3353 37.1468 27.3548 37.1684 27.3764C37.1904 27.3981 37.21 27.422 37.227 27.4477C37.2441 27.4732 37.2585 27.5004 37.2702 27.5287C37.2819 27.557 37.2908 27.5864 37.2969 27.6164C37.3029 27.6465 37.3059 27.6771 37.3058 27.7078C37.306 27.7393 37.303 27.7707 37.2969 27.8016ZM38.4134 27.1092C38.4255 27.0491 38.4492 26.9919 38.4833 26.9409C38.5166 26.8903 38.5594 26.8467 38.6094 26.8125C38.6349 26.7955 38.6621 26.781 38.6905 26.7694C38.7188 26.7577 38.7481 26.7487 38.7781 26.7427C38.8386 26.7305 38.9009 26.7305 38.9614 26.7427C38.9914 26.7488 39.0207 26.7578 39.0491 26.7694C39.0773 26.7811 39.1043 26.7956 39.1297 26.8125C39.1554 26.8295 39.1793 26.8492 39.2009 26.8711C39.2445 26.9146 39.279 26.9662 39.3027 27.023C39.3144 27.0513 39.3233 27.0806 39.3294 27.1106C39.3355 27.1415 39.3385 27.1729 39.3383 27.2044C39.338 27.3286 39.2886 27.4477 39.2009 27.5358C39.1792 27.5575 39.1554 27.577 39.1297 27.5939C39.1043 27.6108 39.0773 27.6253 39.0491 27.637C39.0207 27.6486 38.9914 27.6576 38.9614 27.6638C38.9306 27.67 38.8991 27.6732 38.8677 27.6731C38.837 27.673 38.8063 27.6699 38.7762 27.6638C38.7462 27.6577 38.7169 27.6488 38.6886 27.637C38.6602 27.6254 38.633 27.6109 38.6075 27.5939C38.5818 27.577 38.5579 27.5575 38.5363 27.5358C38.5146 27.514 38.4951 27.4901 38.4781 27.4645C38.4613 27.4389 38.4468 27.4117 38.435 27.3834C38.4233 27.3552 38.4143 27.3258 38.4083 27.2958C38.402 27.2649 38.3988 27.2335 38.3989 27.202C38.3999 27.1708 38.4039 27.1397 38.4111 27.1092H38.4134Z" fill="#5891EF"/>
<path d="M22.8997 24.0422C24.9153 24.7922 27.605 25.2052 30.4733 25.2052C33.3416 25.2052 36.0312 24.7922 38.0469 24.0422C39.8895 23.3564 40.9466 22.4677 40.9466 21.6047C40.9466 20.7417 39.8895 19.8506 38.0469 19.1672C36.0312 18.413 33.3416 18 30.4733 18C27.605 18 24.9153 18.413 22.8997 19.163C21.057 19.8487 20 20.738 20 21.6028C20 22.4677 21.057 23.3564 22.8997 24.0422Z" fill="#5891EF"/>
</g>
</g>
<defs>
<clipPath id="clip0_1_14193">
<rect width="21.8899" height="24" fill="white" transform="translate(19 18)"/>
</clipPath>
<clipPath id="clip1_1_14193">
<rect width="20.9466" height="24" fill="white" transform="translate(20 18)"/>
</clipPath>
</defs>
</svg>
