<svg width="61" height="60" viewBox="0 0 61 60" fill="none" xmlns="http://www.w3.org/2000/svg">
<rect opacity="0.1" x="0.272461" width="60" height="60" rx="30" fill="#009FAC"/>
<g clip-path="url(#clip0_1_14238)">
<path d="M35.7851 19H24.3952C22.0372 19.0021 20.1263 20.8175 20.124 23.0576V37.7424C20.1263 39.9825 22.0372 41.7979 24.3952 41.8H35.7851C38.1431 41.7979 40.054 39.9825 40.0563 37.7424V23.0576C40.054 20.8175 38.143 19.0021 35.7851 19ZM30.0901 36.3241H25.2087C24.6471 36.3241 24.1918 35.8916 24.1918 35.358C24.1918 34.8244 24.6471 34.3919 25.2087 34.3919H30.0901C30.6518 34.3919 31.1071 34.8244 31.1071 35.358C31.1071 35.8916 30.6518 36.3241 30.0901 36.3241ZM34.9715 31.4318H25.2087C24.6471 31.4318 24.1918 30.9993 24.1918 30.4657C24.1918 29.9321 24.6471 29.4996 25.2087 29.4996H34.9714C35.5331 29.4996 35.9884 29.9321 35.9884 30.4657C35.9884 30.9993 35.5331 31.4318 34.9715 31.4318ZM34.9715 26.4081H25.2087C24.6471 26.4081 24.1918 25.9756 24.1918 25.442C24.1918 24.9084 24.6471 24.4759 25.2087 24.4759H34.9714C35.5331 24.4759 35.9884 24.9084 35.9884 25.442C35.9884 25.9755 35.5331 26.4081 34.9715 26.4081Z" fill="#009FAC"/>
</g>
<defs>
<clipPath id="clip0_1_14238">
<rect width="24" height="22.8" fill="white" transform="translate(18.0908 19)"/>
</clipPath>
</defs>
</svg>
