<svg width="82" height="82" viewBox="0 0 82 82" fill="none" xmlns="http://www.w3.org/2000/svg">
<path d="M41.6194 56.2692V8.94522C41.6194 4.69613 38.1655 1.24219 33.9164 1.24219C29.6673 1.24219 26.2134 4.69613 26.2134 8.94522V56.2692C22.7346 58.7043 20.4609 62.7298 20.4609 67.3019C20.4609 74.7316 26.4867 80.7573 33.9164 80.7573C41.3461 80.7573 47.3718 74.7316 47.3718 67.3019C47.3843 62.7298 45.0982 58.7043 41.6194 56.2692Z" fill="#DEDEDF"/>
<path d="M39.1589 59.7853L37.3201 58.5056V21.792H30.4992V58.5056L28.6604 59.7853C26.2004 61.4999 24.7344 64.3077 24.7344 67.2896C24.7344 72.3462 28.8468 76.4587 33.9035 76.4587C38.9601 76.4587 43.0726 72.3462 43.0726 67.2896C43.085 64.3202 41.6189 61.5123 39.1589 59.7853Z" fill="#FF6644"/>
<path d="M45.1484 9.83984H54.2181V12.2253H45.1484V9.83984Z" fill="#FF6644"/>
<path d="M45.1484 14.623H49.6833V17.0085H45.1484V14.623Z" fill="#FF6644"/>
<path d="M45.1484 19.4062H54.2181V21.7917H45.1484V19.4062Z" fill="#FF6644"/>
<path d="M45.1484 24.1895H49.6833V26.5749H45.1484V24.1895Z" fill="#FF6644"/>
<path d="M45.1484 28.9609H61.536V31.3464H45.1484V28.9609Z" fill="#DEDEDF"/>
<path d="M45.1484 33.7441H49.6833V36.1296H45.1484V33.7441Z" fill="#6EB1E1"/>
<path d="M45.1484 38.5273H54.2181V40.9128H45.1484V38.5273Z" fill="#6EB1E1"/>
<path d="M45.1484 43.3105H49.6833V45.696H45.1484V43.3105Z" fill="#6EB1E1"/>
<path d="M45.1484 48.0938H54.2181V50.4792H45.1484V48.0938Z" fill="#6EB1E1"/>
</svg>
