<svg width="24" height="28" viewBox="0 0 24 28" fill="none" xmlns="http://www.w3.org/2000/svg">
<path d="M9.29303 5.43666L10.096 7.66666C10.988 10.1417 12.937 12.0907 15.412 12.9827L17.642 13.7857C17.843 13.8587 17.843 14.1437 17.642 14.2157L15.412 15.0187C12.937 15.9107 10.988 17.8597 10.096 20.3347L9.29303 22.5647C9.22003 22.7657 8.93503 22.7657 8.86303 22.5647L8.06003 20.3347C7.16803 17.8597 5.21903 15.9107 2.74403 15.0187L0.514031 14.2157C0.313031 14.1427 0.313031 13.8577 0.514031 13.7857L2.74403 12.9827C5.21903 12.0907 7.16803 10.1417 8.06003 7.66666L8.86303 5.43666C8.93503 5.23466 9.22003 5.23466 9.29303 5.43666Z" fill="#009FAC"/>
<path d="M19.3311 0.07725L19.7381 1.20625C20.1901 2.45925 21.1771 3.44625 22.4301 3.89825L23.5591 4.30525C23.6611 4.34225 23.6611 4.48625 23.5591 4.52325L22.4301 4.93025C21.1771 5.38225 20.1901 6.36925 19.7381 7.62225L19.3311 8.75125C19.2941 8.85325 19.1501 8.85325 19.1131 8.75125L18.7061 7.62225C18.2541 6.36925 17.2671 5.38225 16.0141 4.93025L14.8851 4.52325C14.7831 4.48625 14.7831 4.34225 14.8851 4.30525L16.0141 3.89825C17.2671 3.44625 18.2541 2.45925 18.7061 1.20625L19.1131 0.07725C19.1501 -0.02575 19.2951 -0.02575 19.3311 0.07725Z" fill="#009FAC"/>
<path d="M19.3311 19.2503L19.7381 20.3793C20.1901 21.6323 21.1771 22.6193 22.4301 23.0713L23.5591 23.4783C23.6611 23.5153 23.6611 23.6593 23.5591 23.6963L22.4301 24.1033C21.1771 24.5553 20.1901 25.5423 19.7381 26.7953L19.3311 27.9243C19.2941 28.0263 19.1501 28.0263 19.1131 27.9243L18.7061 26.7953C18.2541 25.5423 17.2671 24.5553 16.0141 24.1033L14.8851 23.6963C14.7831 23.6593 14.7831 23.5153 14.8851 23.4783L16.0141 23.0713C17.2671 22.6193 18.2541 21.6323 18.7061 20.3793L19.1131 19.2503C19.1501 19.1483 19.2951 19.1483 19.3311 19.2503Z" fill="#009FAC"/>
</svg>
