<svg width="20" height="20" viewBox="0 0 20 20" fill="none" xmlns="http://www.w3.org/2000/svg">
<path d="M5.03932 4.03123L6.7737 4.98045C6.99635 5.10155 7.07838 5.37889 6.95729 5.60155C6.91432 5.67967 6.85182 5.74217 6.7737 5.78514L5.03932 6.73045C4.9612 6.77342 4.8987 6.83592 4.85573 6.91405L3.90651 8.64842C3.78542 8.87108 3.50807 8.95311 3.28542 8.83202C3.20729 8.78905 3.14479 8.72655 3.10182 8.64842L2.15651 6.91405C2.11354 6.83592 2.05104 6.77342 1.97292 6.73045L0.238541 5.78514C0.0158846 5.66405 -0.0661466 5.3867 0.0549471 5.16405C0.0979159 5.08592 0.160416 5.02342 0.238541 4.98045L1.97292 4.03123C2.05104 3.98827 2.11354 3.92577 2.15651 3.84764L3.10573 2.11717C3.22682 1.89452 3.50807 1.81248 3.73073 1.93748C3.80495 1.98045 3.86745 2.04295 3.91042 2.11717L4.85963 3.84764C4.8987 3.92577 4.9612 3.98827 5.03932 4.03123Z" fill="#009FAC"/>
<path d="M17.9495 13.2893L19.6839 14.2385C19.9065 14.3596 19.9885 14.637 19.8674 14.8596C19.8245 14.9378 19.762 15.0003 19.6839 15.0432L17.9495 15.9924C17.8714 16.0354 17.8089 16.0979 17.7659 16.176L16.8167 17.9104C16.6956 18.1331 16.4143 18.2151 16.1917 18.094C16.1135 18.051 16.051 17.9885 16.0081 17.9104L15.0667 16.1721C15.0237 16.094 14.9612 16.0315 14.8831 15.9885L13.1487 15.0393C12.926 14.9182 12.844 14.637 12.9651 14.4143C13.0081 14.3362 13.0706 14.2737 13.1487 14.2307L14.8831 13.2815C14.9612 13.2385 15.0237 13.176 15.0667 13.0979L16.0159 11.3674C16.137 11.1448 16.4182 11.0628 16.6409 11.1839C16.719 11.2268 16.7815 11.2893 16.8245 11.3674L17.7737 13.1018C17.8089 13.1839 17.8714 13.2464 17.9495 13.2893Z" fill="#009FAC"/>
<path d="M10.4419 2.04736L11.5786 2.66846C11.7231 2.75049 11.7778 2.93408 11.6997 3.07861C11.6724 3.1294 11.6294 3.16846 11.5786 3.19971L10.4419 3.8208C10.3911 3.84815 10.3481 3.89111 10.3208 3.9419L9.69971 5.07861C9.61768 5.22315 9.43408 5.27783 9.28955 5.19971C9.23877 5.17236 9.19971 5.1294 9.16846 5.07861L8.54737 3.9419C8.52002 3.89111 8.47705 3.84815 8.42627 3.8208L7.28955 3.19971C7.14502 3.12158 7.09033 2.93799 7.16846 2.78955C7.1958 2.73877 7.23877 2.6958 7.28955 2.66846L8.42627 2.04736C8.47705 2.02002 8.52002 1.97705 8.54737 1.92627L9.16846 0.789553C9.25049 0.645022 9.43408 0.590334 9.57861 0.668459C9.6294 0.695803 9.66846 0.738772 9.69971 0.789553L10.3208 1.92627C10.3481 1.97705 10.3911 2.02002 10.4419 2.04736Z" fill="#009FAC"/>
<path d="M19.5552 2.56641L17.9497 0.960942C17.356 0.367192 16.3911 0.363286 15.7935 0.957036C15.7935 0.957036 15.7935 0.957036 15.7896 0.960942L1.47705 15.2774C0.883302 15.8711 0.879396 16.8359 1.47705 17.4336L3.08252 19.0391C3.67627 19.6328 4.64111 19.6367 5.23877 19.0391L19.5552 4.72266C20.1489 4.12891 20.1489 3.16407 19.5552 2.56641ZM13.9731 7.98047L12.5356 6.54297L16.7739 2.30079L18.2114 3.73829L13.9731 7.98047Z" fill="#009FAC"/>
</svg>
