<svg width="24" height="24" viewBox="0 0 24 24" fill="none" xmlns="http://www.w3.org/2000/svg">
<path d="M2.58008 12.0003C2.58008 16.3841 5.73104 20.2952 10.0218 21.2122C12.1657 21.6704 14.4454 21.3617 16.3854 20.3396C18.2523 19.3558 19.7612 17.743 20.6163 15.8134C21.506 13.8063 21.661 11.502 21.0543 9.39243C20.4692 7.35723 19.185 5.55267 17.461 4.32411C13.857 1.75539 8.7944 2.09883 5.56496 5.12091C3.67232 6.89211 2.58008 9.40779 2.58008 12.0003ZM12.5034 7.48131L15.1333 10.0493C15.7993 10.6995 14.7903 11.7272 14.1274 11.0796L12.8005 9.78387L12.8005 15.9245C12.8005 16.3606 12.4364 16.7244 12.0006 16.7244C11.5647 16.7244 11.2006 16.3604 11.2006 15.9245L11.2006 9.81459L9.87944 11.136C9.2228 11.7927 8.20448 10.7746 8.86112 10.118L11.4915 7.48731C11.7702 7.20843 12.2214 7.20579 12.5034 7.48131Z" fill="#717784"/>
</svg>
