<svg width="40" height="40" viewBox="0 0 40 40" fill="none" xmlns="http://www.w3.org/2000/svg">
<g clip-path="url(#clip0_732_52089)">
<path d="M10.465 8.18167C10.465 7.10301 11.3395 6.22852 12.4181 6.22852H37.8091C38.8878 6.22852 39.7623 7.10301 39.7623 8.18167C39.7623 9.26033 38.8878 10.1348 37.8091 10.1348H12.4181C11.3395 10.1348 10.465 9.26025 10.465 8.18167ZM37.8091 17.9474H2.65237C1.57371 17.9474 0.699219 18.822 0.699219 19.9006C0.699219 20.9793 1.57371 21.8537 2.65237 21.8537H37.8091C38.8878 21.8537 39.7623 20.9793 39.7623 19.9006C39.7623 18.822 38.8878 17.9474 37.8091 17.9474ZM37.8091 29.6664H20.2308C19.1522 29.6664 18.2776 30.5409 18.2776 31.6195C18.2776 32.6981 19.1522 33.5727 20.2308 33.5727H37.8091C38.8878 33.5727 39.7623 32.6981 39.7623 31.6195C39.7623 30.5409 38.8878 29.6664 37.8091 29.6664Z" fill="black"/>
</g>
<defs>
<clipPath id="clip0_732_52089">
<rect width="39.0631" height="39.0631" fill="white" transform="translate(0.699219 0.368164)"/>
</clipPath>
</defs>
</svg>
