<svg width="38" height="38" viewBox="0 0 38 38" fill="none" xmlns="http://www.w3.org/2000/svg">
<g clip-path="url(#clip0_1_7305)">
<rect width="38" height="38" rx="19" fill="#E4E4E4"/>
<path d="M38.3675 22.6147C40.1663 11.9086 32.9455 1.77123 22.2393 -0.0276129C11.5331 -1.82645 1.39577 5.39438 -0.403069 16.1006C-2.20191 26.8068 5.01892 36.9441 15.7251 38.7429C26.4313 40.5418 36.5686 33.3209 38.3675 22.6147Z" fill="#F4E6E1"/>
<mask id="mask0_1_7305" style="mask-type:luminance" maskUnits="userSpaceOnUse" x="-1" y="-1" width="40" height="41">
<path d="M38.3675 22.6147C40.1663 11.9086 32.9455 1.77123 22.2393 -0.027614C11.5331 -1.82645 1.39577 5.39438 -0.403069 16.1006C-2.20191 26.8068 5.01892 36.9441 15.7251 38.7429C26.4313 40.5418 36.5686 33.3209 38.3675 22.6147Z" fill="white"/>
</mask>
<g mask="url(#mask0_1_7305)">
<path d="M26.4091 15.7715C29.1142 10.9006 26.9716 8.10813 25.2401 9.02169C25.2401 9.02169 24.9779 6.00118 21.0133 4.18021C16.4261 2.07325 10.5009 3.71561 9.34565 6.88962C8.27988 9.8184 10.1834 11.2299 10.1834 11.2299C10.1834 11.2299 9.00509 13.3348 11.0208 16.4839C13.0368 19.6331 25.198 17.9525 26.4091 15.7715Z" fill="#5B4852"/>
<path d="M36.1049 39.4256H1.85938C1.85938 39.4256 2.89773 33.6821 5.25146 30.3758C7.60519 27.0675 16.3405 25.8613 16.3405 25.8613L18.982 26.2688L21.6235 25.8613C21.6235 25.8613 30.3617 27.0675 32.7154 30.3758C35.0691 33.6821 36.1049 39.4256 36.1049 39.4256Z" fill="#D88D48"/>
<path d="M16.3404 25.8613L12.958 26.4956C12.958 26.4956 13.7378 30.3212 16.8301 32.2337L18.9298 29.6606V26.9005L16.3404 25.8613Z" fill="#FAFAFA"/>
<path d="M21.3893 25.8613L24.7716 26.4956C24.7716 26.4956 23.9918 30.3212 20.8996 32.2337L18.7998 29.6606V26.9005L21.3893 25.8613Z" fill="#FAFAFA"/>
<path d="M18.9251 28.7782C17.6438 28.7782 16.6055 27.7396 16.6055 26.4583V22.0271H21.245V26.4583C21.245 27.7396 20.2064 28.7782 18.9251 28.7782Z" fill="#F1B69A"/>
<path d="M21.2448 21.5144V24.2351C21.2448 24.2351 20.4657 25.5897 18.9249 25.5897C17.6869 25.5897 16.6055 24.4152 16.6055 24.4152V21.5144H21.2448Z" fill="#150A08"/>
<path d="M12.435 16.7515C11.1806 14.8457 9.72584 16.0701 9.72559 17.4116C9.72559 19.3543 11.8328 21.0274 13.037 19.6331C14.2411 18.2386 12.435 16.7515 12.435 16.7515Z" fill="#F1B69A"/>
<path d="M12.1605 17.6317C11.3799 16.1726 10.3008 17.5341 10.7129 18.0745" stroke="#E07E61" stroke-width="0.256258" stroke-miterlimit="10" stroke-linecap="round"/>
<path d="M24.9662 16.7515C26.2206 14.8457 27.6754 16.0701 27.6754 17.4116C27.6754 19.3543 25.5682 21.0274 24.364 19.6331C23.1601 18.2386 24.9662 16.7515 24.9662 16.7515Z" fill="#F1B69A"/>
<path d="M25.2402 17.6317C26.0208 16.1726 27.0999 17.5341 26.6878 18.0745" stroke="#E07E61" stroke-width="0.256258" stroke-miterlimit="10" stroke-linecap="round"/>
<path d="M18.6944 24.235C13.7376 24.233 10.8065 18.8164 11.9653 13.2549C12.9199 8.67196 24.4805 8.67375 25.435 13.2549C26.5938 18.8167 23.6535 24.2371 18.6944 24.235Z" fill="#F1B69A"/>
<path opacity="0.5" d="M18.0361 18.6675C18.5463 18.9109 19.6954 18.371 19.7192 18.6675C19.7431 18.964 19.1093 19.2264 18.8777 19.2264C18.646 19.2264 18.0361 18.6675 18.0361 18.6675Z" fill="#F1B69A"/>
<path d="M18.0525 17.1731C17.3291 18.7368 18.4107 19.0402 18.7003 19.0779" stroke="#E07E61" stroke-width="0.256258" stroke-miterlimit="10" stroke-linecap="round"/>
<path d="M16.9697 19.9278C18.8832 20.2952 20.4005 19.989 21.0132 19.4988" stroke="#150A08" stroke-width="0.256258" stroke-miterlimit="10" stroke-linecap="round"/>
<path d="M16.74 12.9115C16.4301 12.2199 14.6151 12.5361 14.3585 13.0286C14.1018 13.5211 14.9513 13.6595 15.5817 13.6285C16.2121 13.5975 16.9373 13.3518 16.74 12.9115Z" fill="#150A08"/>
<path d="M20.661 12.9115C20.9708 12.2199 22.7858 12.5361 23.0424 13.0286C23.2989 13.5211 22.4496 13.6595 21.8192 13.6285C21.1888 13.5975 20.4636 13.3518 20.661 12.9115Z" fill="#150A08"/>
<path opacity="0.5" d="M18.2543 20.8709C18.9483 20.8727 19.9433 20.5117 20.0973 20.8709C20.2513 21.2302 19.4041 21.9485 18.8785 21.8973C18.3527 21.846 17.4617 20.8689 18.2543 20.8709Z" fill="#F1B69A"/>
<path d="M15.4287 15.5775C15.4287 15.853 15.6519 16.0762 15.9274 16.0762C16.2029 16.0762 16.4261 15.853 16.4261 15.5775C16.4261 15.3021 16.2029 15.0789 15.9274 15.0789C15.6519 15.0789 15.4287 15.3021 15.4287 15.5775Z" fill="#150A08"/>
<path d="M21.972 15.5775C21.972 15.853 21.7488 16.0762 21.4733 16.0762C21.1978 16.0762 20.9746 15.853 20.9746 15.5775C20.9746 15.3021 21.1978 15.0789 21.4733 15.0789C21.7488 15.0789 21.972 15.3021 21.972 15.5775Z" fill="#150A08"/>
<path d="M23.0889 9.81836C21.804 12.7002 18.9913 11.0592 18.9913 11.0592C18.9913 11.0592 17.1468 12.7871 14.3113 12.5116C11.4758 12.2359 9.99872 8.83663 13.4505 7.39825C16.9023 5.95988 24.8958 5.76666 23.0889 9.81836Z" fill="#5B4852"/>
</g>
</g>
<defs>
<clipPath id="clip0_1_7305">
<rect width="38" height="38" rx="19" fill="white"/>
</clipPath>
</defs>
</svg>
