<svg width="32" height="32" viewBox="0 0 32 32" fill="none" xmlns="http://www.w3.org/2000/svg">
<path d="M3.19922 27.2002C3.19922 28.084 3.91549 28.8002 4.79922 28.8002H6.93255V25.0669H4.26589C4.26589 25.0669 3.19922 25.0669 3.19922 27.2002Z" fill="#5AA064"/>
<path d="M28.8004 6.39987V29.3332C28.8004 30.5113 27.8452 31.4665 26.6671 31.4665H8.53372C7.35559 31.4665 6.40039 30.5113 6.40039 29.3332V2.66654C6.40039 1.4884 7.35559 0.533203 8.53372 0.533203H22.9337L28.8004 6.39987Z" fill="#E8ECEF"/>
<path d="M28.8003 6.39987H23.4669C23.1736 6.39987 22.9336 6.15987 22.9336 5.86654V0.533203L28.8003 6.39987Z" fill="#C7D0DD"/>
<path d="M4.79922 25.5998H23.9992C24.8829 25.5998 25.5992 24.8835 25.5992 23.9998V16.5331C25.5992 15.6494 24.8829 14.9331 23.9992 14.9331H4.79922C3.91549 14.9331 3.19922 15.6494 3.19922 16.5331V27.1998C3.19922 26.316 3.91549 25.5998 4.79922 25.5998Z" fill="#61C161"/>
<path d="M21.4861 17.0895C21.2023 17.0063 20.9063 17.1652 20.8221 17.4473L19.733 21.0777L18.644 17.4473C18.5592 17.1652 18.2632 17.0063 17.98 17.0895C17.6978 17.1743 17.5378 17.4719 17.6221 17.7535L19.2221 23.0868C19.2898 23.3124 19.4978 23.4671 19.733 23.4671C19.9682 23.4671 20.1762 23.3124 20.244 23.0868L21.844 17.7535C21.9282 17.4719 21.7682 17.1743 21.4861 17.0895Z" fill="white"/>
<path d="M9.06693 18.1336C9.65519 18.1336 10.1336 18.612 10.1336 19.2002C10.1336 19.4952 10.372 19.7336 10.6669 19.7336C10.9619 19.7336 11.2003 19.4952 11.2003 19.2002C11.2003 18.0237 10.2435 17.0669 9.06693 17.0669C7.89039 17.0669 6.93359 18.0237 6.93359 19.2002V21.3336C6.93359 22.5101 7.89039 23.4669 9.06693 23.4669C10.2435 23.4669 11.2003 22.5101 11.2003 21.3336C11.2003 21.0386 10.9619 20.8002 10.6669 20.8002C10.372 20.8002 10.1336 21.0386 10.1336 21.3336C10.1336 21.9218 9.65519 22.4002 9.06693 22.4002C8.47866 22.4002 8.00026 21.9218 8.00026 21.3336V19.2002C8.00026 18.612 8.47866 18.1336 9.06693 18.1336Z" fill="white"/>
<path d="M14.53 19.7495C13.6036 19.5175 13.3342 19.3826 13.3342 18.9335C13.3342 18.4999 13.8228 18.1335 14.4009 18.1335C15.1556 18.1335 15.5156 18.7228 15.5369 18.7596C15.6814 19.014 16.003 19.1053 16.2596 18.9628C16.5166 18.8199 16.61 18.4956 16.467 18.238C16.4404 18.19 15.8014 17.0674 14.4009 17.0674C13.2244 17.0674 12.2676 17.9047 12.2676 18.934C12.2676 20.2839 13.4734 20.5853 14.2718 20.7847C15.1982 21.0167 15.4676 21.1516 15.4676 21.6007C15.4676 22.0343 14.979 22.4007 14.4009 22.4007C13.6393 22.4007 13.2793 21.7996 13.267 21.7788C13.1241 21.5218 12.8009 21.4279 12.5422 21.5714C12.2852 21.7143 12.1918 22.0386 12.3348 22.2962C12.3614 22.3442 13.0004 23.4669 14.4009 23.4669C15.5774 23.4669 16.5342 22.6295 16.5342 21.6002C16.5342 20.2503 15.3284 19.949 14.53 19.7495Z" fill="white"/>
</svg>
