<svg width="29" height="29" viewBox="0 0 29 29" fill="none" xmlns="http://www.w3.org/2000/svg">
<g clip-path="url(#clip0_732_28498)">
<path d="M3.35408 12.1968L1.82422 13.7312H3.35408V12.1968Z" fill="#088FAF"/>
<path d="M25.6426 12.1968L27.173 13.7312H25.6426V12.1968Z" fill="#088FAF"/>
<path d="M25.6609 6.19029C25.6608 6.04008 25.6011 5.89604 25.4949 5.78984L19.8637 0.158633C19.7575 0.0524037 19.6135 -0.00729214 19.4632 -0.00732422H3.91992C3.7697 -0.00732422 3.62563 0.0523506 3.51941 0.158572C3.41319 0.264794 3.35352 0.408862 3.35352 0.559082V28.4263C3.35352 28.5765 3.41319 28.7206 3.51941 28.8268C3.62563 28.933 3.7697 28.9927 3.91992 28.9927H25.0945C25.2447 28.9927 25.3887 28.933 25.495 28.8268C25.6012 28.7206 25.6609 28.5765 25.6609 28.4263V6.19029Z" fill="#F1F1F1"/>
<path d="M25.6438 6.04926C25.6191 5.95106 25.5682 5.8614 25.4965 5.78984L19.8653 0.158633C19.7591 0.0524037 19.6151 -0.00729214 19.4648 -0.00732422V5.369C19.4648 5.54927 19.5365 5.72215 19.6639 5.84962C19.7914 5.97708 19.9643 6.04869 20.1445 6.04869L25.6438 6.04926Z" fill="#CCCCCC"/>
<path d="M25.6432 6.04932H20.1445C19.9643 6.04932 19.7914 5.97771 19.6639 5.85024C19.5365 5.72277 19.4648 5.54989 19.4648 5.36963V5.94453C19.4648 6.32006 19.6982 6.79414 20.1661 6.79414H25.6602V6.19035C25.6638 6.14268 25.658 6.09477 25.6432 6.04932Z" fill="#E8E8E8"/>
<path d="M26.741 23.3454H2.25977C2.10955 23.3454 1.96548 23.2858 1.85926 23.1795C1.75303 23.0733 1.69336 22.9292 1.69336 22.779V14.0938C1.69336 13.9435 1.75303 13.7995 1.85926 13.6932C1.96548 13.587 2.10955 13.5273 2.25977 13.5273H26.741C26.8912 13.5273 27.0353 13.587 27.1415 13.6932C27.2477 13.7995 27.3074 13.9435 27.3074 14.0938V22.7785C27.3075 22.8529 27.2929 22.9266 27.2644 22.9954C27.236 23.0642 27.1943 23.1267 27.1417 23.1793C27.0891 23.232 27.0266 23.2738 26.9579 23.3023C26.8891 23.3308 26.8154 23.3454 26.741 23.3454Z" fill="#29ABE1"/>
<path d="M3.35352 23.3457H25.6614V24.0803H3.35352V23.3457Z" fill="#E0E0E0"/>
<path d="M6.76803 20.6318C6.72423 20.5839 6.69061 20.5275 6.6692 20.4662C6.64778 20.4048 6.63901 20.3398 6.64342 20.275V17.243C6.63601 17.178 6.64337 17.1122 6.66495 17.0504C6.68652 16.9886 6.72176 16.9325 6.76803 16.8862C6.81431 16.8399 6.87043 16.8047 6.93221 16.7831C6.99399 16.7615 7.05985 16.7542 7.12487 16.7616H8.27014C8.71269 16.7616 9.09332 16.8418 9.41202 17.0023C9.7213 17.1524 9.97798 17.3925 10.1483 17.6911C10.3183 17.9897 10.4032 18.3449 10.4032 18.7565C10.4032 19.1681 10.3192 19.5268 10.1512 19.8326C9.98411 20.1319 9.72873 20.3722 9.41994 20.5208C9.10125 20.6794 8.71873 20.7587 8.27241 20.7587H7.12487C7.05991 20.7627 6.99481 20.7535 6.93348 20.7317C6.87216 20.7099 6.81588 20.676 6.76803 20.6318ZM8.19594 19.9182C8.58525 19.9182 8.87714 19.8226 9.0716 19.6316C9.26607 19.4405 9.3633 19.1488 9.3633 18.7565C9.3633 18.3634 9.26607 18.0724 9.0716 17.8836C8.87714 17.6948 8.58525 17.6004 8.19594 17.6004H7.68618V19.9182H8.19594Z" fill="white"/>
<path d="M11.8598 20.5552C11.563 20.3911 11.3213 20.1428 11.1654 19.8416C11.005 19.5023 10.9219 19.1316 10.9219 18.7563C10.9219 18.381 11.005 18.0104 11.1654 17.6711C11.321 17.3702 11.5627 17.1225 11.8598 16.9597C12.19 16.7958 12.5537 16.7104 12.9224 16.7104C13.2911 16.7104 13.6548 16.7958 13.985 16.9597C14.2817 17.1224 14.5225 17.3707 14.676 17.6722C14.835 18.012 14.9172 18.3826 14.9167 18.7578C14.9163 19.1329 14.8331 19.5033 14.6732 19.8427C14.5172 20.1439 14.2756 20.3922 13.9787 20.5564C13.6503 20.7225 13.2874 20.809 12.9193 20.809C12.5512 20.809 12.1883 20.7225 11.8598 20.5564V20.5552ZM13.6304 19.6886C13.8003 19.4749 13.8853 19.1641 13.8853 18.7563C13.8853 18.3485 13.7994 18.0387 13.6276 17.8269C13.4561 17.615 13.2211 17.5093 12.9224 17.5097C12.6237 17.51 12.3875 17.6148 12.2138 17.824C12.0439 18.0336 11.9589 18.3444 11.9589 18.7563C11.9589 19.1683 12.0439 19.48 12.2138 19.6915C12.3838 19.9029 12.6199 20.0087 12.9224 20.0087C13.2249 20.0087 13.4609 19.902 13.6304 19.6886Z" fill="white"/>
<path d="M16.3772 20.561C16.0791 20.3976 15.8364 20.1492 15.68 19.8473C15.5178 19.5085 15.4336 19.1377 15.4336 18.7621C15.4336 18.3865 15.5178 18.0156 15.68 17.6768C15.8365 17.3749 16.0792 17.1263 16.3772 16.9626C16.7405 16.7789 17.1457 16.6942 17.5522 16.717C17.9586 16.7399 18.3518 16.8695 18.6921 17.0929C18.7491 17.1306 18.7966 17.181 18.8309 17.2401C18.8615 17.3036 18.8761 17.3736 18.8734 17.444C18.8764 17.5519 18.8413 17.6574 18.7743 17.742C18.7463 17.7796 18.7099 17.8102 18.668 17.8314C18.6261 17.8525 18.5799 17.8636 18.533 17.8638C18.4809 17.8645 18.4291 17.8559 18.38 17.8383C18.3246 17.8161 18.2715 17.7886 18.2215 17.7561C18.1047 17.6837 17.979 17.6266 17.8476 17.5862C17.7298 17.5521 17.6078 17.535 17.4851 17.5352C17.1487 17.5352 16.8983 17.6362 16.7341 17.8383C16.5698 18.0403 16.4877 18.3473 16.4877 18.7592C16.4877 19.1746 16.5698 19.4835 16.7341 19.6859C16.8983 19.8883 17.1487 19.9893 17.4851 19.9889C17.597 19.9882 17.708 19.969 17.8136 19.9323C17.9196 19.8966 18.0555 19.8405 18.2215 19.7652C18.3007 19.7233 18.3597 19.6949 18.397 19.6797C18.4406 19.664 18.4867 19.6565 18.533 19.6576C18.5799 19.6576 18.6262 19.6686 18.6681 19.6898C18.71 19.7109 18.7464 19.7416 18.7743 19.7793C18.8413 19.8637 18.8764 19.969 18.8734 20.0767C18.8755 20.1462 18.8609 20.2151 18.8309 20.2778C18.7974 20.3382 18.7498 20.3897 18.6921 20.4279C18.3209 20.6839 17.8787 20.8168 17.4279 20.8079C17.0623 20.8172 16.7005 20.7321 16.3772 20.561Z" fill="white"/>
<path d="M22.6915 20.3147C22.6919 20.3787 22.6787 20.4421 22.6528 20.5007C22.627 20.5593 22.589 20.6117 22.5414 20.6545C22.4974 20.7002 22.4446 20.7367 22.3862 20.7616C22.3278 20.7865 22.265 20.7994 22.2015 20.7995C22.1349 20.799 22.0692 20.7835 22.0093 20.7541C21.9495 20.7246 21.8971 20.6821 21.856 20.6296L20.8812 19.4622L19.8923 20.6262C19.852 20.6781 19.8005 20.7204 19.7417 20.7498C19.6829 20.7792 19.6182 20.795 19.5524 20.7961C19.4887 20.7958 19.4257 20.7826 19.3673 20.7571C19.3089 20.7317 19.2563 20.6947 19.2126 20.6483C19.1654 20.6051 19.1277 20.5526 19.1019 20.4941C19.076 20.4356 19.0626 20.3724 19.0625 20.3084C19.0639 20.1955 19.1061 20.0868 19.1814 20.0026L20.2695 18.7446L19.2098 17.5149C19.1325 17.4312 19.0882 17.3224 19.0852 17.2085C19.0851 17.1449 19.0985 17.0821 19.1244 17.024C19.1502 16.966 19.188 16.914 19.2353 16.8715C19.28 16.8258 19.3334 16.7896 19.3924 16.7648C19.4513 16.74 19.5146 16.7272 19.5785 16.7271C19.6451 16.7278 19.7107 16.7434 19.7705 16.7728C19.8303 16.8022 19.8828 16.8446 19.924 16.897L20.8818 18.0298L21.8339 16.897C21.8723 16.8443 21.9225 16.8014 21.9806 16.7719C22.0387 16.7424 22.1029 16.727 22.1681 16.7271C22.232 16.7272 22.2951 16.74 22.354 16.7648C22.4128 16.7896 22.4661 16.8259 22.5108 16.8715C22.558 16.914 22.5958 16.966 22.6217 17.024C22.6475 17.0821 22.6609 17.1449 22.6609 17.2085C22.6596 17.3217 22.6173 17.4305 22.5419 17.5149L21.4822 18.7446L22.5646 20.0026C22.6447 20.0869 22.6901 20.1984 22.6915 20.3147Z" fill="white"/>
</g>
<defs>
<clipPath id="clip0_732_28498">
<rect width="29" height="29" fill="white"/>
</clipPath>
</defs>
</svg>
