<svg width="29" height="29" viewBox="0 0 29 29" fill="none" xmlns="http://www.w3.org/2000/svg">
<g clip-path="url(#clip0_732_28513)">
<path d="M25.6609 6.19029C25.6608 6.04008 25.6011 5.89604 25.4949 5.78984L19.8637 0.158633C19.7575 0.0524037 19.6135 -0.00729214 19.4632 -0.00732422H3.91992C3.7697 -0.00732422 3.62563 0.0523506 3.51941 0.158572C3.41319 0.264794 3.35352 0.408862 3.35352 0.559082V28.4263C3.35352 28.5765 3.41319 28.7206 3.51941 28.8268C3.62563 28.933 3.7697 28.9927 3.91992 28.9927H25.0945C25.2447 28.9927 25.3887 28.933 25.495 28.8268C25.6012 28.7206 25.6609 28.5765 25.6609 28.4263V6.19029Z" fill="#F1F1F1"/>
<path d="M3 11H17V25.9333H3V11Z" fill="#2FA860"/>
<path d="M14.2008 13.8003H11.8008L10.0008 16.6003L8.20078 13.8003H5.80078L8.80078 18.467L5.80078 23.1336H8.20078L10.0008 20.3336L11.8008 23.1336H14.2008L11.2008 18.467L14.2008 13.8003Z" fill="white"/>
<path d="M25.6438 6.04926C25.6191 5.95106 25.5682 5.8614 25.4965 5.78984L19.8653 0.158633C19.7591 0.0524037 19.6151 -0.00729214 19.4648 -0.00732422V5.369C19.4648 5.54927 19.5365 5.72215 19.6639 5.84962C19.7914 5.97708 19.9643 6.04869 20.1445 6.04869L25.6438 6.04926Z" fill="#CCCCCC"/>
<path d="M25.6432 6.04932H20.1445C19.9643 6.04932 19.7914 5.97771 19.6639 5.85024C19.5365 5.72277 19.4648 5.54989 19.4648 5.36963V5.94453C19.4648 6.32006 19.6982 6.79414 20.1661 6.79414H25.6602V6.19035C25.6638 6.14268 25.658 6.09477 25.6432 6.04932Z" fill="#E8E8E8"/>
</g>
<defs>
<clipPath id="clip0_732_28513">
<rect width="29" height="29" fill="white"/>
</clipPath>
</defs>
</svg>
