<svg width="33" height="33" viewBox="0 0 33 33" fill="none" xmlns="http://www.w3.org/2000/svg">
<path d="M28.7326 7.80527L21.0627 0.128906H5.49727C4.81406 0.128906 4.25977 0.683203 4.25977 1.36641V23.3256H28.7326V7.80527Z" fill="#EFF3F5"/>
<path d="M21.0625 6.56777C21.0625 7.25098 21.6168 7.80527 22.3 7.80527H28.7389L21.0625 0.128906V6.56777Z" fill="#DBDFE0"/>
<path d="M4.26562 23.3193V31.6338C4.26562 32.317 4.81992 32.8713 5.50313 32.8713H27.501C28.1842 32.8713 28.7385 32.317 28.7385 31.6338V23.3193H4.26562Z" fill="#F1786B"/>
<path d="M10.2219 21.9139C9.82869 21.9139 9.44842 21.7656 9.10037 21.4756C8.51385 20.9857 8.46873 20.4443 8.52674 20.077C8.81033 18.4205 11.8912 16.9059 13.683 16.1582C14.6562 13.7219 15.5006 10.8537 16.0226 8.70098C14.9785 6.46445 14.6111 4.88535 14.9334 3.98945C15.0945 3.54473 15.4232 3.25469 15.8873 3.15156L15.9517 3.13867L16.0162 3.14512C16.0678 3.15156 16.5254 3.22246 16.8992 3.7252C17.3826 4.38262 17.4922 5.44609 17.2215 6.88984C17.1441 7.30234 17.0152 7.89531 16.8476 8.6043C17.8015 10.5895 19.1422 12.7809 20.2379 14.302C21.1531 14.173 22.0232 14.1279 22.758 14.2053C24.1308 14.3471 24.4209 14.9465 24.4724 15.2945C24.5498 15.8037 24.176 16.3322 23.5379 16.6029C22.6549 16.9768 21.2111 16.8801 20.0381 15.359C19.9865 15.2945 19.9349 15.2236 19.8834 15.1527C18.3752 15.4041 16.6221 15.8811 14.8431 16.5449C14.6562 16.6158 14.4758 16.6867 14.2953 16.7576C13.09 19.7096 11.9105 21.4047 10.7826 21.8107C10.6021 21.8816 10.4088 21.9139 10.2219 21.9139ZM13.2512 17.2023C10.6924 18.3561 9.42264 19.4969 9.30662 20.2123C9.28084 20.367 9.28084 20.6055 9.60955 20.8762C9.91248 21.1275 10.2025 21.192 10.5248 21.076C11.4207 20.7537 12.3746 19.2068 13.2512 17.2023ZM20.7922 15.0303C21.6623 16.0551 22.642 16.1389 23.2349 15.8811C23.5443 15.7521 23.7183 15.533 23.699 15.4105C23.6797 15.2816 23.3896 15.0625 22.6806 14.9916C22.1521 14.94 21.514 14.9529 20.7922 15.0303ZM16.564 9.78379C16.1709 11.2984 15.6359 13.1225 15.0107 14.8885C14.9012 15.1914 14.798 15.4814 14.6885 15.765C16.0871 15.2494 17.7758 14.7467 19.3806 14.4438C18.517 13.2127 17.4535 11.5047 16.564 9.78379ZM15.984 3.95078C15.8357 4.00234 15.739 4.09902 15.681 4.2666C15.4554 4.88535 15.7519 6.05195 16.3256 7.43125C16.3771 7.18633 16.4222 6.96074 16.4609 6.75449C16.7574 5.14961 16.4738 4.45996 16.274 4.1957C16.1644 4.04746 16.0484 3.97656 15.984 3.95078Z" fill="#F1786B"/>
<path d="M22.3266 27.599H20.8506V26.0973H22.3266C22.6037 26.0973 22.8293 25.8717 22.8293 25.5945C22.8293 25.3174 22.6037 25.0918 22.3266 25.0918H20.3543C20.0771 25.0918 19.8516 25.3174 19.8516 25.5945V30.5961C19.8516 30.8732 20.0771 31.0988 20.3543 31.0988C20.6314 31.0988 20.857 30.8732 20.857 30.5961V28.598H22.333C22.6102 28.598 22.8357 28.3725 22.8357 28.0953C22.8293 27.8182 22.6037 27.599 22.3266 27.599Z" fill="#EFF3F5"/>
<path d="M11.691 25.0981H10.6727C10.3955 25.0981 10.1699 25.3237 10.1699 25.6009V30.6024C10.1699 30.8796 10.3955 31.1052 10.6727 31.1052C10.9498 31.1052 11.1754 30.8796 11.1754 30.6024V28.6044H11.691C12.6578 28.6044 13.4441 27.8181 13.4441 26.8513C13.4441 25.8845 12.6578 25.0981 11.691 25.0981ZM11.691 27.5989H11.1754V26.0972H11.691C12.1035 26.0972 12.4387 26.4323 12.4387 26.8448C12.4387 27.2573 12.1035 27.5989 11.691 27.5989Z" fill="#EFF3F5"/>
<path d="M16.009 25.0981H14.6941C14.417 25.0981 14.1914 25.3237 14.1914 25.6009V30.6024C14.1914 30.8796 14.417 31.1052 14.6941 31.1052H16.009C17.6654 31.1052 19.0125 29.7581 19.0125 28.1017C19.0125 26.4388 17.6654 25.0981 16.009 25.0981ZM16.009 30.0933H15.1969V26.0907H16.009C17.1111 26.0907 18.007 26.9866 18.007 28.0888C18.0135 29.1974 17.1111 30.0933 16.009 30.0933Z" fill="#EFF3F5"/>
</svg>
