<svg width="24" height="24" viewBox="0 0 24 24" fill="none" xmlns="http://www.w3.org/2000/svg">
<path fill-rule="evenodd" clip-rule="evenodd" d="M18.865 7.37405C19.605 10.3421 17.702 13.372 14.615 14.141C14.2365 14.2358 13.8496 14.2934 13.46 14.313L10.025 19.784C9.7501 20.2217 9.31646 20.536 8.81496 20.661L6.84096 21.153C6.58371 21.2172 6.31152 21.1765 6.08424 21.04C5.85697 20.9035 5.69321 20.6823 5.62896 20.425L5.18396 18.639C5.11876 18.3779 5.10694 18.1063 5.14921 17.8405C5.19148 17.5746 5.28697 17.3201 5.42996 17.092L8.58696 12.064C8.16274 11.4963 7.8567 10.8492 7.68696 10.1611C6.94696 7.19305 8.84896 4.16305 11.936 3.39305C15.023 2.62305 18.125 4.40705 18.865 7.37405ZM14.238 8.69705C14.923 8.52605 15.346 7.85305 15.182 7.19305C15.018 6.53305 14.328 6.13805 13.642 6.30905C12.956 6.48005 12.533 7.15305 12.698 7.81205C12.862 8.47205 13.552 8.86805 14.238 8.69705Z" fill="#47536D"/>
</svg>
