<svg width="24" height="24" viewBox="0 0 24 24" fill="none" xmlns="http://www.w3.org/2000/svg">
<path d="M8.93155 4.69178C8.62831 4.67089 8.25667 4.67089 7.80223 4.6709H7.76005C7.30555 4.67089 6.93397 4.67089 6.63067 4.69178C6.31735 4.71337 6.03259 4.7593 5.7608 4.87339C5.15605 5.12724 4.67074 5.60111 4.40905 6.20018C4.29092 6.47054 4.24358 6.75362 4.22141 7.06292C4.2 7.36148 4.20001 7.72682 4.20001 8.17136V8.21492C4.20001 8.65946 4.2 9.0248 4.22141 9.32336C4.24358 9.63266 4.29092 9.91574 4.40905 10.1861C4.67074 10.7851 5.15605 11.259 5.7608 11.5129C6.03259 11.627 6.31735 11.6729 6.63067 11.6945C6.93397 11.7154 7.30555 11.7154 7.76005 11.7154H7.80223C8.25667 11.7154 8.62831 11.7154 8.93155 11.6945C9.24493 11.6729 9.52969 11.627 9.80143 11.5129C10.4062 11.259 10.8915 10.7851 11.1532 10.1861C11.2713 9.91574 11.3187 9.63266 11.3409 9.32336C11.3623 9.0248 11.3623 8.65946 11.3622 8.21492V8.17136C11.3623 7.72682 11.3623 7.36148 11.3409 7.06292C11.3187 6.75362 11.2713 6.47054 11.1532 6.20018C10.8915 5.60111 10.4062 5.12724 9.80143 4.87339C9.52969 4.7593 9.24493 4.71337 8.93155 4.69178Z" fill="#47536D"/>
<path d="M16.9549 4.36953C16.3818 4.1446 15.743 4.14362 15.1697 4.36739C14.9095 4.46893 14.6882 4.62445 14.467 4.81222C14.254 4.99308 14.0107 5.23092 13.7161 5.51894L13.6858 5.54861C13.3913 5.83652 13.148 6.07436 12.9629 6.28274C12.7711 6.49874 12.6103 6.71684 12.5049 6.97502C12.2726 7.54376 12.2737 8.17898 12.5071 8.74748C12.613 9.00536 12.774 9.22346 12.9662 9.43976C13.1518 9.6485 13.3955 9.88688 13.6909 10.1756L13.7212 10.2052C14.0166 10.494 14.2604 10.7324 14.4737 10.9137C14.6952 11.1018 14.9166 11.2576 15.1765 11.3596C15.7496 11.5845 16.3884 11.5855 16.9617 11.3617C17.2218 11.2602 17.4432 11.1047 17.6644 10.9169C17.8774 10.7361 18.1207 10.4982 18.4152 10.2102L18.4456 10.1805C18.7401 9.89264 18.9834 9.65474 19.1685 9.44642C19.3603 9.23042 19.5211 9.01226 19.6265 8.75414C19.8587 8.18534 19.8577 7.55012 19.6243 6.98162C19.5184 6.72374 19.3574 6.50564 19.1651 6.2894C18.9796 6.08066 18.7358 5.84227 18.4405 5.55352L18.4102 5.52398C18.1148 5.23512 17.871 4.99675 17.6576 4.81546C17.4361 4.6273 17.2147 4.47152 16.9549 4.36953Z" fill="#47536D"/>
<path d="M17.3694 12.7767C17.0661 12.7559 16.6945 12.7559 16.24 12.7559H16.1978C15.7434 12.7559 15.3717 12.7559 15.0685 12.7767C14.7551 12.7983 14.4703 12.8442 14.1986 12.9584C13.5938 13.2122 13.1085 13.686 12.8468 14.2851C12.7287 14.5555 12.6814 14.8386 12.6592 15.1479C12.6378 15.4464 12.6378 15.8118 12.6378 16.2563V16.2999C12.6378 16.7444 12.6378 17.1098 12.6592 17.4083C12.6814 17.7176 12.7287 18.0007 12.8468 18.2711C13.1085 18.8702 13.5939 19.344 14.1986 19.5978C14.4703 19.712 14.7551 19.7579 15.0685 19.7795C15.3717 19.8003 15.7434 19.8003 16.1978 19.8003H16.24C16.6945 19.8003 17.0661 19.8003 17.3694 19.7795C17.6827 19.7579 17.9674 19.712 18.2392 19.5978C18.844 19.344 19.3293 18.8702 19.591 18.2711C19.7091 18.0007 19.7565 17.7176 19.7786 17.4083C19.8 17.1098 19.8 16.7444 19.8 16.2998V16.2564C19.8 15.8118 19.8 15.4464 19.7786 15.1479C19.7565 14.8386 19.7091 14.5555 19.591 14.2851C19.3293 13.686 18.844 13.2122 18.2392 12.9584C17.9674 12.8442 17.6827 12.7983 17.3694 12.7767Z" fill="#47536D"/>
<path d="M8.93155 12.7767C8.62831 12.7559 8.25667 12.7559 7.80223 12.7559H7.76005C7.30555 12.7559 6.93397 12.7559 6.63067 12.7767C6.31735 12.7983 6.03259 12.8442 5.7608 12.9584C5.15605 13.2122 4.67074 13.686 4.40905 14.2851C4.29092 14.5555 4.24358 14.8386 4.22141 15.1479C4.2 15.4464 4.20001 15.8118 4.20001 16.2563V16.2999C4.20001 16.7444 4.2 17.1098 4.22141 17.4083C4.24358 17.7176 4.29092 18.0007 4.40905 18.2711C4.67074 18.8702 5.15605 19.344 5.7608 19.5978C6.03259 19.712 6.31735 19.7579 6.63067 19.7795C6.93397 19.8003 7.30555 19.8003 7.75999 19.8003H7.80223C8.25667 19.8003 8.62831 19.8003 8.93155 19.7795C9.24493 19.7579 9.52969 19.712 9.80143 19.5978C10.4062 19.344 10.8915 18.8702 11.1532 18.2711C11.2713 18.0007 11.3187 17.7176 11.3409 17.4083C11.3623 17.1098 11.3623 16.7444 11.3622 16.2999V16.2563C11.3623 15.8118 11.3623 15.4464 11.3409 15.1479C11.3187 14.8386 11.2713 14.5555 11.1532 14.2851C10.8915 13.686 10.4062 13.2122 9.80143 12.9584C9.52969 12.8442 9.24493 12.7983 8.93155 12.7767Z" fill="#47536D"/>
</svg>
