<svg width="24" height="24" viewBox="0 0 24 24" fill="none" xmlns="http://www.w3.org/2000/svg">
<path d="M12 24C18.6274 24 24 18.6274 24 12C24 5.37258 18.6274 0 12 0C5.37258 0 0 5.37258 0 12C0 18.6274 5.37258 24 12 24Z" fill="#181B1F"/>
<path d="M16.1789 11.1348L16.1723 11.1282L12.8648 7.81836C12.8648 7.81836 8.83359 11.8496 6.89109 13.8324C6.64921 14.079 6.46593 14.4221 6.35718 14.754C6.03843 15.7285 5.77453 16.7227 5.48109 17.7071C5.40234 17.971 5.41828 18.2035 5.625 18.4004C5.82 18.5879 6.03937 18.5945 6.2925 18.5185C7.23 18.2373 8.17359 17.9696 9.11531 17.7001C9.59957 17.5597 10.0385 17.2948 10.3884 16.9318C12.2391 15.0699 16.1789 11.1348 16.1789 11.1348Z" fill="white"/>
<path d="M18.1097 7.02219L16.9786 5.8911C16.6885 5.60128 16.2953 5.43848 15.8852 5.43848C15.4752 5.43848 15.0819 5.60128 14.7919 5.8911L13.5098 7.17172L16.8281 10.4909L18.1101 9.20891C18.3999 8.91879 18.5626 8.52549 18.5625 8.11546C18.5624 7.70542 18.3996 7.31219 18.1097 7.02219Z" fill="white"/>
</svg>
