<svg width="160" height="160" viewBox="0 0 160 160" fill="none" xmlns="http://www.w3.org/2000/svg">
<mask id="mask0_732_32250" style="mask-type:alpha" maskUnits="userSpaceOnUse" x="0" y="0" width="160" height="160">
<path d="M80 160C124.183 160 160 124.183 160 80C160 35.8172 124.183 0 80 0C35.8172 0 0 35.8172 0 80C0 124.183 35.8172 160 80 160Z" fill="#D9E8FF"/>
</mask>
<g mask="url(#mask0_732_32250)">
<path d="M80 160C124.183 160 160 124.183 160 80C160 35.8172 124.183 0 80 0C35.8172 0 0 35.8172 0 80C0 124.183 35.8172 160 80 160Z" fill="#218687" fill-opacity="0.2"/>
<path d="M154.871 95.7285C128.954 96.919 109.517 111.108 103.038 118.053C93.9675 118.053 72.457 116.714 58.9805 111.356C42.1348 104.659 11.683 100.938 1.96432 86.7991C-5.81061 75.4881 -22.4403 74.1487 -29.7833 74.8928V118.053L95.9114 131.448L213.831 118.053V59.2656C191.154 60.7539 187.267 94.2403 154.871 95.7285Z" fill="#218687" fill-opacity="0.3"/>
<rect x="0.480469" y="118.469" width="213.126" height="77.1406" fill="#218687"/>
<path d="M38 44C38 38.4772 42.4772 34 48 34H111.084C116.606 34 121.084 38.4772 121.084 44V164.473C121.084 168.891 117.502 172.473 113.084 172.473H46C41.5817 172.473 38 168.891 38 164.473V44Z" fill="#22325C"/>
<path fill-rule="evenodd" clip-rule="evenodd" d="M43.1934 45.1924C43.1934 41.8787 45.8797 39.1924 49.1934 39.1924H109.892C113.205 39.1924 115.891 41.8787 115.891 45.1924V166.472C115.891 169.786 113.205 172.472 109.891 172.472H49.1934C45.8796 172.472 43.1934 169.786 43.1934 166.472V45.1924Z" fill="white"/>
<circle cx="79.2327" cy="91.2327" r="24.2327" fill="#218687"/>
<path d="M69 91.2575L76.0749 98.3318L89.4067 85" stroke="white" stroke-width="4" stroke-linecap="round" stroke-linejoin="round"/>
<path d="M63.9639 131.784H95.1202" stroke="#A5B4CB" stroke-width="3.5" stroke-linecap="round" stroke-linejoin="round"/>
<path opacity="0.5" d="M67.4258 142.17H91.6585" stroke="#A5B4CB" stroke-width="3.5" stroke-linecap="round" stroke-linejoin="round"/>
<path d="M60.502 38.6035H98.5819L95.3868 45.5167C94.8961 46.5783 93.8331 47.2581 92.6636 47.2581H66.4203C65.2508 47.2581 64.1878 46.5783 63.6971 45.5167L60.502 38.6035Z" fill="#22325C"/>
</g>
</svg>
